<svg width="164" height="28" viewBox="0 0 164 28" fill="none" xmlns="http://www.w3.org/2000/svg">
<path d="M4.77 27.912C4.33667 27.912 3.964 27.782 3.652 27.522C3.34 27.2793 3.20133 26.7767 3.236 26.014C3.27067 25.1647 3.33133 24.2807 3.418 23.362C3.50467 22.4433 3.6 21.5853 3.704 20.788C3.92933 19.0373 3.98133 17.6853 3.86 16.732C3.756 15.7613 3.48733 15.068 3.054 14.652C2.638 14.236 2.07467 13.9587 1.364 13.82C1.01733 13.7507 0.74 13.6207 0.532 13.43C0.324 13.222 0.22 12.9533 0.22 12.624C0.22 12.1907 0.393333 11.9047 0.74 11.766C1.06933 11.6273 1.494 11.558 2.014 11.558C2.41267 11.558 2.924 11.584 3.548 11.636C4.18933 11.6707 4.874 11.6967 5.602 11.714C6.20867 9.72067 6.89333 8.074 7.656 6.774C8.41867 5.474 9.25067 4.45133 10.152 3.706C11.0533 2.94333 12.0067 2.41467 13.012 2.12C14.0173 1.808 15.0573 1.652 16.132 1.652C17.4667 1.652 18.134 2.12867 18.134 3.082C18.134 3.55 17.9087 3.90533 17.458 4.148C17.0073 4.39067 16.3227 4.59 15.404 4.746C14.312 4.93667 13.35 5.292 12.518 5.812C11.7033 6.332 10.984 7.06867 10.36 8.022C9.75333 8.97533 9.216 10.206 8.748 11.714C11.1573 11.662 13.1333 11.532 14.676 11.324C16.2187 11.116 17.406 10.9167 18.238 10.726C19.0873 10.518 19.6767 10.414 20.006 10.414C20.474 10.414 20.76 10.5267 20.864 10.752C20.9853 10.9773 21.046 11.22 21.046 11.48C21.046 11.7747 20.7687 12.078 20.214 12.39C19.85 12.598 19.2693 12.832 18.472 13.092C17.6747 13.3347 16.7387 13.5773 15.664 13.82C14.5893 14.0453 13.454 14.236 12.258 14.392C11.0793 14.5307 9.92667 14.6 8.8 14.6C8.52267 14.6 8.27133 14.6 8.046 14.6C7.85533 15.6053 7.66467 16.6713 7.474 17.798C7.30067 18.9073 7.14467 19.9907 7.006 21.048C6.86733 22.1053 6.746 23.0673 6.642 23.934C6.55533 24.8007 6.50333 25.494 6.486 26.014C6.46867 26.6553 6.304 27.132 5.992 27.444C5.68 27.756 5.27267 27.912 4.77 27.912ZM19.3645 25.858C18.1339 25.858 17.1459 25.4247 16.4005 24.558C15.6552 23.674 15.2825 22.4953 15.2825 21.022C15.2825 20.554 15.3432 20.0773 15.4645 19.592C15.6032 19.1067 15.7679 18.656 15.9585 18.24C15.8545 18.084 15.7679 17.8847 15.6985 17.642C15.6465 17.382 15.6205 17.0787 15.6205 16.732C15.6205 15.6053 15.8199 14.574 16.2185 13.638C16.6172 12.6847 17.1545 11.8613 17.8305 11.168C18.5065 10.4747 19.2519 9.93733 20.0665 9.556C20.8812 9.17467 21.7045 8.984 22.5365 8.984C23.9579 8.984 25.1192 9.46067 26.0205 10.414C26.9392 11.3673 27.3985 12.8493 27.3985 14.86C27.3985 15.8653 27.2425 16.888 26.9305 17.928C26.6185 18.968 26.1939 19.9647 25.6565 20.918C25.1365 21.854 24.5299 22.6947 23.8365 23.44C23.1605 24.1853 22.4325 24.7747 21.6525 25.208C20.8899 25.6413 20.1272 25.858 19.3645 25.858ZM18.9485 17.07C19.0352 17.2607 19.0785 17.486 19.0785 17.746C19.0785 18.006 19.0265 18.2747 18.9225 18.552C18.8185 18.8293 18.7145 19.202 18.6105 19.67C18.5065 20.1207 18.4545 20.7707 18.4545 21.62C18.4545 21.8453 18.4805 22.036 18.5325 22.192C18.6019 22.3307 18.7492 22.4 18.9745 22.4C19.5639 22.4 20.1185 22.2093 20.6385 21.828C21.1759 21.4467 21.6525 20.944 22.0685 20.32C22.5019 19.696 22.8659 19.0027 23.1605 18.24C23.4725 17.46 23.7065 16.6713 23.8625 15.874C24.0359 15.0593 24.1225 14.3053 24.1225 13.612C24.1225 13.1613 24.0359 12.8493 23.8625 12.676C23.6892 12.5027 23.3859 12.416 22.9525 12.416C22.3632 12.416 21.7565 12.6067 21.1325 12.988C20.5259 13.352 20.0145 13.8547 19.5985 14.496C19.1825 15.12 18.9745 15.8307 18.9745 16.628C18.9745 16.784 18.9659 16.9313 18.9485 17.07ZM35.8881 26.3C34.3281 26.3 33.0975 25.8233 32.1961 24.87C31.3121 23.8993 30.8701 22.5213 30.8701 20.736C30.8701 19.7653 31.0001 18.63 31.2601 17.33C31.5201 16.0127 31.8581 14.626 32.2741 13.17C32.7075 11.6967 33.1668 10.2407 33.6521 8.802C34.1548 7.36333 34.6488 6.02867 35.1341 4.798C35.6195 3.56733 36.0441 2.536 36.4081 1.704C36.7201 1.06267 37.1621 0.741999 37.7341 0.741999C38.0981 0.741999 38.3928 0.854666 38.6181 1.08C38.8608 1.30533 38.9821 1.66933 38.9821 2.172C38.9821 2.41467 38.8608 2.94333 38.6181 3.758C38.3755 4.57267 38.0548 5.578 37.6561 6.774C37.2748 7.95267 36.8588 9.22667 36.4081 10.596C35.9748 11.9653 35.5588 13.3433 35.1601 14.73C34.7788 16.1167 34.4668 17.4253 34.2241 18.656C33.9815 19.8693 33.8601 20.9007 33.8601 21.75C33.8601 22.0967 33.9555 22.374 34.1461 22.582C34.3541 22.79 34.6228 22.894 34.9521 22.894C35.6628 22.894 36.3908 22.764 37.1361 22.504C37.8988 22.244 38.6441 21.9147 39.3721 21.516C40.1175 21.1173 40.8195 20.6927 41.4781 20.242C42.1368 19.7913 42.7261 19.3667 43.2461 18.968C43.7835 18.552 44.2168 18.2227 44.5461 17.98C44.9795 17.6507 45.2741 17.486 45.4301 17.486C46.0195 17.486 46.3141 17.772 46.3141 18.344C46.3141 18.4827 46.1408 18.7687 45.7941 19.202C45.4995 19.5833 45.0835 20.0687 44.5461 20.658C44.0088 21.2473 43.3848 21.8713 42.6741 22.53C41.9808 23.1713 41.2355 23.778 40.4381 24.35C39.6581 24.922 38.8781 25.39 38.0981 25.754C37.3181 26.118 36.5815 26.3 35.8881 26.3ZM49.853 26.3C48.293 26.3 47.0623 25.8233 46.161 24.87C45.277 23.8993 44.835 22.5213 44.835 20.736C44.835 19.7653 44.965 18.63 45.225 17.33C45.485 16.0127 45.823 14.626 46.239 13.17C46.6723 11.6967 47.1317 10.2407 47.617 8.802C48.1197 7.36333 48.6137 6.02867 49.099 4.798C49.5843 3.56733 50.009 2.536 50.373 1.704C50.685 1.06267 51.127 0.741999 51.699 0.741999C52.063 0.741999 52.3577 0.854666 52.583 1.08C52.8257 1.30533 52.947 1.66933 52.947 2.172C52.947 2.41467 52.8257 2.94333 52.583 3.758C52.3403 4.57267 52.0197 5.578 51.621 6.774C51.2397 7.95267 50.8237 9.22667 50.373 10.596C49.9397 11.9653 49.5237 13.3433 49.125 14.73C48.7437 16.1167 48.4317 17.4253 48.189 18.656C47.9463 19.8693 47.825 20.9007 47.825 21.75C47.825 22.0967 47.9203 22.374 48.111 22.582C48.319 22.79 48.5877 22.894 48.917 22.894C49.6277 22.894 50.3557 22.764 51.101 22.504C51.8637 22.244 52.609 21.9147 53.337 21.516C54.0823 21.1173 54.7843 20.6927 55.443 20.242C56.1017 19.7913 56.691 19.3667 57.211 18.968C57.7483 18.552 58.1817 18.2227 58.511 17.98C58.9443 17.6507 59.239 17.486 59.395 17.486C59.9843 17.486 60.279 17.772 60.279 18.344C60.279 18.4827 60.1057 18.7687 59.759 19.202C59.4643 19.5833 59.0483 20.0687 58.511 20.658C57.9737 21.2473 57.3497 21.8713 56.639 22.53C55.9457 23.1713 55.2003 23.778 54.403 24.35C53.623 24.922 52.843 25.39 52.063 25.754C51.283 26.118 50.5463 26.3 49.853 26.3ZM62.554 25.858C61.3233 25.858 60.3353 25.4247 59.59 24.558C58.8447 23.674 58.472 22.4953 58.472 21.022C58.472 20.554 58.5327 20.0773 58.654 19.592C58.7927 19.1067 58.9573 18.656 59.148 18.24C59.044 18.084 58.9573 17.8847 58.888 17.642C58.836 17.382 58.81 17.0787 58.81 16.732C58.81 15.6053 59.0093 14.574 59.408 13.638C59.8067 12.6847 60.344 11.8613 61.02 11.168C61.696 10.4747 62.4413 9.93733 63.256 9.556C64.0707 9.17467 64.894 8.984 65.726 8.984C67.1473 8.984 68.3087 9.46067 69.21 10.414C70.1287 11.3673 70.588 12.8493 70.588 14.86C70.588 15.8653 70.432 16.888 70.12 17.928C69.808 18.968 69.3833 19.9647 68.846 20.918C68.326 21.854 67.7193 22.6947 67.026 23.44C66.35 24.1853 65.622 24.7747 64.842 25.208C64.0793 25.6413 63.3167 25.858 62.554 25.858ZM62.138 17.07C62.2247 17.2607 62.268 17.486 62.268 17.746C62.268 18.006 62.216 18.2747 62.112 18.552C62.008 18.8293 61.904 19.202 61.8 19.67C61.696 20.1207 61.644 20.7707 61.644 21.62C61.644 21.8453 61.67 22.036 61.722 22.192C61.7913 22.3307 61.9387 22.4 62.164 22.4C62.7533 22.4 63.308 22.2093 63.828 21.828C64.3653 21.4467 64.842 20.944 65.258 20.32C65.6913 19.696 66.0553 19.0027 66.35 18.24C66.662 17.46 66.896 16.6713 67.052 15.874C67.2253 15.0593 67.312 14.3053 67.312 13.612C67.312 13.1613 67.2253 12.8493 67.052 12.676C66.8787 12.5027 66.5753 12.416 66.142 12.416C65.5527 12.416 64.946 12.6067 64.322 12.988C63.7153 13.352 63.204 13.8547 62.788 14.496C62.372 15.12 62.164 15.8307 62.164 16.628C62.164 16.784 62.1553 16.9313 62.138 17.07ZM77.0175 26.144C76.6535 26.144 76.3068 26.066 75.9775 25.91C75.6482 25.754 75.3535 25.4507 75.0935 25C74.8335 24.5667 74.6255 23.9253 74.4695 23.076C74.3135 22.2093 74.2355 21.0653 74.2355 19.644C74.2355 18.3093 74.3048 17.0353 74.4435 15.822C74.5822 14.5913 74.7815 13.4993 75.0415 12.546C75.3015 11.5753 75.6135 10.8127 75.9775 10.258C76.3415 9.686 76.7488 9.4 77.1995 9.4C77.5982 9.4 77.9275 9.59067 78.1875 9.972C78.4475 10.3533 78.5775 10.8993 78.5775 11.61C78.5775 12.1647 78.5082 12.8927 78.3695 13.794C78.2482 14.6953 78.1008 15.666 77.9275 16.706C77.7542 17.7287 77.5982 18.7253 77.4595 19.696C77.3382 20.6493 77.2775 21.464 77.2775 22.14C77.2775 22.2613 77.2948 22.3827 77.3295 22.504C77.3642 22.608 77.4162 22.66 77.4855 22.66C77.5895 22.66 77.7628 22.4087 78.0055 21.906C78.2482 21.4033 78.5428 20.7447 78.8895 19.93C79.2535 19.098 79.6435 18.1967 80.0595 17.226C80.4928 16.2553 80.9435 15.302 81.4115 14.366C81.8968 13.4127 82.3822 12.5633 82.8675 11.818C83.2835 11.1767 83.7775 10.6827 84.3495 10.336C84.9215 9.98933 85.4502 9.816 85.9355 9.816C86.3688 9.816 86.7935 9.92867 87.2095 10.154C87.6428 10.3793 87.9982 10.7173 88.2755 11.168C88.5528 11.6187 88.6915 12.182 88.6915 12.858C88.6915 13.118 88.6568 13.5513 88.5875 14.158C88.5355 14.7473 88.4662 15.4233 88.3795 16.186C88.2928 16.9313 88.2062 17.6853 88.1195 18.448C88.0328 19.1933 87.9548 19.8607 87.8855 20.45C87.8335 21.0393 87.8075 21.4553 87.8075 21.698C87.8075 21.7327 87.8075 21.776 87.8075 21.828C87.8075 22.0187 87.8162 22.2093 87.8335 22.4C87.8508 22.5733 87.9028 22.66 87.9895 22.66C88.1802 22.66 88.4228 22.4433 88.7175 22.01C89.0295 21.5593 89.3762 20.9613 89.7575 20.216C90.1562 19.4707 90.5722 18.6387 91.0055 17.72C91.4388 16.8013 91.8808 15.8567 92.3315 14.886C92.7995 13.898 93.2588 12.962 93.7095 12.078C94.0562 11.3327 94.3508 10.8647 94.5935 10.674C94.8362 10.466 95.0702 10.362 95.2955 10.362C95.6075 10.362 95.9368 10.518 96.2835 10.83C96.6302 11.142 96.8035 11.6273 96.8035 12.286C96.8035 12.5113 96.7948 12.7367 96.7775 12.962C96.7602 13.1873 96.6995 13.4213 96.5955 13.664C95.9022 15.4147 95.1828 17.0353 94.4375 18.526C93.7095 19.9993 92.9815 21.282 92.2535 22.374C91.5255 23.466 90.8235 24.3153 90.1475 24.922C89.4715 25.5287 88.8388 25.832 88.2495 25.832C87.0362 25.832 86.1002 25.5113 85.4415 24.87C84.8002 24.2113 84.4795 23.3273 84.4795 22.218C84.4795 21.802 84.5055 21.2733 84.5575 20.632C84.6095 19.9733 84.6702 19.2627 84.7395 18.5C84.8262 17.72 84.9128 16.9487 84.9995 16.186C85.0862 15.4233 85.1728 14.7213 85.2595 14.08C85.2942 13.8373 85.2508 13.6813 85.1295 13.612C85.0255 13.5427 84.9302 13.6207 84.8435 13.846C84.6182 14.4353 84.3755 15.0767 84.1155 15.77C83.8555 16.4633 83.6128 17.07 83.3875 17.59C83.0235 18.4567 82.5988 19.384 82.1135 20.372C81.6455 21.36 81.1342 22.296 80.5795 23.18C80.0248 24.0467 79.4442 24.7573 78.8375 25.312C78.2308 25.8667 77.6242 26.144 77.0175 26.144ZM122.399 26.17C122 26.17 121.636 26.0053 121.307 25.676C120.995 25.364 120.839 24.8353 120.839 24.09C120.839 23.5353 120.882 22.764 120.969 21.776C121.073 20.7707 121.264 19.4793 121.541 17.902C120.934 19.15 120.302 20.2593 119.643 21.23C118.984 22.2007 118.334 22.9633 117.693 23.518C117.069 24.0553 116.471 24.324 115.899 24.324C114.98 24.324 114.252 24.0467 113.715 23.492C113.178 22.92 112.909 21.854 112.909 20.294C112.909 19.5487 112.97 18.708 113.091 17.772C113.23 16.836 113.403 15.9 113.611 14.964C113.819 14.028 114.027 13.196 114.235 12.468C114.46 11.7227 114.66 11.168 114.833 10.804C114.972 10.492 115.145 10.2493 115.353 10.076C115.578 9.90267 115.864 9.816 116.211 9.816C116.766 9.816 117.19 9.998 117.485 10.362C117.78 10.726 117.927 11.0987 117.927 11.48C117.927 11.7747 117.858 12.1993 117.719 12.754C117.598 13.3087 117.442 13.924 117.251 14.6C117.078 15.276 116.896 15.9693 116.705 16.68C116.514 17.3907 116.35 18.058 116.211 18.682C116.09 19.306 116.029 19.8347 116.029 20.268C116.029 20.8053 116.237 21.074 116.653 21.074C116.896 21.074 117.208 20.84 117.589 20.372C117.988 19.904 118.404 19.28 118.837 18.5C119.288 17.7027 119.738 16.836 120.189 15.9C120.657 14.9467 121.082 13.9847 121.463 13.014C121.862 12.026 122.2 11.116 122.477 10.284C122.65 9.764 122.884 9.4 123.179 9.192C123.474 8.984 123.812 8.88 124.193 8.88C124.782 8.88 125.233 9.04467 125.545 9.374C125.874 9.70333 126.039 10.1713 126.039 10.778C126.039 11.0553 125.996 11.5233 125.909 12.182C125.822 12.8407 125.71 13.612 125.571 14.496C125.45 15.38 125.302 16.316 125.129 17.304C124.956 18.292 124.782 19.2627 124.609 20.216C124.453 21.1693 124.297 22.0447 124.141 22.842C123.985 23.622 123.855 24.246 123.751 24.714C123.578 25.4073 123.37 25.8233 123.127 25.962C122.884 26.1007 122.642 26.17 122.399 26.17ZM132.439 26.326C131.694 26.326 131.165 26.222 130.853 26.014C130.558 25.806 130.411 25.5027 130.411 25.104C130.411 24.7573 130.532 24.4627 130.775 24.22C131.018 23.96 131.555 23.7 132.387 23.44C133.358 23.1453 134.276 22.8073 135.143 22.426C136.027 22.0273 136.746 21.594 137.301 21.126C137.873 20.658 138.159 20.164 138.159 19.644C138.159 19.2973 138.038 19.046 137.795 18.89C137.57 18.734 137.301 18.656 136.989 18.656C136.729 18.656 136.348 18.6993 135.845 18.786C135.36 18.8553 134.822 18.9507 134.233 19.072C133.644 19.176 133.072 19.2713 132.517 19.358C131.98 19.4273 131.52 19.462 131.139 19.462C130.238 19.462 129.57 19.2627 129.137 18.864C128.704 18.448 128.487 17.9193 128.487 17.278C128.487 16.9313 128.669 16.4547 129.033 15.848C129.397 15.2413 129.882 14.574 130.489 13.846C131.096 13.118 131.772 12.39 132.517 11.662C133.262 10.934 134.016 10.2667 134.779 9.66C135.559 9.036 136.296 8.542 136.989 8.178C137.682 7.79667 138.272 7.606 138.757 7.606C139.312 7.606 139.754 7.77933 140.083 8.126C140.43 8.47267 140.603 8.94067 140.603 9.53C140.603 9.80733 140.577 10.1107 140.525 10.44C140.473 10.752 140.343 11.038 140.135 11.298C139.927 11.5407 139.606 11.714 139.173 11.818C138.74 11.922 138.15 11.9047 137.405 11.766C136.816 12.1993 136.2 12.676 135.559 13.196C134.935 13.6987 134.346 14.2273 133.791 14.782C133.236 15.3193 132.777 15.848 132.413 16.368C133.054 16.16 133.782 15.9953 134.597 15.874C135.412 15.7353 136.235 15.666 137.067 15.666C138.072 15.666 138.887 15.848 139.511 16.212C140.152 16.5587 140.62 17.0267 140.915 17.616C141.227 18.2053 141.383 18.8553 141.383 19.566C141.383 20.3633 141.123 21.1607 140.603 21.958C140.083 22.7553 139.39 23.4833 138.523 24.142C137.656 24.8007 136.694 25.3293 135.637 25.728C134.58 26.1267 133.514 26.326 132.439 26.326ZM147.36 19.072C147.117 19.072 146.901 18.9767 146.71 18.786C146.537 18.578 146.45 18.2053 146.45 17.668C146.45 17.2867 146.519 16.6887 146.658 15.874C146.797 15.0593 146.987 14.1233 147.23 13.066C147.49 11.9913 147.785 10.8733 148.114 9.712C148.443 8.53333 148.799 7.38067 149.18 6.254C149.561 5.11 149.951 4.07867 150.35 3.16C150.541 2.70933 150.835 2.37133 151.234 2.146C151.65 1.90333 152.101 1.782 152.586 1.782C153.089 1.782 153.453 2.016 153.678 2.484C153.903 2.952 154.016 3.46333 154.016 4.018C154.016 4.226 153.912 4.616 153.704 5.188C153.513 5.76 153.253 6.45333 152.924 7.268C152.595 8.08267 152.231 8.96667 151.832 9.92C151.451 10.856 151.061 11.8093 150.662 12.78C150.281 13.7333 149.925 14.6433 149.596 15.51C149.267 16.3767 148.998 17.1393 148.79 17.798C148.651 18.266 148.461 18.5953 148.218 18.786C147.993 18.9767 147.707 19.072 147.36 19.072ZM146.008 26.326C145.8 26.326 145.557 26.274 145.28 26.17C145.003 26.066 144.76 25.8147 144.552 25.416C144.361 25.0347 144.266 24.4193 144.266 23.57C144.266 22.9113 144.474 22.4087 144.89 22.062C145.306 21.7153 145.861 21.542 146.554 21.542C147.143 21.542 147.594 21.7067 147.906 22.036C148.235 22.3653 148.4 22.8333 148.4 23.44C148.4 23.9947 148.261 24.4887 147.984 24.922C147.724 25.3553 147.403 25.6933 147.022 25.936C146.658 26.196 146.32 26.326 146.008 26.326ZM160.897 15.38C160.897 16.3507 160.793 17.0873 160.585 17.59C160.394 18.0753 160.152 18.4047 159.857 18.578C159.562 18.734 159.276 18.812 158.999 18.812C158.566 18.812 158.254 18.6733 158.063 18.396C157.89 18.1187 157.803 17.6593 157.803 17.018C157.803 16.2207 157.872 15.3367 158.011 14.366C158.15 13.3953 158.332 12.4073 158.557 11.402C158.782 10.3793 159.034 9.4 159.311 8.464C159.588 7.528 159.874 6.68733 160.169 5.942C160.464 5.17933 160.741 4.58133 161.001 4.148C161.278 3.71467 161.512 3.498 161.703 3.498C162.223 3.498 162.604 3.628 162.847 3.888C163.107 4.13067 163.237 4.55533 163.237 5.162C163.237 6.11533 163.055 7.32 162.691 8.776C162.327 10.232 161.642 11.948 160.637 13.924C160.724 14.3053 160.784 14.6 160.819 14.808C160.871 14.9987 160.897 15.1893 160.897 15.38ZM157.517 25.078C156.928 25.078 156.451 24.9133 156.087 24.584C155.74 24.2373 155.567 23.6913 155.567 22.946C155.567 22.0793 155.784 21.412 156.217 20.944C156.65 20.4587 157.292 20.216 158.141 20.216C158.748 20.216 159.216 20.3893 159.545 20.736C159.892 21.0653 160.065 21.6113 160.065 22.374C160.065 23.1193 159.831 23.7607 159.363 24.298C158.895 24.818 158.28 25.078 157.517 25.078Z" fill="#FFE57E"/>
</svg>
