<svg width="96" height="58" viewBox="0 0 96 58" fill="none" xmlns="http://www.w3.org/2000/svg">
<path d="M11.1742 12.688C10.5231 12.6081 10.0192 12.4777 9.66262 12.2969C9.306 12.1161 9.06876 11.8492 8.9509 11.4962C8.84098 11.1441 8.82161 10.6783 8.89278 10.0987C8.962 9.53489 9.08409 9.09852 9.25905 8.78954C9.44195 8.48153 9.70495 8.27605 10.0481 8.1731C10.3991 8.07112 10.8654 8.04778 11.447 8.10307L11.6386 6.54278L9.03019 6.22251C8.83168 6.19814 8.68415 6.11957 8.58761 5.98682C8.49205 5.84612 8.45499 5.68843 8.47644 5.51374C8.49789 5.33905 8.57151 5.19898 8.6973 5.09353C8.82406 4.98013 8.9867 4.93562 9.18521 4.95999L11.7936 5.28027L11.9676 3.86291C11.6223 3.85275 11.2814 3.8391 10.945 3.82198C10.6086 3.80485 10.3005 3.78716 10.0206 3.76892C9.79728 3.74956 9.62399 3.68395 9.5007 3.5721C9.37839 3.4523 9.32197 3.2882 9.33143 3.0798C9.34592 2.89619 9.42002 2.75215 9.55375 2.64767C9.69542 2.54416 9.866 2.50063 10.0655 2.51706C10.4238 2.55299 10.8232 2.58189 11.2639 2.60375C11.7134 2.61865 12.1674 2.63006 12.6258 2.63799C13.0853 2.63798 13.5214 2.63108 13.9341 2.61728C14.3469 2.60347 14.7045 2.57888 15.0071 2.54349C15.2353 2.52315 15.4284 2.55894 15.5863 2.65088C15.7453 2.73488 15.8374 2.87112 15.8626 3.05959C15.8808 3.23916 15.84 3.40744 15.7401 3.56444C15.6412 3.71349 15.4861 3.7952 15.2748 3.80955C15.0218 3.83491 14.7331 3.85588 14.4087 3.87247C14.0852 3.88111 13.7464 3.88383 13.3921 3.88064L13.1991 5.45283L15.8432 5.77749C16.0417 5.80187 16.1888 5.8844 16.2843 6.0251C16.3809 6.15785 16.4184 6.31157 16.397 6.48626C16.3755 6.66095 16.3014 6.80499 16.1746 6.91839C16.0488 7.02384 15.8867 7.06438 15.6882 7.04001L13.044 6.71535L12.8525 8.27563C13.4311 8.35475 13.878 8.49021 14.1929 8.68202C14.5089 8.8659 14.7183 9.12939 14.8213 9.47249C14.9242 9.8156 14.9411 10.269 14.8719 10.8328C14.8007 11.4124 14.6652 11.8593 14.4655 12.1733C14.2737 12.4882 13.9829 12.6903 13.5931 12.7795C13.2113 12.8696 12.6948 12.8747 12.0437 12.7948L11.1742 12.688ZM5.20683 11.8586C5.03687 11.7329 4.93678 11.5635 4.90654 11.3502C4.88425 11.1379 4.93941 10.9512 5.07203 10.7902C5.25312 10.5626 5.45545 10.2932 5.67903 9.98213C5.91152 9.66409 6.13656 9.34111 6.35414 9.01318C6.57173 8.68526 6.74773 8.40059 6.88216 8.15917C6.97604 7.98531 7.11869 7.87387 7.31009 7.82483C7.50247 7.76785 7.69255 7.79522 7.88034 7.90694C8.05322 8.00876 8.15178 8.15789 8.17602 8.3543C8.20918 8.54376 8.18279 8.7259 8.09684 8.90073C8.00198 9.08252 7.87939 9.29315 7.72909 9.53262C7.58673 9.77306 7.42702 10.0235 7.24997 10.2838C7.08183 10.5372 6.91419 10.7867 6.74703 11.0321C6.58084 11.2696 6.43444 11.4773 6.30781 11.6552C6.18216 11.8252 6.00776 11.9327 5.78459 11.9779C5.56937 12.024 5.37678 11.9842 5.20683 11.8586ZM11.3278 11.4374L12.1973 11.5441C12.499 11.5812 12.7362 11.5861 12.9087 11.559C13.0823 11.5239 13.2101 11.4348 13.2922 11.2917C13.3822 11.1496 13.4447 10.9356 13.4798 10.6498C13.5315 10.2289 13.4857 9.94525 13.3425 9.79871C13.2003 9.64422 12.9029 9.53919 12.4503 9.48362L11.5808 9.37686C11.1202 9.32032 10.8023 9.34979 10.6269 9.46527C10.4595 9.58173 10.3509 9.84244 10.3012 10.2474C10.2651 10.5412 10.2695 10.7674 10.3145 10.9261C10.3595 11.0848 10.462 11.2021 10.6219 11.2782C10.7908 11.3473 11.026 11.4003 11.3278 11.4374ZM7.83281 3.863C7.7314 3.76995 7.5962 3.65663 7.42722 3.52304C7.26618 3.39042 7.10863 3.26227 6.95455 3.13857C6.80146 3.00693 6.67671 2.90698 6.58031 2.83872C6.42428 2.7309 6.33715 2.58721 6.31889 2.40765C6.30955 2.22112 6.35482 2.04936 6.4547 1.89236C6.56252 1.73634 6.71861 1.64669 6.92297 1.62342C7.13527 1.60113 7.32291 1.64835 7.4859 1.76508C7.58328 1.8254 7.709 1.91741 7.86307 2.04111C8.02509 2.16578 8.18661 2.29443 8.34765 2.42704C8.51761 2.55269 8.65329 2.66204 8.75471 2.75509C8.9078 2.88673 8.99202 3.05424 9.00735 3.25763C9.03159 3.45405 8.9774 3.63277 8.84479 3.79381C8.71413 3.93897 8.5471 4.01921 8.34372 4.03454C8.14925 4.04291 7.97895 3.98572 7.83281 3.863ZM6.95296 6.49942C6.85154 6.40637 6.72031 6.29354 6.55928 6.16092C6.39824 6.02831 6.23671 5.89967 6.0747 5.77499C5.92062 5.65129 5.79539 5.55531 5.69899 5.48706C5.5509 5.38021 5.46822 5.23304 5.45095 5.04554C5.43367 4.85803 5.47845 4.69024 5.58529 4.54216C5.69409 4.37819 5.85017 4.28855 6.05356 4.27322C6.25792 4.24995 6.44208 4.29272 6.60604 4.40151C6.70244 4.46977 6.83165 4.56623 6.99366 4.6909C7.15665 4.80764 7.31867 4.93231 7.4797 5.06493C7.64172 5.1896 7.77343 5.29846 7.87485 5.39152C8.02795 5.52316 8.11216 5.69067 8.12749 5.89405C8.15076 6.09841 8.09657 6.27714 7.96493 6.43024C7.83329 6.58334 7.66578 6.66755 7.4624 6.68288C7.26793 6.69124 7.09812 6.63009 6.95296 6.49942ZM24.5964 14.5416C24.3979 14.5172 24.234 14.4406 24.1047 14.3119C23.9754 14.1832 23.9155 14.0147 23.925 13.8063C23.9424 13.5988 24.0155 13.4305 24.1442 13.3012C24.2808 13.1729 24.4568 13.1179 24.6722 13.1363C24.9362 13.1526 25.1426 13.1457 25.2913 13.1156C25.4411 13.0776 25.5605 12.9915 25.6495 12.8573C25.7385 12.7232 25.8204 12.5156 25.8952 12.2347C26.0104 11.8216 26.117 11.3148 26.2149 10.7143C26.3217 10.1068 26.4269 9.41442 26.5304 8.63724C26.5812 8.28884 26.5653 8.05718 26.4827 7.94225C26.4011 7.81939 26.2059 7.73498 25.8972 7.68901C25.6625 9.27221 25.2789 10.5913 24.7463 11.6463C24.2217 12.7022 23.5508 13.5387 22.7335 14.1557C22.574 14.2731 22.394 14.3276 22.1936 14.3191C21.9931 14.3106 21.8267 14.2216 21.6944 14.0523C21.5978 13.9195 21.5603 13.7658 21.5817 13.5911C21.6111 13.4174 21.6957 13.2867 21.8354 13.1991C21.8622 13.1782 21.8889 13.1573 21.9156 13.1364C21.9424 13.1155 21.9652 13.0941 21.984 13.0722C21.5633 13.0851 21.0662 13.0966 20.4927 13.1067C19.9201 13.109 19.3366 13.1018 18.7422 13.0853C18.1468 13.0766 17.5966 13.0615 17.0915 13.0397C16.8999 13.0243 16.7465 12.9611 16.6311 12.8502C16.5158 12.7394 16.4619 12.5877 16.4694 12.3951C16.4809 12.2353 16.5417 12.1018 16.6516 11.9943C16.7704 11.88 16.9177 11.8295 17.0933 11.8431C17.3811 11.8623 17.7051 11.8819 18.0654 11.902C18.4336 11.923 18.8102 11.941 19.1952 11.9561L19.2742 11.3129L17.2732 11.0672C17.1223 11.0487 17.0135 10.9829 16.9468 10.8699C16.8801 10.757 16.8545 10.637 16.8701 10.5099C16.8857 10.3829 16.9391 10.2766 17.0302 10.191C17.1223 10.0976 17.2437 10.0601 17.3946 10.0786L19.3956 10.3243L19.4497 9.88362L19.3663 9.87338C18.8264 9.80708 18.4114 9.70777 18.1213 9.57544C17.8392 9.44408 17.6582 9.24453 17.5782 8.97679C17.4993 8.70111 17.489 8.32505 17.5475 7.84863C17.607 7.36427 17.7079 7.00187 17.8503 6.76142C17.9936 6.51304 18.218 6.35924 18.5235 6.30003C18.8369 6.2418 19.2636 6.24583 19.8036 6.31212L19.8869 6.32236L19.9337 5.94122L17.7184 5.66921C17.5675 5.65069 17.4547 5.58445 17.3801 5.4705C17.3054 5.35655 17.2764 5.23208 17.2929 5.0971C17.3095 4.96211 17.3673 4.85234 17.4664 4.76778C17.5664 4.67528 17.6918 4.63829 17.8427 4.65681L20.058 4.92883L20.1107 4.50005C19.8219 4.48877 19.5376 4.47401 19.2577 4.45577C18.9868 4.43056 18.7278 4.40681 18.4806 4.38453C18.0906 4.3447 17.8971 4.14765 17.9003 3.7934C17.9099 3.6495 17.9687 3.53179 18.0767 3.44026C18.1936 3.34177 18.3438 3.29977 18.5274 3.31425C18.982 3.35394 19.4613 3.38862 19.9654 3.41828C20.4785 3.44098 20.9767 3.45378 21.4599 3.4567C21.9521 3.45265 22.3896 3.43383 22.7726 3.40025C22.968 3.38395 23.1293 3.41584 23.2565 3.49594C23.3916 3.57701 23.4653 3.6989 23.4776 3.86161C23.5102 4.2525 23.3435 4.46174 22.9774 4.48933C22.7502 4.50173 22.4991 4.51121 22.2243 4.51776C21.9494 4.52431 21.6627 4.5294 21.364 4.53303L21.2967 5.08092L23.5002 5.35147C23.659 5.37097 23.7718 5.4372 23.8385 5.55018C23.9141 5.65619 23.9437 5.77669 23.9271 5.91167C23.9232 5.94343 23.9153 5.97471 23.9035 6.00549C23.8996 6.03726 23.8922 6.06456 23.8814 6.08741L24.7627 6.19563L25.0143 4.14701C25.0396 3.94056 25.1226 3.78955 25.2633 3.69399C25.405 3.59048 25.5672 3.54994 25.7498 3.57236C25.9324 3.59479 26.076 3.67286 26.1805 3.80659C26.2938 3.93336 26.3379 4.09997 26.3125 4.30641L26.061 6.35503C26.5453 6.4145 26.9316 6.51835 27.2197 6.66656C27.5077 6.81477 27.7052 7.04455 27.8121 7.35589C27.9189 7.66724 27.9338 8.1043 27.8566 8.66709C27.7512 9.46016 27.6406 10.1962 27.525 10.8751C27.4104 11.5462 27.2936 12.1363 27.1747 12.6456C27.0469 13.2264 26.8727 13.6604 26.6521 13.9477C26.4305 14.2429 26.1496 14.43 25.8094 14.5091C25.4771 14.5893 25.0728 14.6001 24.5964 14.5416ZM22.6213 12.5097C23.1123 11.9897 23.5202 11.3264 23.8449 10.52C24.1706 9.70562 24.4219 8.70882 24.5989 7.52961L23.8128 7.43309C23.6143 7.40871 23.4633 7.32569 23.3598 7.18402C23.2573 7.03441 23.2172 6.86829 23.2397 6.68566C23.2562 6.55068 23.2977 6.44292 23.364 6.3624L21.1724 6.09332L21.1256 6.47445L21.1971 6.48323C21.745 6.5505 22.156 6.64933 22.4302 6.77971C22.7123 6.91107 22.8928 7.11459 22.9718 7.39027C23.0518 7.65801 23.062 8.03406 23.0025 8.51843C22.944 8.99485 22.8431 9.35725 22.6998 9.60563C22.5574 9.84608 22.3335 9.9959 22.028 10.0551C21.7304 10.1153 21.3077 10.1118 20.7598 10.0445L20.6884 10.0357L20.6343 10.4764L22.4328 10.6972C22.5836 10.7158 22.6924 10.7815 22.7592 10.8945C22.8269 10.9995 22.8529 11.1155 22.8373 11.2426C22.8217 11.3696 22.7679 11.4799 22.6758 11.5734C22.5837 11.6669 22.4622 11.7043 22.3114 11.6858L20.5129 11.465L20.4471 12.001C20.7686 12.0082 21.0737 12.0174 21.3625 12.0287C21.6523 12.0321 21.9058 12.035 22.1231 12.0375C22.2759 12.0401 22.3951 12.087 22.4806 12.1781C22.5672 12.2613 22.614 12.3718 22.6213 12.5097ZM19.546 9.00077L19.5579 9.00224L19.6193 8.50199L18.7022 8.38939C18.6978 8.62258 18.7517 8.77428 18.8639 8.84449C18.9772 8.90676 19.2046 8.95885 19.546 9.00077ZM20.7966 9.15433C21.138 9.19625 21.3712 9.2007 21.4962 9.16769C21.6221 9.12673 21.7111 8.99258 21.7632 8.76523L20.858 8.65409L20.7966 9.15433ZM18.8017 7.57947L19.7188 7.69207L19.7787 7.20374L19.7668 7.20228C19.4254 7.16036 19.1922 7.1559 19.0672 7.18892C18.9423 7.22194 18.8537 7.35212 18.8017 7.57947ZM20.9575 7.84417L21.8627 7.95531C21.8671 7.72212 21.8127 7.57439 21.6995 7.51212C21.5862 7.44985 21.3589 7.39776 21.0174 7.35583L20.9575 7.84417ZM35.217 14.8905C35.0127 14.9138 34.8295 14.8631 34.6675 14.7384C34.5054 14.6137 34.4123 14.4532 34.3881 14.2567C34.3638 14.0603 34.4136 13.8851 34.5373 13.731C34.6619 13.569 34.8225 13.4759 35.0189 13.4516C35.9286 13.3296 36.6215 13.0358 37.0978 12.5704C37.582 12.106 37.8729 11.4767 37.9703 10.6827C38.0318 10.1824 37.9757 9.72015 37.8021 9.29583C37.6285 8.87152 37.3504 8.51093 36.9677 8.21408C36.593 7.91821 36.1232 7.70738 35.5583 7.5816C35.2516 8.89804 34.8675 10.0236 34.4062 10.9584C33.9537 11.8861 33.4646 12.5878 32.9387 13.0632C32.4218 13.5317 31.9132 13.7352 31.4129 13.6738C30.9921 13.6222 30.6221 13.4518 30.303 13.1627C29.9838 12.8737 29.7493 12.4862 29.5994 12.0003C29.4574 11.5154 29.4259 10.9514 29.5049 10.3082C29.5858 9.64915 29.7844 9.04889 30.1008 8.5074C30.4261 7.95895 30.8458 7.49464 31.3599 7.11447C31.8741 6.7343 32.456 6.45916 33.1055 6.28905C33.763 6.11992 34.465 6.08118 35.2114 6.17283C36.1166 6.28397 36.8971 6.55713 37.553 6.9923C38.2177 7.42051 38.7146 7.96915 39.0435 8.63822C39.3734 9.29935 39.4881 10.0388 39.3877 10.8567C39.2463 12.0081 38.8187 12.9308 38.1048 13.625C37.3998 14.3122 36.4372 14.734 35.217 14.8905ZM31.6047 12.2103C31.7477 12.2278 31.9251 12.1287 32.1369 11.9129C32.3577 11.6902 32.5907 11.3682 32.8359 10.9469C33.081 10.5256 33.3201 10.023 33.553 9.43906C33.7869 8.84715 33.9888 8.18685 34.1589 7.45814C33.5249 7.5012 32.9766 7.66761 32.5138 7.95738C32.052 8.2392 31.6852 8.60119 31.4133 9.04335C31.1423 9.47756 30.9717 9.94828 30.9013 10.4555C30.835 10.9954 30.8682 11.4146 31.0008 11.713C31.1414 12.0123 31.3427 12.1781 31.6047 12.2103ZM46.4376 17.3442C46.2471 17.3208 46.0921 17.2373 45.9727 17.0937C45.8523 16.958 45.7964 16.79 45.8049 16.5895C45.8203 16.3979 45.8954 16.246 46.0301 16.1335C46.1728 16.0221 46.3443 15.9706 46.5448 15.9791C46.77 15.9826 46.9178 15.9604 46.9882 15.9127C47.0675 15.8579 47.1198 15.7273 47.1451 15.5209L47.5707 12.0549L45.2243 11.7668C45.0734 11.7483 44.9527 11.6811 44.8622 11.5652C44.7716 11.4493 44.7356 11.3159 44.7541 11.165C44.7727 11.0141 44.8399 10.8934 44.9558 10.8029C45.0717 10.7123 45.205 10.6763 45.3559 10.6948L47.7023 10.9829L47.774 10.3993L46.0112 10.1829C45.8841 10.1673 45.7788 10.106 45.6952 9.99901C45.6126 9.88408 45.5796 9.75913 45.5962 9.62414C45.6128 9.48915 45.6745 9.37987 45.7815 9.29628C45.8885 9.2127 46.0055 9.17871 46.1326 9.19431L47.8953 9.41075L47.9655 8.83904L45.774 8.56995C45.639 8.55338 45.5297 8.4916 45.4461 8.38461C45.3635 8.26969 45.3305 8.14473 45.3471 8.00975C45.3637 7.87476 45.4254 7.76548 45.5324 7.68189C45.6404 7.59037 45.7618 7.55289 45.8968 7.56947L46.9569 7.69962C46.901 7.5638 46.8377 7.42303 46.7669 7.27732C46.7051 7.12465 46.6577 7.01808 46.6248 6.95762C46.562 6.81289 46.5597 6.66752 46.6179 6.52153C46.6851 6.36857 46.795 6.26117 46.9476 6.19931C47.1083 6.13843 47.2616 6.13711 47.4076 6.19533C47.5615 6.25453 47.6768 6.36542 47.7536 6.52798C47.7865 6.58844 47.8308 6.68658 47.8867 6.8224C47.9426 6.95822 47.9975 7.10198 48.0514 7.25368C48.1142 7.39842 48.1606 7.51293 48.1906 7.59721C48.2284 7.68246 48.242 7.76876 48.2313 7.8561L49.1365 7.96725C49.2048 7.87085 49.2883 7.74812 49.3872 7.59906C49.4871 7.44206 49.5865 7.28903 49.6854 7.13998C49.7843 6.99092 49.863 6.87564 49.9213 6.79415C50.0123 6.64411 50.1401 6.55503 50.3048 6.52688C50.4783 6.49177 50.6396 6.52367 50.7887 6.62257C50.9387 6.71354 51.0283 6.83738 51.0574 6.99409C51.0945 7.15179 51.0645 7.29722 50.9676 7.4304C50.928 7.49002 50.8598 7.58642 50.7628 7.7196C50.6659 7.85277 50.5644 7.98943 50.4586 8.12958L51.6854 8.28021C51.8204 8.29678 51.9291 8.36253 52.0118 8.47745C52.0953 8.58444 52.1288 8.70542 52.1123 8.84041C52.0957 8.9754 52.0334 9.08865 51.9255 9.18018C51.8185 9.26376 51.6975 9.29727 51.5625 9.28069L49.2876 9.00137L49.2174 9.57308L50.8849 9.77782C51.0199 9.79439 51.1292 9.85617 51.2127 9.96315C51.2963 10.0701 51.3298 10.1911 51.3133 10.3261C51.2967 10.4611 51.2344 10.5744 51.1265 10.6659C51.0195 10.7495 50.8985 10.783 50.7635 10.7664L49.096 10.5617L49.0244 11.1453L51.4899 11.448C51.6407 11.4665 51.7614 11.5337 51.852 11.6496C51.9425 11.7655 51.9785 11.8989 51.96 12.0498C51.9415 12.2006 51.8743 12.3214 51.7584 12.4119C51.6425 12.5025 51.5091 12.5385 51.3582 12.5199L48.8927 12.2172L48.7758 13.1701C48.9667 13.387 49.1662 13.6009 49.374 13.8118C49.5304 13.6536 49.7052 13.4776 49.8983 13.2837C50.0913 13.0898 50.2295 12.9496 50.3126 12.8631C50.4255 12.7318 50.5637 12.6561 50.7274 12.6359C50.8911 12.6157 51.0385 12.662 51.1698 12.7749C51.302 12.8798 51.3782 13.0141 51.3984 13.1777C51.4195 13.3335 51.3742 13.473 51.2623 13.5963C51.1515 13.7116 50.9826 13.8722 50.7558 14.0781C50.538 14.2771 50.3384 14.4581 50.1572 14.6212C50.3949 14.8519 50.6181 15.0687 50.8269 15.2717C51.0437 15.4756 51.2286 15.6434 51.3817 15.7751C51.506 15.879 51.5733 16.0202 51.5836 16.1988C51.5939 16.3774 51.5431 16.5284 51.4313 16.6516C51.2907 16.8117 51.1321 16.8889 50.9555 16.8834C50.7778 16.8858 50.616 16.8256 50.4698 16.7029C50.2889 16.5356 50.0835 16.337 49.8538 16.1073C49.633 15.8707 49.4132 15.6261 49.1943 15.3735C48.9755 15.1209 48.7745 14.8867 48.5915 14.6708L48.4526 15.8023C48.3755 16.4296 48.1775 16.8607 47.8585 17.0955C47.5395 17.3304 47.0659 17.4133 46.4376 17.3442ZM42.4045 16.9095C42.2378 16.889 42.0977 16.8154 41.9843 16.6886C41.8789 16.5628 41.8374 16.4086 41.8598 16.226L42.3526 12.2121C42.2122 12.4367 42.0733 12.6494 41.9358 12.8501C41.7983 13.0508 41.6677 13.2282 41.544 13.3823C41.4461 13.5234 41.3033 13.6026 41.1158 13.6199C40.9372 13.6302 40.7789 13.5745 40.6407 13.4528C40.5243 13.3498 40.4635 13.2214 40.4582 13.0676C40.4529 12.9139 40.5027 12.7709 40.6076 12.6387C40.768 12.4488 40.9461 12.2127 41.1419 11.9305C41.3378 11.6483 41.5351 11.3541 41.7339 11.0481C41.9336 10.7341 42.116 10.43 42.2811 10.1359C42.4551 9.83491 42.5959 9.57413 42.7036 9.35361L42.7212 9.21068L41.6254 9.07614C41.4666 9.05664 41.3384 8.98448 41.2409 8.85967C41.1444 8.72691 41.1053 8.5851 41.1239 8.43423C41.1434 8.27543 41.2155 8.14726 41.3403 8.04975C41.4661 7.94429 41.6084 7.90131 41.7672 7.92081L42.863 8.05536L43.0751 6.32833C43.0985 6.13776 43.1765 5.9942 43.3093 5.89766C43.45 5.80209 43.6037 5.76455 43.7705 5.78502C43.9451 5.80647 44.0852 5.88009 44.1907 6.00588C44.2961 6.13167 44.3372 6.28985 44.3138 6.48042L44.1017 8.20745L44.8878 8.30397C45.0466 8.32347 45.1743 8.3996 45.2708 8.53235C45.3683 8.65716 45.4073 8.79898 45.3878 8.95778C45.3693 9.10865 45.2972 9.23681 45.1714 9.34227C45.0466 9.43978 44.9048 9.47879 44.7459 9.45929L43.9598 9.36277L43.8619 10.1608C43.9555 10.3174 44.075 10.5255 44.2204 10.7851C44.3748 11.0378 44.5296 11.2866 44.685 11.5313C44.8403 11.7761 44.9623 11.9643 45.0509 12.0961C45.1474 12.2289 45.1775 12.3776 45.1411 12.5424C45.1137 12.7003 45.0296 12.827 44.8889 12.9225C44.7483 13.0181 44.5915 13.0472 44.4188 13.0099C44.254 12.9735 44.1283 12.8815 44.0416 12.7339C43.9958 12.6476 43.9365 12.5396 43.8638 12.4098C43.7911 12.2799 43.7158 12.1377 43.6381 11.9831L43.0985 16.3781C43.0761 16.5607 42.9985 16.7003 42.8657 16.7968C42.733 16.8934 42.5792 16.9309 42.4045 16.9095ZM44.7616 15.9294C44.5771 15.9874 44.4 15.9858 44.2302 15.9246C44.0693 15.8565 43.9598 15.7302 43.9019 15.5458C43.8439 15.3614 43.852 15.1971 43.9261 15.0531C44.0091 14.9021 44.1468 14.7981 44.3392 14.7411C44.5316 14.6841 44.7498 14.6142 44.9937 14.5313C45.2465 14.4414 45.4959 14.3471 45.7417 14.2483C45.9955 14.1505 46.2112 14.0682 46.3887 14.0013C46.5413 13.9395 46.6862 13.9412 46.8233 14.0064C46.9683 14.0725 47.0643 14.177 47.1112 14.3198C47.2231 14.6559 47.1071 14.9117 46.7631 15.0871C46.6006 15.1638 46.3954 15.2595 46.1475 15.3742C45.9007 15.4809 45.6543 15.5836 45.4085 15.6824C45.1626 15.7812 44.947 15.8635 44.7616 15.9294ZM46.7439 13.7669C46.6121 13.8555 46.4708 13.8905 46.3199 13.872C46.17 13.8455 46.0503 13.7704 45.9607 13.6465C45.8851 13.5405 45.7736 13.3979 45.6264 13.2186C45.4871 13.0403 45.3711 12.9011 45.2786 12.8011C45.1881 12.6852 45.1521 12.5518 45.1706 12.401C45.198 12.2431 45.2697 12.119 45.3856 12.0284C45.5263 11.9328 45.6681 11.8938 45.8111 11.9114C45.954 11.9289 46.0782 12.0006 46.1836 12.1264C46.2413 12.1818 46.3154 12.2675 46.406 12.3834C46.4975 12.4914 46.589 12.5993 46.6805 12.7073C46.7721 12.8152 46.8382 12.8999 46.8791 12.9614C46.9756 13.0941 47.0101 13.2394 46.9827 13.3972C46.9562 13.5471 46.8766 13.6703 46.7439 13.7669ZM56.0001 18.4337C55.7778 18.4064 55.5985 18.324 55.4623 18.1863C55.334 18.0497 55.2765 17.8613 55.2899 17.6211C55.3102 17.3899 55.4076 17.2205 55.582 17.1129C55.7643 17.0064 55.9473 16.9603 56.1309 16.9748C56.5696 17.0125 56.9287 16.976 57.2083 16.8653C57.4879 16.7545 57.7067 16.5476 57.8648 16.2447C58.0308 15.9426 58.1475 15.5177 58.2148 14.9698C58.2674 14.541 58.2357 14.1099 58.1197 13.6766L53.2721 13.0814C53.0894 13.0589 52.9424 12.9764 52.831 12.8338C52.7205 12.6832 52.6765 12.5166 52.6989 12.3339C52.7213 12.1513 52.8039 12.0043 52.9465 11.8928C53.0891 11.7814 53.2518 11.7369 53.4344 11.7593L57.5316 12.2624C57.3583 11.967 57.1414 11.6986 56.8809 11.4571C56.7377 11.3105 56.6664 11.1365 56.6669 10.9351C56.6754 10.7346 56.751 10.5787 56.8937 10.4672C57.072 10.3279 57.2524 10.2695 57.4351 10.2919C57.6177 10.3143 57.7885 10.3998 57.9476 10.5483C57.9834 10.5849 58.0158 10.6171 58.0446 10.6448C58.0814 10.6735 58.1142 10.7017 58.143 10.7295C58.3453 10.6576 58.5689 10.5762 58.8138 10.4854C59.0587 10.3945 59.2822 10.3132 59.4845 10.2413C59.6877 10.1615 59.8275 10.1061 59.9039 10.0752C60.1002 9.98643 60.1897 9.88056 60.1726 9.75755C60.1634 9.63552 60.0556 9.56183 59.8491 9.53648L55.0373 8.94566C54.8626 8.92421 54.7195 8.84216 54.608 8.69952C54.4976 8.54893 54.4531 8.3863 54.4745 8.21161C54.4969 8.02898 54.579 7.88591 54.7207 7.78241C54.8633 7.67096 55.022 7.62596 55.1967 7.64741L60.5445 8.30404C61.013 8.36156 61.37 8.50615 61.6156 8.73781C61.8692 8.97044 62.0092 9.24153 62.0356 9.55106C62.071 9.85363 61.9948 10.1465 61.8068 10.4297C61.6278 10.706 61.3356 10.92 60.9301 11.0717C60.6505 11.1824 60.3337 11.3007 59.9798 11.4265C59.6347 11.5453 59.2901 11.6602 58.9461 11.7711C59.0785 12.005 59.1947 12.2409 59.2944 12.4788L63.344 12.976C63.5266 12.9985 63.6737 13.081 63.7851 13.2236C63.8965 13.3663 63.9411 13.5289 63.9186 13.7116C63.8962 13.8942 63.8132 14.0452 63.6696 14.1646C63.5269 14.276 63.3643 14.3205 63.1817 14.2981L59.6561 13.8652C59.6784 14.0775 59.6873 14.3003 59.6829 14.5335C59.6864 14.7676 59.6735 15.0038 59.6443 15.242C59.4902 16.4966 59.1046 17.3722 58.4875 17.8687C57.8774 18.3741 57.0483 18.5624 56.0001 18.4337ZM69.3262 19.8886C69.1317 19.897 68.9624 19.8318 68.8182 19.6932C68.6819 19.5556 68.6101 19.3856 68.6027 19.1832C68.6012 18.4737 68.5459 17.677 68.4368 16.7931C68.3366 15.9023 68.1913 15.018 68.0008 14.1402C67.5456 14.2375 67.1067 14.3327 66.6842 14.4259C66.2706 14.5122 65.8937 14.5948 65.5535 14.674C65.3631 14.7151 65.1819 14.6807 65.01 14.571C64.8461 14.4622 64.7435 14.3126 64.7024 14.1221C64.6613 13.9317 64.6952 13.7545 64.804 13.5905C64.9138 13.4186 65.0638 13.3121 65.2543 13.271C65.5935 13.1999 65.9699 13.1211 66.3835 13.0349C66.7971 12.9487 67.2265 12.8644 67.6719 12.782C67.5858 12.4329 67.4903 12.0948 67.3854 11.7676C67.2805 11.4403 67.1692 11.1325 67.0515 10.844C66.9766 10.6655 66.9748 10.4839 67.0458 10.2992C67.1248 10.1155 67.2575 9.98669 67.4439 9.91285C67.6302 9.83902 67.8153 9.84159 67.9991 9.92057C68.1828 9.99955 68.3116 10.1322 68.3854 10.3186C68.5072 10.6399 68.6216 10.9884 68.7286 11.3642C68.8445 11.7331 68.9545 12.1174 69.0585 12.517C69.3968 12.4538 69.7305 12.394 70.0598 12.3377C70.3981 12.2745 70.719 12.2212 71.0225 12.1779C70.8289 12.1138 70.6827 11.9911 70.5841 11.8097L70.013 10.6515C69.9223 10.4711 69.9085 10.288 69.9716 10.1023C70.0357 9.90869 70.1574 9.77049 70.3369 9.68774C70.5093 9.59608 70.6879 9.58576 70.8726 9.65681C71.0663 9.72088 71.2089 9.83915 71.3006 10.0116L71.8717 11.1698C71.9564 11.3334 71.9761 11.501 71.9308 11.6728C71.8856 11.8446 71.7881 11.9817 71.6385 12.0842L71.9227 12.0345C72.7272 11.9157 73.4134 11.9395 73.9813 12.1059C74.5502 12.2644 74.979 12.5468 75.2677 12.953C75.5652 13.3522 75.6963 13.86 75.661 14.4763C75.6333 14.9645 75.5087 15.3885 75.2872 15.7482C75.0736 16.1089 74.789 16.3923 74.4332 16.5985C74.0863 16.7977 73.6931 16.9146 73.2536 16.9493C72.823 16.9771 72.3719 16.9096 71.9002 16.7469C71.4285 16.5842 70.97 16.3143 70.5246 15.9372C70.3715 15.8056 70.2829 15.6415 70.2586 15.4451C70.2344 15.2487 70.2841 15.0735 70.4078 14.9194C70.5394 14.7663 70.7035 14.6776 70.8999 14.6534C71.0963 14.6291 71.2711 14.6828 71.4242 14.8145C71.7522 15.0966 72.0747 15.2933 72.3914 15.4047C72.7092 15.5082 73 15.5359 73.2638 15.4877C73.5366 15.4325 73.7531 15.31 73.9135 15.1201C74.0818 14.9312 74.1725 14.6844 74.1857 14.3798C74.1969 14.0265 74.0489 13.7544 73.7419 13.5636C73.4349 13.3728 72.885 13.3214 72.0924 13.4094C71.7005 13.45 71.27 13.51 70.8008 13.5894C70.3396 13.6698 69.8655 13.7566 69.3785 13.85C69.5108 14.4788 69.6263 15.1136 69.725 15.7544C69.8236 16.3952 69.9018 17.0053 69.9597 17.5846C70.0175 18.164 70.0454 18.6913 70.0435 19.1666C70.0429 19.3681 69.9738 19.5369 69.8362 19.6732C69.6976 19.8173 69.5276 19.8892 69.3262 19.8886ZM6.63927 29.6336C6.39312 29.6034 6.21383 29.5209 6.10141 29.3862C5.98899 29.2515 5.93702 29.084 5.94552 28.8835C5.96195 28.684 6.04546 28.529 6.19604 28.4186C6.34663 28.3081 6.53358 28.2625 6.75688 28.2819C7.06851 28.304 7.31605 28.2901 7.49951 28.2401C7.68297 28.1901 7.82116 28.0821 7.91407 27.9162C8.00796 27.7423 8.07538 27.4887 8.11633 27.1552C8.13485 27.0043 8.14 26.8639 8.13178 26.7339L3.49857 26.165C3.30801 26.1416 3.16445 26.0636 3.06791 25.9308C2.97931 25.799 2.94525 25.6498 2.96572 25.483C2.98619 25.3163 3.05536 25.1797 3.17321 25.0732C3.29105 24.9668 3.42938 24.9233 3.58819 24.9428L7.73306 25.4518C7.71217 25.425 7.69127 25.3983 7.67037 25.3715C7.65742 25.3458 7.64098 25.3155 7.62106 25.2808C7.52549 25.1401 7.49986 24.9879 7.54415 24.8241C7.59639 24.6612 7.69237 24.536 7.83209 24.4484C7.98072 24.3538 8.14538 24.3256 8.32606 24.3639C8.50771 24.3943 8.64827 24.4639 8.74774 24.5729C8.76167 24.5907 8.77908 24.613 8.79998 24.6397C8.82185 24.6585 8.83975 24.6769 8.85368 24.6947C8.97264 24.6448 9.09161 24.5949 9.21057 24.5451C9.32954 24.4952 9.41876 24.4578 9.47825 24.4329C9.62396 24.3621 9.69026 24.2816 9.67717 24.1913C9.66407 24.101 9.57812 24.0461 9.41931 24.0266L5.97716 23.604C5.80247 23.5826 5.66686 23.5054 5.57032 23.3727C5.48172 23.2409 5.44717 23.0956 5.46666 22.9368C5.48616 22.778 5.55484 22.6454 5.67269 22.539C5.79848 22.4335 5.94872 22.3915 6.1234 22.4129L10.3755 22.935C10.7248 22.9779 10.994 23.0835 11.1829 23.2518C11.3797 23.421 11.4967 23.6168 11.5339 23.839C11.5711 24.0611 11.5195 24.2845 11.3791 24.5091C11.2467 24.7346 11.0258 24.9251 10.7165 25.0806C10.4935 25.1902 10.2794 25.2929 10.0742 25.3886C9.86902 25.4843 9.66034 25.5756 9.44818 25.6624L13.1643 26.1186C13.3787 26.145 13.5341 26.2245 13.6307 26.3573C13.7272 26.49 13.7652 26.6398 13.7448 26.8065C13.7243 26.9733 13.6512 27.1094 13.5254 27.2148C13.4075 27.3212 13.2533 27.3628 13.0627 27.3394L9.54914 26.9079C9.55248 27.0776 9.54489 27.2379 9.52637 27.3888C9.41133 28.3257 9.12396 28.9594 8.66426 29.2899C8.21153 29.6292 7.53653 29.7438 6.63927 29.6336ZM4.15485 23.3802C3.97222 23.3578 3.82072 23.2788 3.70036 23.1431C3.58097 22.9995 3.53347 22.8284 3.55784 22.6299L3.62511 22.082C3.70018 21.4706 3.89673 21.0514 4.21476 20.8245C4.53376 20.5896 5.04313 20.5111 5.74285 20.589C5.72293 20.5543 5.70252 20.5236 5.68163 20.4968C5.66965 20.4631 5.65767 20.4294 5.64568 20.3957C5.6227 20.3203 5.57979 20.2103 5.51696 20.0655C5.45511 19.9129 5.39276 19.7642 5.32993 19.6194C5.26808 19.4667 5.2212 19.3562 5.1893 19.2878C5.1195 19.1342 5.11818 18.9809 5.18532 18.8279C5.25343 18.667 5.3678 18.5561 5.52842 18.4952C5.69795 18.4274 5.86762 18.424 6.03744 18.4852C6.20725 18.5463 6.33402 18.6627 6.41774 18.8341C6.48949 18.9719 6.57969 19.1563 6.68836 19.3872C6.79702 19.6182 6.87831 19.8095 6.93222 19.9612C6.98808 20.0971 6.99979 20.2315 6.96733 20.3645C6.94282 20.4985 6.86864 20.6103 6.7448 20.6999L8.49565 20.9149C8.46779 20.8792 8.43993 20.8436 8.41207 20.8079C8.39312 20.7653 8.37863 20.7192 8.3686 20.6696C8.34562 20.5942 8.3002 20.4718 8.23235 20.3022C8.17343 20.1257 8.11401 19.9532 8.0541 19.7846C7.99517 19.6081 7.94976 19.4857 7.91786 19.4173C7.85698 19.2567 7.86011 19.0999 7.92725 18.9469C8.00233 18.795 8.12018 18.6885 8.2808 18.6276C8.45033 18.5598 8.61951 18.5604 8.78835 18.6295C8.95719 18.6986 9.08347 18.8189 9.1672 18.9904C9.21206 19.0845 9.26444 19.2159 9.32434 19.3845C9.39316 19.5461 9.45752 19.7111 9.51743 19.8797C9.58625 20.0413 9.63863 20.1726 9.67457 20.2738C9.72152 20.4166 9.72431 20.558 9.68294 20.698C9.64951 20.8389 9.56342 20.9493 9.42468 21.029L10.3656 21.1445C10.4814 20.9894 10.6219 20.7971 10.7871 20.5675C10.9602 20.3389 11.1289 20.1138 11.2931 19.8922C11.4584 19.6626 11.581 19.4842 11.6611 19.357C11.7808 19.1702 11.9423 19.0692 12.1457 19.0538C12.349 19.0385 12.5253 19.0803 12.6743 19.1792C12.8313 19.2791 12.9309 19.4203 12.9729 19.6027C13.023 19.7862 12.9851 19.9629 12.8595 20.1329C12.7526 20.281 12.6087 20.4688 12.4276 20.6964C12.2554 20.9171 12.0882 21.1303 11.9259 21.3361L12.1403 21.3624C12.8787 21.4531 13.3823 21.6519 13.6508 21.9589C13.9274 22.2669 14.0276 22.7306 13.9516 23.3499L13.8843 23.8978C13.8599 24.0963 13.7724 24.2508 13.6219 24.3613C13.4722 24.4638 13.3061 24.5039 13.1235 24.4815C12.9329 24.4581 12.777 24.3825 12.6556 24.2548C12.5343 24.127 12.4863 23.9599 12.5117 23.7535L12.5789 23.2056C12.6062 22.9833 12.5697 22.8216 12.4692 22.7206C12.3697 22.6117 12.1731 22.5392 11.8793 22.5031L5.84067 21.7616C5.54688 21.7256 5.33855 21.7483 5.21568 21.83C5.09379 21.9037 5.0192 22.0517 4.9919 22.274L4.92463 22.8219C4.89928 23.0283 4.81229 23.1789 4.66365 23.2735C4.51502 23.3681 4.34541 23.4036 4.15485 23.3802ZM18.1919 30.762C17.5328 30.681 16.9868 30.5656 16.5539 30.4157C16.1199 30.2738 15.7826 30.0672 15.5419 29.7958C15.3081 29.5334 15.1575 29.1844 15.0901 28.7489C15.0306 28.3144 15.0408 27.7716 15.1208 27.1205L15.637 22.9161C15.7179 22.2571 15.8398 21.7239 16.0026 21.3167C16.1734 20.9105 16.4044 20.6044 16.6957 20.3984C16.9949 20.1933 17.3722 20.0744 17.8276 20.0417C18.284 20.001 18.8417 20.0211 19.5007 20.102L22.8357 20.5115C23.4948 20.5924 24.0408 20.7078 24.4737 20.8577C24.9077 20.9996 25.241 21.2058 25.4738 21.4762C25.7145 21.7475 25.8646 22.1005 25.9241 22.535C25.9916 22.9704 25.9848 23.5177 25.9039 24.1767L25.3877 28.3812C25.3077 29.0323 25.1823 29.5609 25.0116 29.9671C24.8487 30.3743 24.6182 30.6765 24.3199 30.8736C24.0287 31.0796 23.6553 31.199 23.1999 31.2318C22.7436 31.2725 22.1859 31.2524 21.5268 31.1714L18.1919 30.762ZM18.3396 29.559L19.5783 29.7111C19.448 29.5903 19.3951 29.4307 19.4195 29.2322L19.6052 27.7195C19.2682 27.9038 18.8945 28.0917 18.4841 28.2831C18.0738 28.4745 17.7094 28.6192 17.3911 28.7171C17.2394 28.771 17.095 28.7654 16.9579 28.7002C16.8209 28.635 16.7274 28.5429 16.6775 28.424C16.6296 28.2891 16.6298 28.1562 16.6781 28.0251C16.7265 27.894 16.8255 27.8094 16.9753 27.7714C17.25 27.7003 17.5653 27.594 17.9212 27.4523C18.2851 27.3116 18.6211 27.1675 18.9294 27.0199C18.4966 26.9346 18.211 26.7987 18.0727 26.6125C17.9423 26.4272 17.9015 26.1361 17.9502 25.7391C17.9882 25.4294 18.0612 25.1965 18.169 25.0405C18.2857 24.8775 18.4591 24.7779 18.6893 24.7417C18.9273 24.7064 19.2528 24.7142 19.6657 24.7649L21.5595 24.9974C21.9883 25.05 22.3099 25.1218 22.5245 25.2126C22.7469 25.3044 22.8871 25.4425 22.9451 25.627C23.012 25.8044 23.0264 26.048 22.9884 26.3577C22.9513 26.6594 22.8784 26.8923 22.7696 27.0562C22.6697 27.2132 22.5008 27.3093 22.2627 27.3446C22.0326 27.3808 21.7031 27.3726 21.2743 27.32L21.0718 27.2951C21.1961 27.399 21.3318 27.5084 21.4789 27.6231C21.627 27.73 21.779 27.8373 21.9351 27.9451C22.0797 27.8178 22.2386 27.6721 22.4119 27.508C22.5931 27.3449 22.7159 27.231 22.7803 27.1663C22.8733 27.0649 22.9848 27.0101 23.1148 27.0019C23.2458 26.9857 23.3669 27.0167 23.4782 27.0949C23.5746 27.1631 23.6348 27.2632 23.6589 27.3951C23.683 27.527 23.6491 27.6397 23.557 27.7332C23.4738 27.8197 23.351 27.9336 23.1886 28.0749C23.0341 28.2171 22.8935 28.3449 22.7667 28.4583C22.8581 28.5018 22.9495 28.5452 23.0409 28.5887C23.1323 28.6322 23.2157 28.6746 23.2912 28.7162C23.4223 28.7645 23.5078 28.8556 23.5478 28.9895C23.5888 29.1154 23.5737 29.2385 23.5025 29.3587C23.4284 29.5027 23.3164 29.5938 23.1667 29.6318C23.0169 29.6698 22.8661 29.6513 22.7141 29.5762C22.4181 29.427 22.0877 29.2293 21.723 28.983C21.3593 28.7288 21.0278 28.4745 20.7285 28.2202L20.5867 29.3755C20.5633 29.566 20.4773 29.7086 20.3286 29.8032L21.6745 29.9685C22.1192 30.0231 22.4829 30.0476 22.7657 30.042C23.0495 30.0285 23.2751 29.9635 23.4425 29.847C23.61 29.7306 23.7376 29.5447 23.8253 29.2895C23.922 29.0273 23.9971 28.6779 24.0507 28.2412L24.5743 23.9772C24.6289 23.5325 24.6405 23.1753 24.6092 22.9055C24.5858 22.6366 24.5069 22.4254 24.3726 22.2719C24.2393 22.1105 24.0361 21.9928 23.7631 21.919C23.491 21.8372 23.1327 21.7691 22.688 21.7145L21.3897 21.555C21.5181 21.6917 21.5715 21.8474 21.55 22.0221L21.5222 22.2484L23.3326 22.4707C23.4756 22.4882 23.5809 22.5495 23.6486 22.6545C23.7163 22.7596 23.7423 22.8756 23.7268 23.0026C23.7112 23.1297 23.6578 23.236 23.5667 23.3215C23.4756 23.4071 23.3586 23.441 23.2157 23.4235L21.4052 23.2012L21.3541 23.6181L23.8434 23.9237C23.9863 23.9413 24.0916 24.0026 24.1593 24.1076C24.235 24.2136 24.265 24.3301 24.2494 24.4572C24.2338 24.5842 24.176 24.694 24.076 24.7865C23.9849 24.872 23.8678 24.906 23.7249 24.8885L17.5672 24.1324C17.4242 24.1149 17.3149 24.0531 17.2393 23.9471C17.1726 23.8341 17.147 23.7141 17.1626 23.587C17.1782 23.46 17.2316 23.3537 17.3227 23.2682C17.4217 23.1836 17.5427 23.1501 17.6856 23.1676L20.1868 23.4748L20.238 23.0579L18.4038 22.8327C18.2609 22.8151 18.1555 22.7538 18.0878 22.6488C18.0201 22.5438 17.9941 22.4277 18.0097 22.3007C18.0253 22.1736 18.0786 22.0673 18.1697 21.9818C18.2608 21.8963 18.3779 21.8623 18.5208 21.8798L20.355 22.105L20.3828 21.8787C20.4042 21.7041 20.4937 21.5659 20.6513 21.4644L19.353 21.305C18.9163 21.2514 18.5521 21.2308 18.2604 21.2434C17.9776 21.2489 17.752 21.3139 17.5836 21.4383C17.4162 21.5548 17.2846 21.7401 17.1889 21.9944C17.1011 22.2496 17.03 22.5995 16.9754 23.0442L16.4518 27.3082C16.3982 27.7449 16.3826 28.1016 16.405 28.3784C16.4364 28.6483 16.5192 28.8599 16.6535 29.0134C16.7878 29.167 16.991 29.2846 17.263 29.3664C17.544 29.4412 17.9029 29.5054 18.3396 29.559ZM19.5826 26.2297L21.2858 26.4388C21.4446 26.4583 21.5537 26.4556 21.6132 26.4306C21.6727 26.4057 21.7103 26.3297 21.7259 26.2027C21.7415 26.0756 21.7234 25.9928 21.6717 25.9542C21.621 25.9077 21.5163 25.8747 21.3575 25.8552L19.6542 25.646C19.5034 25.6275 19.3937 25.6342 19.3253 25.6661C19.2659 25.691 19.2283 25.767 19.2127 25.8941C19.1971 26.0211 19.2152 26.1039 19.2669 26.1425C19.3265 26.1821 19.4317 26.2111 19.5826 26.2297ZM27.7683 27.3073C27.5809 27.389 27.3969 27.4108 27.2162 27.3725C27.0435 27.3351 26.9078 27.2258 26.8092 27.0444C26.7175 26.872 26.7017 26.7048 26.7619 26.5429C26.831 26.3741 26.9632 26.2493 27.1585 26.1685C27.4123 26.0707 27.6631 25.9645 27.911 25.8498C28.1598 25.7272 28.4051 25.6002 28.6469 25.4686C28.5494 25.3438 28.4444 25.2141 28.332 25.0794C28.2205 24.9367 28.1474 24.8431 28.1126 24.7985C28.0648 24.7282 28.0344 24.6479 28.0213 24.5576C27.8815 24.6452 27.7248 24.6744 27.5511 24.645C27.3774 24.6156 27.2428 24.5305 27.1472 24.3898C27.0526 24.2412 27.023 24.0885 27.0584 23.9316C27.0947 23.7668 27.1828 23.6406 27.3225 23.553C27.594 23.3767 27.8823 23.1623 28.1873 22.9096C28.5013 22.6499 28.8009 22.3764 29.086 22.089C29.3791 21.8026 29.6261 21.5306 29.827 21.2732C29.9338 21.1251 30.0726 21.0454 30.2432 21.0341C30.4218 21.0238 30.5817 21.0676 30.7228 21.1656C30.856 21.2625 30.9366 21.3933 30.9648 21.558C30.9939 21.7147 30.956 21.8591 30.8511 21.9914L30.8229 22.0242L31.478 22.1046C31.9068 22.1572 32.2186 22.2761 32.4135 22.4613C32.6163 22.6474 32.7096 22.8724 32.6933 23.1364C32.6849 23.4013 32.566 23.6809 32.3364 23.9752C31.9267 24.4891 31.4351 24.9808 30.8616 25.4504L34.6015 25.9096C34.2214 25.3955 33.8897 24.847 33.6067 24.2641C33.3315 23.6822 33.1392 23.0823 33.0297 22.4644C32.9975 22.267 33.0269 22.0933 33.1179 21.9432C33.2168 21.7942 33.3605 21.707 33.5489 21.6818C33.7622 21.6516 33.9394 21.6854 34.0805 21.7834C34.2216 21.8813 34.3083 22.029 34.3405 22.2263C34.4218 22.6796 34.5538 23.115 34.7363 23.5323C34.9267 23.9506 35.1483 24.3446 35.4012 24.7142C35.5062 24.6465 35.6246 24.5683 35.7564 24.4797C35.8971 24.3841 36.02 24.3025 36.125 24.2348C36.3004 24.1193 36.3736 24.0155 36.3446 23.9232C36.3236 23.832 36.2098 23.7737 36.0034 23.7484L35.1339 23.6416C34.983 23.6231 34.8589 23.5514 34.7613 23.4266C34.6648 23.2938 34.6258 23.152 34.6443 23.0012C34.6638 22.8423 34.7355 22.7182 34.8593 22.6286C34.9841 22.5311 35.122 22.4916 35.2728 22.5101L36.6902 22.6841C37.0793 22.7319 37.3802 22.8414 37.5929 23.0126C37.8056 23.1838 37.9341 23.3849 37.9782 23.616C38.0303 23.8481 38.0016 24.0824 37.8919 24.3188C37.7903 24.5561 37.6116 24.7639 37.356 24.9421C37.1806 25.0576 36.9879 25.183 36.7778 25.3184C36.5757 25.4548 36.375 25.5793 36.1758 25.6919C36.4324 25.9652 36.6989 26.2236 36.9753 26.4671C37.2606 26.7036 37.5474 26.9282 37.8356 27.1409C38.0135 27.2676 38.1106 27.4286 38.1269 27.624C38.1432 27.8195 38.085 27.9977 37.9524 28.1588C37.8198 28.3198 37.6453 28.3951 37.429 28.3846C37.2136 28.3663 37.021 28.2942 36.851 28.1686C36.2447 27.7234 35.6735 27.1898 35.1373 26.5678L35.13 26.6274C35.1086 26.8021 35.0265 26.9451 34.8839 27.0566C34.7492 27.169 34.5905 27.214 34.4079 27.1916L30.5727 26.7207C30.4059 26.7002 30.2693 26.631 30.1629 26.5132C30.0574 26.3874 30.0021 26.2476 29.9968 26.0938C29.2844 26.5786 28.5415 26.9831 27.7683 27.3073ZM30.5812 32.658C30.3747 32.6326 30.2034 32.5511 30.0671 32.4135C29.9388 32.2768 29.8809 32.0924 29.8933 31.8602C29.9017 31.6597 29.9818 31.5003 30.1333 31.3819C30.2859 31.2555 30.4787 31.1946 30.7119 31.199C30.96 31.2134 31.1237 31.1932 31.203 31.1384C31.2822 31.0837 31.3336 30.961 31.357 30.7704L31.5661 29.0672L27.9572 28.6241C27.7825 28.6027 27.639 28.5246 27.5265 28.3899C27.423 28.2482 27.382 28.09 27.4034 27.9153C27.4259 27.7327 27.5039 27.5892 27.6377 27.4847C27.7803 27.3732 27.939 27.3282 28.1137 27.3497L36.5583 28.3865C36.733 28.408 36.876 28.49 36.9875 28.6327C37.0999 28.7674 37.1449 28.9261 37.1225 29.1087C37.101 29.2834 37.019 29.4264 36.8763 29.5379C36.7347 29.6414 36.5765 29.6824 36.4018 29.661L32.9954 29.2427L32.7614 31.1484C32.6873 31.7519 32.4823 32.174 32.1464 32.4149C31.8096 32.6637 31.2878 32.7447 30.5812 32.658ZM27.8969 31.6755C27.6857 31.7544 27.4828 31.7657 27.2882 31.7096C27.1015 31.6544 26.9638 31.5287 26.8751 31.3324C26.7943 31.1371 26.7919 30.9595 26.868 30.7996C26.945 30.6317 27.0767 30.5109 27.2631 30.437C27.4673 30.3493 27.7102 30.2421 27.9917 30.1154C28.2732 29.9888 28.5518 29.8537 28.8273 29.7102C29.1029 29.5668 29.3363 29.4382 29.5275 29.3247C29.6851 29.2232 29.8577 29.196 30.0453 29.2432C30.233 29.2904 30.3701 29.3879 30.4568 29.5355C30.5504 29.6921 30.578 29.8607 30.5397 30.0414C30.5024 30.2141 30.4094 30.3478 30.2608 30.4424C30.0497 30.5858 29.8015 30.7366 29.5161 30.895C29.2395 31.0464 28.96 31.1894 28.6775 31.324C28.3941 31.4665 28.1338 31.5837 27.8969 31.6755ZM35.7936 32.6451C35.5928 32.5076 35.3603 32.334 35.0959 32.1242C34.8384 31.9233 34.5909 31.7075 34.3532 31.4769C34.1156 31.2462 33.9156 31.0362 33.7535 30.8471C33.6411 30.7124 33.5876 30.5567 33.5932 30.3801C33.5988 30.2034 33.6689 30.0589 33.8036 29.9465C33.9383 29.834 34.0905 29.7762 34.2602 29.7728C34.4378 29.7704 34.5873 29.8331 34.7086 29.9609C34.8667 30.1173 35.0621 30.2985 35.2947 30.5044C35.5353 30.7112 35.7769 30.9101 36.0194 31.1011C36.2699 31.2931 36.4881 31.4528 36.6739 31.5804C36.8229 31.6793 36.9145 31.8196 36.9487 32.0011C36.9828 32.1826 36.9465 32.3474 36.8396 32.4955C36.713 32.6734 36.548 32.77 36.3446 32.7853C36.1482 32.8095 35.9645 32.7628 35.7936 32.6451ZM30.708 23.9445C30.7635 23.8868 30.8144 23.8326 30.861 23.7819C30.9154 23.7322 30.962 23.6815 31.0005 23.6298C31.151 23.4548 31.2073 23.3247 31.1694 23.2394C31.1325 23.1462 30.9989 23.0855 30.7686 23.0572L29.9706 22.9593C29.9429 22.9881 29.9151 23.0169 29.8874 23.0458C29.8607 23.0667 29.8339 23.0876 29.8072 23.1085C29.8856 23.1261 29.9532 23.1667 30.0099 23.2301C30.1043 23.3142 30.2192 23.4291 30.3544 23.5746C30.4977 23.7212 30.6155 23.8445 30.708 23.9445ZM29.4971 24.9444C29.5764 24.8896 29.6557 24.8349 29.7349 24.7801C29.8152 24.7174 29.8909 24.6582 29.9623 24.6025C29.8479 24.4837 29.7196 24.347 29.5774 24.1925C29.4351 24.038 29.3426 23.938 29.2998 23.8925C29.271 23.8648 29.2466 23.8335 29.2267 23.7989C29.2078 23.7562 29.1923 23.7181 29.1803 23.6844C29.1001 23.747 29.0194 23.8137 28.9381 23.8843C28.8658 23.948 28.7901 24.0072 28.7108 24.0619C28.7793 24.0945 28.838 24.142 28.8867 24.2045C28.9643 24.2946 29.0623 24.4154 29.1808 24.567C29.3001 24.7106 29.4056 24.8364 29.4971 24.9444ZM45.0558 33.2262C44.8514 33.2495 44.6683 33.1988 44.5062 33.0741C44.3442 32.9494 44.2511 32.7889 44.2269 32.5925C44.2026 32.396 44.2523 32.2208 44.376 32.0667C44.5007 31.9047 44.6613 31.8116 44.8577 31.7873C45.7673 31.6653 46.4603 31.3716 46.9366 30.9061C47.4208 30.4417 47.7116 29.8124 47.8091 29.0184C47.8705 28.5181 47.8145 28.0559 47.6409 27.6316C47.4673 27.2072 47.1892 26.8467 46.8065 26.5498C46.4318 26.2539 45.962 26.0431 45.3971 25.9173C45.0904 27.2338 44.7063 28.3593 44.245 29.2941C43.7925 30.2219 43.3034 30.9235 42.7775 31.3989C42.2606 31.8674 41.752 32.071 41.2517 32.0095C40.8309 31.9579 40.4609 31.7875 40.1417 31.4985C39.8226 31.2094 39.588 30.8219 39.4381 30.336C39.2962 29.8511 39.2647 29.2871 39.3437 28.6439C39.4246 27.9849 39.6232 27.3846 39.9396 26.8431C40.2648 26.2947 40.6845 25.8304 41.1987 25.4502C41.7129 25.07 42.2947 24.7949 42.9443 24.6248C43.6018 24.4556 44.3038 24.4169 45.0502 24.5085C45.9554 24.6197 46.7359 24.8928 47.3918 25.328C48.0565 25.7562 48.5534 26.3049 48.8823 26.9739C49.2122 27.6351 49.3269 28.3746 49.2265 29.1924C49.0851 30.3438 48.6575 31.2665 47.9435 31.9607C47.2385 32.6479 46.276 33.0697 45.0558 33.2262ZM41.4435 30.546C41.5864 30.5636 41.7638 30.4644 41.9757 30.2486C42.1965 30.0259 42.4295 29.7039 42.6746 29.2826C42.9198 28.8614 43.1589 28.3587 43.3918 27.7748C43.6256 27.1829 43.8276 26.5226 43.9977 25.7939C43.3637 25.8369 42.8153 26.0033 42.3526 26.2931C41.8908 26.5749 41.5239 26.9369 41.252 27.3791C40.9811 27.8133 40.8105 28.284 40.7401 28.7912C40.6738 29.3311 40.707 29.7503 40.8396 30.0487C40.9802 30.3481 41.1815 30.5138 41.4435 30.546ZM52.4188 35.1942C52.2283 35.1708 52.0733 35.0873 51.9539 34.9437C51.8415 34.809 51.7979 34.6384 51.8233 34.4319L53.0181 24.701C53.0435 24.4946 53.127 24.3396 53.2686 24.2361C53.4192 24.1256 53.5898 24.0821 53.7804 24.1055C53.9709 24.1289 54.1219 24.2119 54.2334 24.3545C54.3458 24.4893 54.3893 24.6598 54.364 24.8663L54.2119 26.105C54.2198 26.106 54.2327 26.0995 54.2506 26.0855C54.3883 26.0138 54.5322 25.9912 54.6821 26.0176C54.8319 26.0441 54.9398 26.1178 55.0055 26.2387C55.0463 26.3001 55.0991 26.3953 55.1639 26.5241C55.2376 26.646 55.3108 26.7719 55.3835 26.9017C55.4572 27.0236 55.5095 27.1227 55.5405 27.199C55.57 27.0898 55.6254 26.9999 55.7066 26.9293C55.7888 26.8507 55.8934 26.8192 56.0204 26.8348L57.6522 27.0352L57.7063 26.5945L55.4552 26.3181C55.3123 26.3005 55.203 26.2388 55.1273 26.1327C55.0596 26.0277 55.0336 25.9117 55.0492 25.7846C55.0648 25.6576 55.1181 25.5513 55.2092 25.4658C55.3093 25.3733 55.4307 25.3358 55.5737 25.3533L57.8248 25.6297L57.8759 25.2129C57.9013 25.0064 57.9888 24.8519 58.1384 24.7494C58.288 24.6469 58.4581 24.6073 58.6486 24.6307C58.8392 24.6541 58.9907 24.7331 59.1031 24.8678C59.2235 25.0035 59.271 25.1746 59.2457 25.381L59.1945 25.7979L61.6242 26.0962C61.7671 26.1138 61.872 26.1791 61.9387 26.292C62.0064 26.3971 62.0325 26.5131 62.0169 26.6402C62.0013 26.7672 61.9479 26.8735 61.8568 26.959C61.7657 27.0446 61.6487 27.0786 61.5058 27.061L59.076 26.7627L59.0219 27.2034L60.7489 27.4154C60.8839 27.432 60.9813 27.4923 61.0411 27.5964C61.1008 27.7004 61.1234 27.812 61.1088 27.9311C61.0941 28.0502 61.0452 28.153 60.9621 28.2395C60.8789 28.326 60.7698 28.361 60.6349 28.3444L58.9078 28.1324L58.8493 28.6088L61.6126 28.9481C61.7634 28.9666 61.8727 29.0284 61.9404 29.1334C62.0081 29.2385 62.0337 29.3585 62.0171 29.4935C62.0015 29.6205 61.9482 29.7268 61.8571 29.8123C61.766 29.8979 61.645 29.9314 61.4941 29.9128L54.7647 29.0866C54.6138 29.068 54.5045 29.0063 54.4368 28.9012C54.3691 28.7962 54.343 28.6802 54.3586 28.5531C54.3752 28.4181 54.4291 28.3079 54.5202 28.2223C54.6113 28.1368 54.7323 28.1033 54.8831 28.1218L57.4796 28.4406L57.5381 27.9642L55.9064 27.7638C55.8428 27.756 55.7848 27.7368 55.7321 27.7062C55.6884 27.6686 55.6486 27.6314 55.6128 27.5948C55.5884 27.7933 55.49 27.9384 55.3175 28.0301C55.1798 28.1018 55.0329 28.116 54.8771 28.0727C54.7212 28.0294 54.6074 27.9388 54.5356 27.8011C54.4908 27.7069 54.426 27.578 54.3413 27.4145C54.2576 27.243 54.1798 27.0884 54.1081 26.9506L53.1692 34.5972C53.1438 34.8037 53.0603 34.9586 52.9187 35.0621C52.776 35.1736 52.6094 35.2176 52.4188 35.1942ZM55.291 35.6315C55.1004 35.6081 54.9454 35.5246 54.826 35.381C54.7066 35.2373 54.6596 35.0623 54.685 34.8559L55.1295 31.2351C55.1802 30.8222 55.2718 30.5029 55.4043 30.2774C55.5457 30.0449 55.7537 29.8931 56.0284 29.8221C56.3121 29.744 56.6921 29.7343 57.1685 29.7928L59.0027 30.018C59.4792 30.0765 59.8416 30.1774 60.0899 30.3208C60.3393 30.4562 60.5005 30.6533 60.5735 30.9121C60.6554 31.164 60.671 31.4963 60.6203 31.9092L60.2986 34.5296C60.2255 35.1251 60.0229 35.5274 59.691 35.7365C59.358 35.9535 58.9017 36.0265 58.3221 35.9553C58.1236 35.9309 57.9676 35.8554 57.8542 35.7286C57.7399 35.6098 57.6855 35.462 57.691 35.2854C57.6976 35.1008 57.7568 34.9469 57.8686 34.8236C57.9805 34.7003 58.1332 34.6385 58.3267 34.638C58.5529 34.6336 58.7042 34.6159 58.7805 34.585C58.8658 34.5471 58.9201 34.4328 58.9435 34.2423L58.98 33.9445L56.2287 33.6067L56.0547 35.024C56.0293 35.2305 55.9414 35.3889 55.7908 35.4994C55.6402 35.6099 55.4736 35.6539 55.291 35.6315ZM50.9554 29.5861C50.7925 29.5338 50.6837 29.4358 50.6288 29.2921C50.5749 29.1404 50.5735 28.9871 50.6248 28.8321C50.6958 28.6474 50.7723 28.419 50.854 28.147C50.9368 27.867 51.0155 27.5865 51.0903 27.3055C51.1651 27.0245 51.2227 26.7858 51.2629 26.5892C51.3041 26.3847 51.3981 26.2431 51.5448 26.1644C51.6994 26.0866 51.8701 26.0754 52.0567 26.1305C52.2126 26.1738 52.3304 26.2649 52.4101 26.4036C52.4907 26.5344 52.5119 26.6902 52.4736 26.8708C52.4215 27.0982 52.3566 27.3643 52.2789 27.6691C52.2021 27.9659 52.1224 28.2544 52.0396 28.5344C51.9569 28.8144 51.8795 29.0507 51.8075 29.2433C51.7464 29.4132 51.6355 29.5285 51.4749 29.5894C51.3222 29.6512 51.149 29.6501 50.9554 29.5861ZM56.3413 32.6896L59.0927 33.0274L59.157 32.5033L56.4057 32.1655L56.3413 32.6896ZM56.5183 31.2484L59.2696 31.5862C59.2899 31.355 59.2559 31.2057 59.1674 31.1384C59.0879 31.0642 58.9012 31.009 58.6074 30.9729L57.3092 30.8135C57.0154 30.7775 56.8169 30.7853 56.7138 30.8372C56.6197 30.882 56.5545 31.0191 56.5183 31.2484ZM68.4609 37.176C68.2862 37.1546 68.1392 37.072 68.0198 36.9284C67.9074 36.7937 67.8633 36.6271 67.8877 36.4286L68.8807 28.3413C68.945 27.8173 69.0543 27.4196 69.2085 27.1484C69.3716 26.8702 69.6233 26.6915 69.9635 26.6124C70.3037 26.5333 70.7834 26.5317 71.4028 26.6078C72.0221 26.6838 72.4882 26.7934 72.8011 26.9366C73.1219 27.0808 73.3258 27.2912 73.4127 27.5679C73.5076 27.8455 73.5263 28.2186 73.4688 28.687C73.4044 29.2111 73.2907 29.6122 73.1276 29.8904C72.9645 30.1686 72.7327 30.3497 72.4322 30.4337C72.1406 30.5108 71.7601 30.5245 71.2906 30.4749C71.0842 30.4496 70.9287 30.37 70.8242 30.2363C70.7207 30.0946 70.6732 29.9236 70.6817 29.7231C70.6962 29.5395 70.7703 29.3955 70.904 29.291C71.0467 29.1795 71.2178 29.132 71.4172 29.1485C71.6812 29.1648 71.8573 29.1421 71.9455 29.0803C72.0346 29.0107 72.0919 28.8726 72.1172 28.6662C72.1543 28.3644 72.1186 28.1626 72.0102 28.0606C71.9019 27.9587 71.6492 27.8833 71.2521 27.8346C70.8631 27.7868 70.5987 27.8067 70.4589 27.8943C70.3281 27.975 70.2427 28.1781 70.2028 28.5037L69.941 30.6356L71.7752 30.8609C72.4105 30.9389 72.8291 31.1394 73.0313 31.4624C73.2344 31.7775 73.2403 32.2216 73.0491 32.7945C72.7681 33.6386 72.4055 34.3598 71.9613 34.9581C72.1116 35.178 72.2703 35.395 72.4375 35.609C72.6057 35.815 72.7907 36.015 72.9925 36.2091C73.1228 36.3298 73.1802 36.486 73.1647 36.6776C73.1582 36.8621 73.091 37.0151 72.9633 37.1364C72.8177 37.2717 72.6492 37.3316 72.4576 37.3161C72.2651 37.3086 72.1007 37.236 71.9645 37.0984C71.7924 36.9242 71.6293 36.7429 71.4751 36.5547C71.3278 36.3754 71.1895 36.1892 71.0601 35.996C70.9155 36.1233 70.7669 36.2501 70.6144 36.3765C70.4708 36.4959 70.3192 36.6143 70.1597 36.7317C70.0091 36.8422 69.8415 36.8942 69.657 36.8876C69.4714 36.889 69.3189 36.8179 69.1995 36.6743C69.1543 36.8461 69.0618 36.9758 68.9221 37.0634C68.7893 37.1599 68.6356 37.1975 68.4609 37.176ZM64.8253 36.7538C64.6506 36.7323 64.507 36.6543 64.3946 36.5196C64.2822 36.3849 64.2381 36.2183 64.2625 36.0197L64.4512 34.4833L63.01 34.3063C62.8512 34.2868 62.7191 34.2142 62.6136 34.0884C62.5171 33.9556 62.4785 33.8099 62.498 33.6511C62.5175 33.4922 62.5897 33.3641 62.7145 33.2666C62.8482 33.1621 62.9945 33.1196 63.1533 33.1391L64.5945 33.316L64.6939 32.5061L63.0979 32.3102C62.9391 32.2907 62.807 32.218 62.7015 32.0922C62.605 31.9595 62.5665 31.8137 62.586 31.6549C62.6055 31.4961 62.6776 31.3679 62.8024 31.2704C62.9362 31.1659 63.0824 31.1234 63.2412 31.1429L63.8725 31.2204C63.8354 31.0627 63.7979 30.909 63.7599 30.7593C63.7218 30.6095 63.6973 30.5138 63.6863 30.4722C63.6413 30.3135 63.6633 30.1671 63.7523 30.0329C63.8413 29.8988 63.9647 29.8132 64.1224 29.7761L63.2291 29.6664C63.0703 29.6469 62.9381 29.5743 62.8327 29.4485C62.7361 29.3158 62.6976 29.17 62.7171 29.0112C62.7366 28.8524 62.8088 28.7242 62.9336 28.6267C63.0673 28.5222 63.2136 28.4797 63.3724 28.4992L65.159 28.7186L65.2511 27.9682L63.9767 27.8117C63.8179 27.7922 63.6897 27.7201 63.5922 27.5953C63.4957 27.4625 63.4567 27.3207 63.4752 27.1698C63.4947 27.011 63.5668 26.8829 63.6917 26.7853C63.8165 26.6878 63.9583 26.6488 64.1171 26.6683L65.3915 26.8248L65.469 26.1935C65.4934 25.995 65.5764 25.844 65.7181 25.7405C65.8598 25.637 66.0179 25.596 66.1926 25.6174C66.3753 25.6399 66.5228 25.7184 66.6352 25.8531C66.7476 25.9878 66.7916 26.1544 66.7673 26.3529L66.6898 26.9842L67.9166 27.1348C68.0754 27.1543 68.2035 27.2265 68.301 27.3513C68.3986 27.4761 68.4376 27.6179 68.4181 27.7767C68.3995 27.9276 68.3274 28.0558 68.2016 28.1612C68.0768 28.2587 67.935 28.2977 67.7762 28.2782L66.5494 28.1276L66.4572 28.878L68.1128 29.0813C68.2716 29.1008 68.3993 29.1769 68.4958 29.3096C68.6013 29.4354 68.6443 29.5777 68.6248 29.7365C68.6053 29.8953 68.5286 30.027 68.3949 30.1315C68.2701 30.229 68.1283 30.268 67.9695 30.2485L67.1834 30.152C67.3195 30.2251 67.4105 30.337 67.4565 30.4878C67.5114 30.6315 67.4983 30.771 67.4172 30.9061C67.3945 30.9597 67.3421 31.0581 67.2601 31.2011C67.187 31.3372 67.1099 31.4729 67.0288 31.608L67.5886 31.6767C67.7474 31.6962 67.8751 31.7723 67.9716 31.9051C68.0771 32.0309 68.12 32.1732 68.1005 32.332C68.081 32.4908 68.0044 32.6224 67.8707 32.7269C67.7459 32.8244 67.6041 32.8635 67.4453 32.844L65.9922 32.6655L65.8927 33.4755L67.2029 33.6363C67.3617 33.6558 67.4894 33.7319 67.5859 33.8647C67.6914 33.9905 67.7344 34.1328 67.7149 34.2916C67.6954 34.4504 67.6187 34.582 67.485 34.6865C67.3602 34.784 67.2184 34.8231 67.0596 34.8036L65.7494 34.6427L65.5608 36.1791C65.5364 36.3777 65.4534 36.5287 65.3117 36.6322C65.17 36.7357 65.0079 36.7762 64.8253 36.7538ZM65.1231 31.374L65.802 31.4574C65.8544 31.359 65.9137 31.2373 65.9798 31.0923C66.0539 30.9483 66.1191 30.8112 66.1754 30.6811C66.2396 30.5519 66.2821 30.4685 66.3029 30.4307C66.3384 30.3384 66.3918 30.2643 66.4631 30.2086C66.5344 30.1529 66.6118 30.114 66.6951 30.092L64.5512 29.8288C64.7022 29.9118 64.8036 30.0371 64.8556 30.2047C64.8786 30.28 64.9047 30.3961 64.9338 30.5528C64.9708 30.7105 65.0079 30.8682 65.0449 31.0259C65.083 31.1756 65.109 31.2917 65.1231 31.374ZM69.3165 35.7215C69.7326 35.4179 70.1016 35.1045 70.4234 34.7813C70.1181 34.0507 69.9159 33.236 69.8167 32.3372C69.7925 32.1408 69.8363 31.9809 69.9481 31.8576L69.7933 31.8386L69.3165 35.7215ZM71.3154 33.6214C71.3984 33.4704 71.4779 33.3149 71.554 33.155C71.638 32.996 71.7066 32.8312 71.7598 32.6604C71.8437 32.4369 71.8582 32.2856 71.8035 32.2063C71.7576 32.1201 71.6116 32.0619 71.3655 32.0317L70.9367 31.979C70.9775 32.0404 71.0035 32.1242 71.0147 32.2304C71.0762 32.7135 71.1765 33.1772 71.3154 33.6214ZM82.0632 38.3505C80.9806 38.3707 80.0765 38.3161 79.3509 38.1867C78.6243 38.0652 78.0499 37.8859 77.6276 37.6487C77.2133 37.4124 76.9254 37.1313 76.764 36.8051C76.6035 36.4711 76.5471 36.1095 76.5949 35.7205C76.668 35.1249 76.9745 34.5983 77.5143 34.1407C78.062 33.6841 78.8163 33.3173 79.7773 33.0403C79.6697 32.8659 79.528 32.7397 79.3522 32.6617C78.9698 32.4938 78.5714 32.4892 78.157 32.6479C77.7505 32.8076 77.3403 33.0635 76.9263 33.4157C76.7737 33.542 76.5853 33.5995 76.361 33.5881C76.1457 33.5697 75.9793 33.4807 75.8618 33.3212C75.7533 33.1548 75.7152 32.9728 75.7475 32.7752C75.7878 32.5787 75.8911 32.4261 76.0576 32.3176C76.4876 32.0319 76.8734 31.7125 77.215 31.3595C77.5645 31.0075 77.8678 30.6377 78.125 30.2501C77.7826 30.2162 77.46 30.1846 77.1573 30.1555C76.8635 30.1194 76.6099 30.0843 76.3965 30.05C76.198 30.0256 76.0395 29.9377 75.9211 29.7861C75.8037 29.6266 75.7571 29.4476 75.7815 29.2491C75.8138 29.0516 75.9092 28.898 76.0678 28.7885C76.2263 28.679 76.4043 28.6405 76.6019 28.6728C76.8788 28.7148 77.2118 28.7597 77.6009 28.8075C77.9989 28.8483 78.4128 28.8911 78.8425 28.9358C78.9007 28.7898 78.9545 28.6473 79.0038 28.5083C79.0531 28.3692 79.0985 28.2297 79.1398 28.0897C79.196 27.8951 79.3028 27.747 79.4604 27.6455C79.6189 27.536 79.7959 27.5053 79.9915 27.5535C80.1871 27.6017 80.3352 27.7086 80.4358 27.8741C80.5364 28.0395 80.5626 28.2201 80.5144 28.4157C80.4937 28.5179 80.4647 28.6232 80.4272 28.7314C80.3898 28.8396 80.3483 28.9474 80.3029 29.0547C80.6066 29.0758 80.8904 29.0946 81.1544 29.1108C81.4194 29.1192 81.657 29.1202 81.8674 29.1138C82.0688 29.1143 82.2376 29.1834 82.3739 29.321C82.519 29.4517 82.5913 29.6177 82.5908 29.8192C82.5902 30.0206 82.5172 30.189 82.3716 30.3242C82.234 30.4605 82.0689 30.5248 81.8764 30.5173C81.5787 30.513 81.2378 30.4994 80.8537 30.4764C80.4697 30.4534 80.0702 30.4245 79.6554 30.3897C79.4329 30.7573 79.1975 31.0992 78.9491 31.4153C79.1446 31.399 79.3287 31.4095 79.5014 31.4468C79.6751 31.4762 79.8385 31.5245 79.9914 31.5916C80.2218 31.6844 80.4384 31.8238 80.6413 32.0099C80.853 32.1891 81.0292 32.4283 81.1697 32.7277C81.5725 32.6643 81.998 32.6118 82.4465 32.5701C82.9028 32.5294 83.3815 32.5036 83.8826 32.4925C84.0771 32.4842 84.2464 32.5493 84.3906 32.6879C84.5358 32.8186 84.6081 32.9846 84.6075 33.1861C84.6149 33.3885 84.5498 33.5578 84.4121 33.694C84.2745 33.8303 84.1045 33.9021 83.9021 33.9095C83.4347 33.9085 83.0016 33.9238 82.6028 33.9555C82.2049 33.9792 81.8339 34.0142 81.4897 34.0606C81.5031 34.2799 81.5061 34.518 81.4987 34.775C81.4913 35.032 81.4696 35.3074 81.4335 35.6012C81.4091 35.7998 81.3167 35.9617 81.1562 36.0871C81.0047 36.2055 80.8296 36.2525 80.6311 36.2281C80.4326 36.2038 80.2742 36.1158 80.1557 35.9642C80.0383 35.8047 79.9918 35.6257 80.0162 35.4272C80.0659 35.0223 80.0864 34.658 80.0778 34.3346C79.3935 34.5246 78.8855 34.7564 78.5537 35.03C78.2308 35.2967 78.0518 35.5729 78.0167 35.8588C77.9903 36.0731 78.0959 36.2634 78.3334 36.4296C78.571 36.5958 78.9865 36.7234 79.5801 36.8124C80.1737 36.9014 80.9949 36.9418 82.0437 36.9335C82.2372 36.9331 82.406 37.0022 82.5502 37.1408C82.6954 37.2715 82.7677 37.4375 82.7671 37.639C82.7675 37.8325 82.6989 37.9973 82.5613 38.1336C82.4237 38.2698 82.2576 38.3421 82.0632 38.3505ZM1.62223 45.976C1.39405 45.9964 1.20147 45.9566 1.04447 45.8567C0.894435 45.7658 0.803326 45.6216 0.771143 45.4242C0.738959 45.2268 0.788199 45.0555 0.918864 44.9104C1.04953 44.7652 1.21606 44.6889 1.41847 44.6815C2.238 44.6371 2.87023 44.4769 3.31516 44.2011C3.76901 43.9183 4.09107 43.4944 4.28135 42.9294L2.13745 42.6661C1.96276 42.6447 1.81921 42.5666 1.70678 42.4319C1.60328 42.2902 1.56225 42.1321 1.5837 41.9574C1.60612 41.7747 1.6842 41.6312 1.81793 41.5267C1.96057 41.4153 2.11924 41.3703 2.29393 41.3917L4.5212 41.6652L4.65867 40.5456L4.25371 40.4959C4.10285 40.4774 3.97322 40.4171 3.86484 40.3151C3.76537 40.2062 3.70408 40.0818 3.68095 39.9419C3.39357 40.1162 3.09525 40.2811 2.786 40.4366C2.48566 40.5851 2.18379 40.7132 1.88039 40.8211C1.69498 40.887 1.5134 40.8888 1.33564 40.8267C1.15886 40.7567 1.03753 40.6289 0.971631 40.4435C0.911726 40.2749 0.923772 40.1112 1.00777 39.9522C1.09971 39.7943 1.23789 39.6863 1.42233 39.6284C1.9776 39.4386 2.53717 39.1809 3.10107 38.8552C2.97472 38.7026 2.81856 38.5303 2.63258 38.3382C2.45552 38.1392 2.31677 37.9891 2.21633 37.8881C2.10098 37.7773 2.04958 37.638 2.06211 37.4702C2.08258 37.3035 2.15572 37.1674 2.2815 37.0619C2.40729 36.9565 2.55057 36.9056 2.71132 36.9092C2.88002 36.9138 3.02107 36.9794 3.13447 37.1062C3.20607 37.1795 3.30254 37.28 3.42388 37.4077C3.54521 37.5355 3.66955 37.6716 3.79687 37.8162C3.93312 37.9539 4.04352 38.0722 4.12808 38.1712C4.44903 37.9205 4.71196 37.6828 4.91687 37.4581C5.16831 37.1826 5.10743 37.022 4.73423 36.9762L2.81664 36.7407C2.66577 36.7222 2.54158 36.6506 2.44406 36.5257C2.34752 36.393 2.30851 36.2512 2.32704 36.1003C2.34653 35.9415 2.41869 35.8133 2.54351 35.7158C2.66832 35.6183 2.80616 35.5788 2.95703 35.5973L5.24386 35.8781C5.71234 35.9356 6.05844 36.0708 6.28217 36.2837C6.50687 36.4886 6.60961 36.735 6.5904 37.0228C6.57118 37.3106 6.42596 37.6071 6.15474 37.9123C5.7608 38.3636 5.28397 38.8008 4.72425 39.2237L8.92868 39.74C8.14869 38.806 7.54806 37.7569 7.12678 36.5929C7.07384 36.4333 7.08442 36.2814 7.15853 36.1374C7.23264 35.9934 7.34603 35.8904 7.4987 35.8286C7.65835 35.7756 7.82307 35.7797 7.99289 35.8409C8.16367 35.8941 8.27951 36.001 8.34039 36.1616C8.4152 36.3401 8.49398 36.519 8.57673 36.6984C8.66046 36.8699 8.74418 37.0414 8.82791 37.2129C8.95871 37.1322 9.09892 37.0406 9.24853 36.9381C9.39814 36.8355 9.53884 36.74 9.67062 36.6514C9.80337 36.5548 9.90095 36.4822 9.96336 36.4334C10.1041 36.3379 10.2538 36.2998 10.4126 36.3193C10.5803 36.3319 10.7204 36.4055 10.8328 36.5402C10.9383 36.666 10.9808 36.8122 10.9603 36.979C10.9478 37.1467 10.8712 37.2784 10.7305 37.3739C10.6512 37.4287 10.5323 37.5108 10.3738 37.6203C10.2242 37.7228 10.0617 37.8318 9.88629 37.9473C9.71982 38.0558 9.57119 38.1504 9.44038 38.2311C9.517 38.3292 9.58965 38.4267 9.65833 38.5238C9.73495 38.6219 9.8076 38.7195 9.87628 38.8166C9.99914 38.7349 10.1438 38.6399 10.3103 38.5313C10.4857 38.4159 10.6526 38.3034 10.8111 38.1939C10.9697 38.0844 11.0846 38.0018 11.1559 37.946C11.2887 37.8495 11.4384 37.8115 11.6052 37.8319C11.7729 37.8445 11.909 37.9176 12.0135 38.0513C12.1189 38.1771 12.1614 38.3234 12.1409 38.4901C12.1284 38.6579 12.0558 38.79 11.923 38.8865C11.8517 38.9423 11.7417 39.0174 11.5931 39.112C11.4524 39.2076 11.3033 39.3061 11.1457 39.4077C10.9882 39.5092 10.8435 39.6043 10.7117 39.6929C11.0587 40.0176 11.4588 40.3368 11.912 40.6503C12.0769 40.7512 12.168 40.8954 12.1853 41.0829C12.2105 41.2713 12.1697 41.4396 12.0629 41.5877C11.9382 41.7497 11.7742 41.8384 11.5708 41.8537C11.3674 41.869 11.1807 41.8139 11.0108 41.6882C10.5218 41.338 10.0764 40.961 9.67467 40.557C9.63832 40.7218 9.54931 40.8559 9.40764 40.9594C9.27488 41.056 9.12116 41.0935 8.94647 41.0721L8.4105 41.0063L8.27303 42.1259L10.4884 42.3979C10.671 42.4203 10.8141 42.5023 10.9176 42.644C11.03 42.7787 11.075 42.9374 11.0526 43.12C11.0311 43.2947 10.9491 43.4378 10.8064 43.5492C10.6727 43.6537 10.5145 43.6947 10.3319 43.6723L8.11655 43.4003L7.96153 44.6628C7.92741 44.9407 7.97199 45.1356 8.09527 45.2475C8.2265 45.3603 8.50254 45.4425 8.92337 45.4942C9.28069 45.5381 9.53318 45.5167 9.68084 45.4301C9.83742 45.3364 9.97247 45.1555 10.086 44.8874C10.1749 44.6887 10.3076 44.5599 10.484 44.501C10.6615 44.4341 10.8456 44.4447 11.0363 44.5326C11.2429 44.6224 11.3727 44.7471 11.4256 44.9068C11.4865 45.0674 11.4854 45.2406 11.4223 45.4263C11.2192 46.03 10.8916 46.4331 10.4396 46.6355C9.98755 46.8379 9.42407 46.8977 8.74913 46.8148C8.17743 46.7446 7.72322 46.6365 7.38652 46.4904C7.04982 46.3442 6.81516 46.122 6.68253 45.8236C6.55785 45.5262 6.52719 45.1194 6.59056 44.6033L6.75874 43.2336L5.62724 43.0946C5.38905 43.9842 4.95095 44.6639 4.31295 45.1337C3.67495 45.6034 2.77804 45.8842 1.62223 45.976ZM5.84327 41.8275L6.91522 41.9591L7.05269 40.8395L5.98074 40.7079L5.84327 41.8275ZM18.6882 47.8901C18.1562 47.8248 17.7422 47.7175 17.4461 47.5683C17.1491 47.4271 16.9532 47.2177 16.8583 46.94C16.7634 46.6624 16.7433 46.3012 16.7979 45.8566C16.8535 45.404 16.9604 45.0584 17.1186 44.8199C17.2779 44.5735 17.5186 44.4177 17.841 44.3525C18.1643 44.2794 18.592 44.2754 19.124 44.3408L20.72 44.5367C21.2599 44.603 21.674 44.7103 21.962 44.8585C22.259 44.9997 22.455 45.2092 22.5498 45.4868C22.6457 45.7565 22.6658 46.1177 22.6103 46.5703C22.5557 47.0149 22.4488 47.3605 22.2895 47.6069C22.1303 47.8533 21.8895 48.0091 21.5672 48.0743C21.2518 48.1485 20.8241 48.1524 20.2842 48.0861L18.6882 47.8901ZM14.5128 47.7281C14.3222 47.7047 14.1673 47.6211 14.0479 47.4775C13.9285 47.3339 13.8815 47.1589 13.9068 46.9524L14.5971 41.3306C14.3833 41.5623 14.159 41.7806 13.9243 41.9855C13.7797 42.1128 13.6116 42.1688 13.42 42.1533C13.2364 42.1388 13.076 42.0668 12.9388 41.9371C12.8026 41.7994 12.7412 41.6428 12.7547 41.4671C12.7771 41.2845 12.8522 41.1325 12.98 41.0112C13.2533 40.7546 13.5354 40.4588 13.8264 40.1237C14.1254 39.7897 14.4139 39.4422 14.6919 39.0814C14.9709 38.7127 15.2242 38.3569 15.4516 38.0141C15.688 37.6643 15.8798 37.3493 16.0271 37.0691C16.1299 36.8883 16.2735 36.7689 16.4579 36.711C16.6424 36.653 16.8255 36.6715 17.0073 36.7663C17.1742 36.8513 17.2831 36.9816 17.3341 37.1571C17.394 37.3256 17.3726 37.5003 17.2698 37.6812C17.1334 37.9384 16.9757 38.2052 16.7967 38.4815C16.6256 38.7587 16.4422 39.0384 16.2463 39.3206L15.2884 47.1221C15.2631 47.3285 15.1751 47.487 15.0245 47.5974C14.8739 47.7079 14.7034 47.7515 14.5128 47.7281ZM17.1024 40.127C16.9436 40.1075 16.8115 40.0348 16.706 39.9091C16.6095 39.7763 16.571 39.6305 16.5905 39.4717C16.61 39.3129 16.6821 39.1847 16.807 39.0872C16.9407 38.9827 17.087 38.9403 17.2458 38.9598L23.8085 39.7656C23.9673 39.7851 24.095 39.8612 24.1915 39.9939C24.297 40.1197 24.3399 40.262 24.3204 40.4208C24.3009 40.5796 24.2243 40.7113 24.0906 40.8158C23.9658 40.9133 23.824 40.9523 23.6652 40.9328L17.1024 40.127ZM17.6786 43.6071C17.5277 43.5886 17.4036 43.517 17.306 43.3921C17.2085 43.2673 17.1695 43.1255 17.189 42.9667C17.2085 42.8079 17.2807 42.6797 17.4055 42.5822C17.5303 42.4847 17.6681 42.4452 17.819 42.4637L22.3807 43.0238C22.5396 43.0433 22.6637 43.115 22.7533 43.2389C22.8508 43.3637 22.8898 43.5055 22.8703 43.6643C22.8508 43.8231 22.7787 43.9513 22.6539 44.0488C22.537 44.1473 22.3992 44.1868 22.2404 44.1673L17.6786 43.6071ZM17.8848 41.9278C17.7339 41.9092 17.6098 41.8376 17.5122 41.7128C17.4147 41.5879 17.3757 41.4461 17.3952 41.2873C17.4147 41.1285 17.4869 41.0004 17.6117 40.9028C17.7365 40.8053 17.8743 40.7658 18.0252 40.7843L22.587 41.3445C22.7458 41.364 22.8699 41.4356 22.9595 41.5595C23.057 41.6843 23.096 41.8261 23.0765 41.9849C23.0571 42.1437 22.9849 42.2719 22.8601 42.3694C22.7432 42.4679 22.6054 42.5074 22.4466 42.4879L17.8848 41.9278ZM18.3001 38.5452C18.1493 38.5266 18.0251 38.455 17.9276 38.3302C17.831 38.1974 17.792 38.0556 17.8105 37.9047C17.83 37.7459 17.9022 37.6178 18.027 37.5202C18.1518 37.4227 18.2897 37.3832 18.4405 37.4018L23.0023 37.9619C23.1611 37.9814 23.2853 38.053 23.3749 38.1769C23.4724 38.3017 23.5114 38.4435 23.4919 38.6023C23.4734 38.7532 23.4012 38.8813 23.2754 38.9868C23.1585 39.0853 23.0207 39.1248 22.8619 39.1053L18.3001 38.5452ZM18.9073 46.6959L20.3723 46.8758C20.6264 46.907 20.8055 46.8927 20.9096 46.8329C21.0225 46.7662 21.0932 46.6177 21.1214 46.3874C21.1497 46.1572 21.1166 46 21.0222 45.9158C20.9366 45.8247 20.7668 45.7636 20.5127 45.7324L19.0477 45.5525C18.7936 45.5213 18.6101 45.5391 18.4971 45.6058C18.3931 45.6656 18.3269 45.8106 18.2986 46.0409C18.2704 46.2711 18.299 46.4318 18.3845 46.5229C18.479 46.6071 18.6533 46.6647 18.9073 46.6959ZM30.1129 49.0753C29.1601 48.9583 28.4385 48.6319 27.9481 48.0961C27.4666 47.5534 27.2903 46.758 27.419 45.7099L28.1984 39.3615C28.2228 39.163 28.3108 39.0046 28.4623 38.8862C28.6228 38.7608 28.8023 38.7103 29.0008 38.7347C29.1993 38.759 29.3573 38.851 29.4747 39.0105C29.6011 39.163 29.6521 39.3385 29.6277 39.537L28.8482 45.8854C28.7761 46.473 28.8569 46.898 29.0906 47.1604C29.3323 47.4238 29.7311 47.5897 30.2869 47.6579C30.7792 47.7184 31.2559 47.6439 31.7168 47.4345C32.1857 47.2261 32.5907 46.8486 32.9319 46.3021C33.0416 46.1302 33.1957 46.0242 33.3941 45.9841C33.5924 45.944 33.7736 45.9783 33.9376 46.0871C34.1105 46.1889 34.213 46.3385 34.2452 46.5359C34.2853 46.7343 34.2544 46.9199 34.1526 47.0928C33.7067 47.836 33.1205 48.3766 32.3939 48.7146C31.6752 49.0535 30.9149 49.1737 30.1129 49.0753ZM44.7551 50.7401C43.8348 50.4901 43.0937 50.1251 42.532 49.645C41.9713 49.1571 41.5757 48.6047 41.3451 47.988C41.1225 47.3723 41.0497 46.7508 41.1267 46.1235C41.2047 45.4883 41.4004 44.9118 41.7139 44.3942C42.0362 43.8695 42.4565 43.4335 42.9747 43.0861C42.4895 43.099 41.9711 43.12 41.4194 43.149C40.8687 43.1701 40.3335 43.197 39.8136 43.2299C39.2947 43.2549 38.8403 43.2797 38.4503 43.3043C38.2559 43.3127 38.0866 43.2476 37.9424 43.109C37.7982 42.9704 37.7219 42.8038 37.7135 42.6094C37.7062 42.4069 37.7713 42.2376 37.9089 42.1014C38.0475 41.9572 38.218 41.8814 38.4204 41.874C38.6794 41.8655 39.0113 41.8539 39.4161 41.8391C39.8219 41.8164 40.2758 41.7956 40.7779 41.7766C41.2799 41.7576 41.7944 41.7362 42.3212 41.7122C42.8481 41.6882 43.3625 41.6668 43.8646 41.6478C44.3755 41.6219 44.8419 41.5985 45.2635 41.5778C45.6852 41.557 46.03 41.5389 46.2979 41.5234C46.4844 41.5141 46.6502 41.5748 46.7954 41.7054C46.9406 41.8361 47.0218 41.9952 47.0391 42.1827C47.0554 42.3781 46.9977 42.5524 46.8661 42.7055C46.7424 42.8596 46.5833 42.9408 46.3888 42.9491C45.7994 42.9574 45.2747 43.0622 44.8147 43.2637C44.3637 43.4581 43.9773 43.717 43.6555 44.0402C43.3347 44.3554 43.0824 44.7033 42.8987 45.0837C42.7149 45.4641 42.6001 45.841 42.5543 46.2142C42.4597 46.9844 42.6452 47.6399 43.1108 48.1806C43.5774 48.7135 44.251 49.1025 45.1317 49.3476C45.3263 49.4038 45.4734 49.5185 45.573 49.692C45.6726 49.8654 45.6948 50.0455 45.6396 50.2321C45.5835 50.4267 45.4687 50.5738 45.2953 50.6734C45.1298 50.774 44.9498 50.7963 44.7551 50.7401ZM51.7899 50.2619C51.4227 50.2329 51.0835 50.1066 50.7724 49.8831C50.4614 49.6595 50.2037 49.3296 49.9993 48.8935C49.8288 48.5098 49.7017 48.0348 49.6181 47.4684C49.5345 46.902 49.5 46.2972 49.5144 45.6542C49.5299 45.0033 49.5925 44.3621 49.7022 43.7308C49.7425 43.5342 49.8379 43.3807 49.9885 43.2702C50.148 43.1528 50.326 43.1142 50.5226 43.1544C50.7201 43.1868 50.8732 43.2862 50.9817 43.4526C51.0991 43.6121 51.1377 43.7902 51.0975 43.9867C50.9974 44.5386 50.9346 45.083 50.909 45.6199C50.8844 46.1489 50.9008 46.6385 50.9584 47.0889C51.0169 47.5313 51.112 47.9057 51.2436 48.212C51.3863 48.56 51.5965 48.751 51.8745 48.7852C52.2169 48.8192 52.5466 48.4969 52.8636 47.8185C52.9496 47.6437 53.0853 47.5233 53.2707 47.4574C53.4571 47.3836 53.6416 47.3901 53.8244 47.4771C54.0002 47.5551 54.1206 47.6907 54.1855 47.8841C54.2514 48.0695 54.2414 48.2496 54.1554 48.4245C53.8473 49.0959 53.4857 49.5794 53.0706 49.8751C52.6564 50.1627 52.2295 50.2917 51.7899 50.2619ZM58.5385 48.9626C58.3392 49.0107 58.1535 48.9799 57.9816 48.8701C57.8177 48.7613 57.7112 48.6112 57.6621 48.4198C57.5791 48.1114 57.4529 47.7936 57.2835 47.4665C57.122 47.1404 56.9308 46.8268 56.7099 46.5256C56.4969 46.2254 56.2706 45.9679 56.031 45.7531C55.8858 45.6225 55.8056 45.4554 55.7902 45.252C55.7749 45.0487 55.8405 44.8754 55.9871 44.7322C56.1336 44.589 56.2992 44.5206 56.4837 44.5272C56.6763 44.5347 56.8486 44.6082 57.0007 44.7478C57.3059 45.019 57.5969 45.3409 57.8735 45.7134C58.1581 46.0868 58.4081 46.4802 58.6233 46.8935C58.8385 47.3069 58.9872 47.7039 59.0694 48.0848C59.1105 48.2752 59.0797 48.4609 58.9769 48.6417C58.8751 48.8145 58.7289 48.9215 58.5385 48.9626ZM64.1403 53.4588C63.4892 53.3789 62.9841 53.1597 62.6252 52.8013C62.2652 52.4508 62.1222 51.9738 62.1963 51.3704C62.2626 50.8304 62.5143 50.422 62.9513 50.1452C63.3962 49.8694 63.9561 49.7729 64.6311 49.8558C64.8693 49.885 65.106 49.9262 65.3413 49.9793L65.4708 48.629C64.6421 48.5514 63.9116 48.4617 63.2793 48.3599C63.0827 48.3196 62.9297 48.2203 62.8202 48.0617C62.7196 47.8962 62.685 47.7187 62.7164 47.5291C62.7556 47.3405 62.8545 47.1914 63.0131 47.0819C63.1795 46.9734 63.3571 46.9388 63.5457 46.9781C63.8455 47.031 64.1696 47.0829 64.518 47.1337C64.8753 47.1776 65.2371 47.218 65.6033 47.2549C65.6187 47.0633 65.6382 46.8723 65.6616 46.6817C65.685 46.4912 65.7039 46.3041 65.7184 46.1205C65.3283 46.0806 64.9507 46.0383 64.5854 45.9934C64.2212 45.9407 63.8886 45.8918 63.5879 45.8468C63.3903 45.8145 63.2368 45.719 63.1273 45.5605C63.0267 45.395 62.9926 45.2135 63.0249 45.016C63.0642 44.8274 63.1631 44.6783 63.3216 44.5688C63.4881 44.4603 63.6656 44.4257 63.8543 44.4649C64.437 44.5768 65.1065 44.6711 65.8628 44.7478L65.9885 43.7235C66.0129 43.525 66.1009 43.3665 66.2524 43.2481C66.405 43.1218 66.5805 43.0708 66.779 43.0952C66.9775 43.1195 67.1355 43.2115 67.2529 43.371C67.3793 43.5235 67.4303 43.699 67.4059 43.8975C67.3883 44.0405 67.3693 44.1953 67.3488 44.3621C67.3293 44.5209 67.3124 44.6921 67.2979 44.8757C67.6264 44.8918 67.9429 44.9065 68.2476 44.9197C68.5532 44.925 68.8311 44.9269 69.0811 44.9254C69.2746 44.9249 69.4395 44.9935 69.5757 45.1312C69.7209 45.2618 69.7937 45.4239 69.7941 45.6174C69.7935 45.8188 69.724 45.9917 69.5853 46.1358C69.4557 46.2731 69.2941 46.3419 69.1006 46.3423C68.8188 46.3399 68.5096 46.3302 68.1732 46.3131C67.8447 46.2969 67.5048 46.2753 67.1535 46.2483C67.1311 46.4309 67.1082 46.6175 67.0848 46.8081C67.0693 46.9997 67.0539 47.1912 67.0384 47.3827C67.358 47.4059 67.6621 47.4231 67.9509 47.4343C68.2486 47.4386 68.5225 47.44 68.7725 47.4385C68.967 47.4301 69.1324 47.4948 69.2686 47.6324C69.4128 47.771 69.4851 47.937 69.4855 48.1305C69.4859 48.324 69.4168 48.4929 69.2782 48.6371C69.1485 48.7743 68.987 48.8431 68.7935 48.8435C68.5196 48.8421 68.2224 48.8338 67.9018 48.8187C67.5813 48.8035 67.2454 48.7824 66.894 48.7554C66.8709 49.0749 66.8418 49.3777 66.8067 49.6635C66.7796 49.9503 66.7548 50.2173 66.7326 50.4644C67.1765 50.656 67.5928 50.8763 67.9813 51.1255C68.3698 51.3748 68.7092 51.63 68.9996 51.8913C69.1457 52.0141 69.2225 52.1766 69.2298 52.379C69.2452 52.5824 69.1875 52.7567 69.0568 52.9019C68.9262 53.047 68.7592 53.1273 68.5558 53.1426C68.3613 53.151 68.1915 53.0898 68.0463 52.9591C67.8435 52.773 67.6159 52.5919 67.3634 52.4159C67.112 52.2319 66.8467 52.0623 66.5675 51.9071C66.4587 52.5305 66.1957 52.9657 65.7785 53.2127C65.3613 53.4596 64.8152 53.5417 64.1403 53.4588ZM64.2937 52.1115C64.6192 52.1515 64.8404 52.1222 64.9573 52.0237C65.0752 51.9173 65.1472 51.7569 65.1736 51.5425L65.2013 51.3162C64.9372 51.2354 64.6741 51.1789 64.4121 51.1467C64.158 51.1155 63.9661 51.1363 63.8362 51.209C63.7064 51.2817 63.6322 51.3935 63.6137 51.5444C63.5747 51.862 63.8014 52.051 64.2937 52.1115ZM76.1315 55.0521C75.9341 55.0843 75.748 55.0574 75.5732 54.9714C75.4053 54.8944 75.2885 54.7632 75.2226 54.5778C75.1656 54.3854 75.1805 54.1978 75.2675 54.015C75.3544 53.8323 75.4936 53.7164 75.685 53.6673C76.3167 53.5112 76.8169 53.3106 77.1855 53.0657C77.5541 52.8208 77.8288 52.52 78.0096 52.1634C77.724 52.2573 77.4502 52.2882 77.1882 52.256C76.5609 52.179 76.0682 51.9573 75.7102 51.5909C75.3531 51.2166 75.2131 50.7158 75.2902 50.0885C75.3672 49.4613 75.6341 48.9943 76.0908 48.6877C76.5476 48.3811 77.0897 48.2663 77.7169 48.3433C77.7725 48.3501 77.8236 48.3604 77.8703 48.3742C77.918 48.3801 77.9691 48.3904 78.0237 48.4051C78.0164 48.2672 78.0137 48.1258 78.0153 47.9809C78.0249 47.837 78.0355 47.6852 78.0471 47.5254C77.2491 47.4597 76.4612 47.4113 75.6831 47.3802C74.914 47.3422 74.1961 47.3145 73.5292 47.2971C73.3367 47.2896 73.1718 47.221 73.0346 47.0913C72.8984 46.9537 72.83 46.7881 72.8296 46.5946C72.8381 46.3942 72.9112 46.2258 73.0488 46.0896C73.1864 45.9533 73.351 45.8929 73.5426 45.9084C74.2243 45.9357 74.9647 45.9782 75.7636 46.036C76.5635 46.0859 77.3743 46.1451 78.196 46.2138L78.3218 45.1895C78.3462 44.991 78.4341 44.8325 78.5857 44.7141C78.7373 44.5957 78.9123 44.5487 79.1108 44.5731C79.3173 44.5984 79.4797 44.6869 79.5981 44.8384C79.7165 44.99 79.7635 45.165 79.7392 45.3635L79.6192 46.3402C80.2802 46.4052 80.913 46.4708 81.5174 46.537C82.1228 46.5952 82.6801 46.6515 83.1893 46.706C83.3878 46.7304 83.5418 46.8218 83.6513 46.9803C83.7687 47.1398 83.8118 47.3144 83.7804 47.504C83.7481 47.7015 83.6527 47.855 83.4942 47.9645C83.3436 48.075 83.1695 48.1141 82.972 48.0818C81.9605 47.9173 80.7893 47.7735 79.4584 47.6503C79.4322 47.9292 79.41 48.2086 79.3917 48.4885C79.3814 48.7693 79.3686 49.0377 79.3533 49.2938C79.6789 49.7932 79.7939 50.432 79.6983 51.2101C79.5765 52.2027 79.2077 53.04 78.592 53.722C77.9842 54.405 77.164 54.8484 76.1315 55.0521ZM77.3388 51.0292C77.57 51.0496 77.756 51.0119 77.8967 50.9164C78.0463 50.8138 78.1348 50.6514 78.1621 50.4291C78.1699 50.3656 78.1707 50.2931 78.1646 50.2118C78.1664 50.1314 78.1642 50.0505 78.1581 49.9692C78.0157 49.7502 77.8095 49.6241 77.5396 49.591C77.3172 49.5637 77.1184 49.6078 76.943 49.7233C76.7765 49.8318 76.6792 50.0012 76.6509 50.2314C76.6226 50.4617 76.6721 50.6491 76.7995 50.7937C76.9357 50.9314 77.1155 51.0099 77.3388 51.0292ZM89.615 53.6488C89.4562 53.6293 89.3241 53.5567 89.2186 53.4309C89.1132 53.3051 89.0628 53.1579 89.0674 52.9892C89.0806 52.6845 89.0992 52.3362 89.1231 51.9442C89.155 51.5532 89.1839 51.1537 89.2098 50.7458C89.2367 50.33 89.2651 49.9345 89.295 49.5594C89.325 49.1842 89.3535 48.8532 89.3807 48.5664C89.4078 48.2796 89.4297 48.0687 89.4463 47.9337L89.5911 46.7545C89.6193 46.5243 89.7226 46.3395 89.9009 46.2002C90.0872 46.0618 90.3034 46.0078 90.5495 46.038C90.8036 46.0692 91.0003 46.174 91.1396 46.3523C91.2869 46.5315 91.3464 46.7363 91.3181 46.9666L91.1733 48.1457C91.1567 48.2807 91.123 48.4902 91.072 48.7741C91.029 49.0589 90.9766 49.387 90.9149 49.7583C90.8532 50.1295 90.7851 50.5201 90.7105 50.9301C90.6449 51.3331 90.5763 51.7277 90.5047 52.1138C90.4332 52.5 90.3669 52.8425 90.3061 53.1413C90.2776 53.307 90.1971 53.4382 90.0643 53.5347C89.9315 53.6313 89.7818 53.6693 89.615 53.6488ZM89.2582 56.555C88.9803 56.5209 88.7543 56.3924 88.5801 56.1695C88.406 55.9466 88.336 55.6962 88.3701 55.4183C88.4042 55.1404 88.5327 54.9144 88.7556 54.7402C88.9785 54.5661 89.2289 54.4961 89.5068 54.5302C89.7847 54.5643 90.0108 54.6929 90.1849 54.9157C90.359 55.1386 90.429 55.389 90.3949 55.6669C90.3608 55.9448 90.2323 56.1709 90.0094 56.345C89.7865 56.5191 89.5361 56.5891 89.2582 56.555Z" fill="white"/>
</svg>
