<svg width="240" height="45" viewBox="0 0 240 45" fill="none" xmlns="http://www.w3.org/2000/svg">
<rect x="1" y="1" width="238" height="43" rx="21.5" fill="#929292" stroke="#4C4C4C" stroke-width="2"/>
<path d="M34.386 22.896C34.1993 22.9987 34.0173 23.0313 33.84 22.994C33.6627 22.9567 33.5227 22.8587 33.42 22.7C33.3267 22.532 33.308 22.364 33.364 22.196C33.42 22.0187 33.5413 21.8833 33.728 21.79C34.1293 21.5847 34.5633 21.3327 35.03 21.034C35.4967 20.7353 35.9587 20.4133 36.416 20.068C36.8827 19.7133 37.3213 19.3587 37.732 19.004C38.152 18.6493 38.5113 18.3133 38.81 17.996C39.2207 17.5667 39.6173 17.3567 40 17.366C40.3827 17.366 40.7887 17.5713 41.218 17.982C41.6287 18.374 42.1187 18.7987 42.688 19.256C43.2573 19.704 43.85 20.1333 44.466 20.544C45.0913 20.9547 45.6887 21.3 46.258 21.58C46.454 21.6733 46.5847 21.8087 46.65 21.986C46.7247 22.154 46.7107 22.3313 46.608 22.518C46.5147 22.714 46.3653 22.84 46.16 22.896C45.964 22.9427 45.754 22.9053 45.53 22.784C45.138 22.5787 44.7133 22.3267 44.256 22.028C43.808 21.7293 43.3507 21.4027 42.884 21.048C42.4173 20.6933 41.974 20.334 41.554 19.97C41.134 19.606 40.7653 19.2607 40.448 18.934C40.1773 18.6353 39.9067 18.6307 39.636 18.92C39.328 19.2467 38.9547 19.5967 38.516 19.97C38.0867 20.3433 37.6293 20.7167 37.144 21.09C36.6587 21.454 36.178 21.7947 35.702 22.112C35.226 22.42 34.7873 22.6813 34.386 22.896ZM40.224 30.106C40.056 30.0033 39.9487 29.8587 39.902 29.672C39.8647 29.4947 39.902 29.3267 40.014 29.168C40.2473 28.9067 40.49 28.594 40.742 28.23C40.994 27.8567 41.2273 27.4787 41.442 27.096C41.666 26.704 41.848 26.354 41.988 26.046C42.184 25.598 42.0393 25.374 41.554 25.374H36.374C36.1967 25.374 36.0473 25.3133 35.926 25.192C35.814 25.0707 35.758 24.926 35.758 24.758C35.758 24.59 35.814 24.45 35.926 24.338C36.0473 24.2167 36.1967 24.156 36.374 24.156H42.268C42.856 24.156 43.2713 24.324 43.514 24.66C43.7567 24.996 43.766 25.4347 43.542 25.976C43.2713 26.6293 42.9307 27.3013 42.52 27.992C42.1093 28.6733 41.6893 29.2987 41.26 29.868C41.1387 30.0267 40.98 30.1293 40.784 30.176C40.588 30.232 40.4013 30.2087 40.224 30.106ZM37.424 22.714C37.2467 22.714 37.102 22.658 36.99 22.546C36.8873 22.4247 36.836 22.2847 36.836 22.126C36.836 21.958 36.8873 21.818 36.99 21.706C37.102 21.5847 37.2467 21.524 37.424 21.524H42.688C42.8653 21.524 43.0053 21.5847 43.108 21.706C43.22 21.818 43.276 21.958 43.276 22.126C43.276 22.2847 43.22 22.4247 43.108 22.546C43.0053 22.658 42.8653 22.714 42.688 22.714H37.424ZM54.77 30.218C54.5927 30.218 54.4387 30.1573 54.308 30.036C54.1773 29.9147 54.112 29.756 54.112 29.56V26.872H48.064C47.9053 26.872 47.77 26.816 47.658 26.704C47.546 26.5827 47.49 26.4473 47.49 26.298C47.49 26.1393 47.546 26.004 47.658 25.892C47.77 25.78 47.9053 25.724 48.064 25.724H50.192V24.394C50.192 23.8713 50.262 23.456 50.402 23.148C50.5513 22.8307 50.7987 22.6067 51.144 22.476C51.4987 22.336 51.984 22.266 52.6 22.266H54.112V20.362H50.934C50.318 21.2767 49.6367 22.084 48.89 22.784C48.7593 22.9053 48.6007 22.98 48.414 23.008C48.2367 23.0267 48.0733 22.9707 47.924 22.84C47.7933 22.728 47.7233 22.5833 47.714 22.406C47.714 22.2193 47.784 22.0653 47.924 21.944C48.3627 21.552 48.7827 21.104 49.184 20.6C49.5853 20.096 49.9493 19.5733 50.276 19.032C50.612 18.4907 50.892 17.968 51.116 17.464C51.1907 17.3053 51.312 17.198 51.48 17.142C51.6573 17.086 51.8207 17.0953 51.97 17.17C52.1287 17.2447 52.236 17.3567 52.292 17.506C52.348 17.6553 52.3387 17.8093 52.264 17.968C52.1707 18.1733 52.0727 18.3787 51.97 18.584C51.8673 18.7893 51.76 18.9947 51.648 19.2H59.292C59.4507 19.2 59.586 19.2607 59.698 19.382C59.81 19.494 59.866 19.6293 59.866 19.788C59.866 19.9467 59.81 20.082 59.698 20.194C59.586 20.306 59.4507 20.362 59.292 20.362H55.442V22.266H58.452C58.6107 22.266 58.746 22.3267 58.858 22.448C58.97 22.56 59.026 22.6953 59.026 22.854C59.026 23.0127 58.97 23.1527 58.858 23.274C58.746 23.3953 58.6107 23.456 58.452 23.456H55.442V25.724H59.908C60.0667 25.724 60.202 25.78 60.314 25.892C60.426 26.004 60.482 26.1393 60.482 26.298C60.482 26.4473 60.426 26.5827 60.314 26.704C60.202 26.816 60.0667 26.872 59.908 26.872H55.442V29.56C55.442 29.756 55.3767 29.9147 55.246 30.036C55.1153 30.1573 54.9567 30.218 54.77 30.218ZM51.494 25.724H54.112V23.456H52.6C52.1613 23.456 51.8673 23.5167 51.718 23.638C51.5687 23.7593 51.494 24.0113 51.494 24.394V25.724ZM61.518 29.966C61.3593 29.882 61.2567 29.756 61.21 29.588C61.1727 29.4293 61.2007 29.28 61.294 29.14C61.6487 28.6267 61.9333 28.0667 62.148 27.46C62.372 26.8533 62.5353 26.1627 62.638 25.388C62.7407 24.604 62.792 23.694 62.792 22.658V21.454C62.792 20.7633 62.8853 20.222 63.072 19.83C63.2587 19.4287 63.5667 19.144 63.996 18.976C64.4253 18.808 65.0087 18.724 65.746 18.724H67.734V17.744C67.734 17.5387 67.804 17.38 67.944 17.268C68.084 17.1467 68.2473 17.086 68.434 17.086C68.6207 17.086 68.7793 17.1467 68.91 17.268C69.05 17.38 69.12 17.5387 69.12 17.744V18.724H73.796C73.9547 18.724 74.0853 18.78 74.188 18.892C74.2907 18.9947 74.342 19.1207 74.342 19.27C74.342 19.4193 74.2907 19.55 74.188 19.662C74.0853 19.7647 73.9547 19.816 73.796 19.816H71.22V21.034H73.376C73.516 21.034 73.6373 21.09 73.74 21.202C73.8427 21.3047 73.894 21.4307 73.894 21.58C73.894 21.72 73.8427 21.846 73.74 21.958C73.6373 22.07 73.516 22.126 73.376 22.126H71.22V22.392C71.22 22.84 71.1453 23.1947 70.996 23.456C70.8467 23.7173 70.59 23.904 70.226 24.016C69.8713 24.1187 69.3673 24.17 68.714 24.17C68.07 24.17 67.566 24.1187 67.202 24.016C66.838 23.904 66.5813 23.7173 66.432 23.456C66.2827 23.1947 66.208 22.84 66.208 22.392V22.126H63.996V22.672C63.996 24.2213 63.8747 25.556 63.632 26.676C63.3987 27.7867 62.988 28.7993 62.4 29.714C62.3067 29.8633 62.176 29.9613 62.008 30.008C61.84 30.0547 61.6767 30.0407 61.518 29.966ZM64.668 30.148C64.2013 30.232 63.912 30.0873 63.8 29.714C63.7533 29.5273 63.7813 29.3593 63.884 29.21C63.996 29.07 64.1547 28.986 64.36 28.958C65.6947 28.7433 66.8567 28.4073 67.846 27.95C67.1647 27.3433 66.6047 26.6293 66.166 25.808H65.116C64.9667 25.808 64.8407 25.7567 64.738 25.654C64.6447 25.542 64.598 25.416 64.598 25.276C64.598 25.1267 64.6447 25.0007 64.738 24.898C64.8407 24.786 64.9667 24.73 65.116 24.73H70.282C70.8233 24.73 71.2293 24.8513 71.5 25.094C71.78 25.3367 71.9107 25.6353 71.892 25.99C71.8733 26.3353 71.6913 26.676 71.346 27.012C71.1593 27.1893 70.9633 27.362 70.758 27.53C70.5527 27.698 70.3427 27.8567 70.128 28.006C70.6413 28.2393 71.1873 28.4307 71.766 28.58C72.3447 28.72 72.9467 28.818 73.572 28.874C73.7867 28.8833 73.95 28.958 74.062 29.098C74.1833 29.238 74.2253 29.406 74.188 29.602C74.1507 29.8073 74.0527 29.952 73.894 30.036C73.7447 30.12 73.5627 30.1527 73.348 30.134C71.612 29.9193 70.142 29.4573 68.938 28.748C68.3127 29.0747 67.6407 29.3547 66.922 29.588C66.2127 29.8213 65.4613 30.008 64.668 30.148ZM67.468 21.034H69.96V19.816H67.468V21.034ZM68.966 27.348C69.19 27.2173 69.4 27.0773 69.596 26.928C69.792 26.7787 69.9787 26.6293 70.156 26.48C70.3707 26.2933 70.45 26.1347 70.394 26.004C70.3473 25.8733 70.1607 25.808 69.834 25.808H67.468C67.664 26.1067 67.888 26.3867 68.14 26.648C68.4013 26.9 68.6767 27.1333 68.966 27.348ZM64.01 21.034H66.208V19.816H65.816C65.1907 19.816 64.7427 19.9 64.472 20.068C64.2107 20.236 64.0567 20.558 64.01 21.034ZM68.714 23.106C69.0593 23.106 69.3207 23.0873 69.498 23.05C69.6753 23.0127 69.7967 22.9333 69.862 22.812C69.9273 22.6813 69.96 22.4947 69.96 22.252V22.126H67.468V22.252C67.468 22.4947 67.5007 22.6813 67.566 22.812C67.6313 22.9333 67.7527 23.0127 67.93 23.05C68.1073 23.0873 68.3687 23.106 68.714 23.106ZM76.806 26.536C76.6567 26.6387 76.4933 26.676 76.316 26.648C76.148 26.62 76.0127 26.5313 75.91 26.382C75.8073 26.2327 75.77 26.0693 75.798 25.892C75.826 25.7147 75.9147 25.5747 76.064 25.472C76.568 25.1173 77.0627 24.688 77.548 24.184C78.0333 23.68 78.472 23.162 78.864 22.63C79.256 22.098 79.5593 21.6127 79.774 21.174C79.8487 21.0153 79.97 20.908 80.138 20.852C80.3153 20.7867 80.4833 20.7913 80.642 20.866C80.8007 20.9407 80.908 21.0667 80.964 21.244C81.0293 21.412 81.02 21.5753 80.936 21.734C80.768 22.0793 80.53 22.4713 80.222 22.91C79.9233 23.3487 79.5827 23.792 79.2 24.24C78.8267 24.688 78.4347 25.1127 78.024 25.514C77.6133 25.9153 77.2073 26.256 76.806 26.536ZM87.614 26.424C87.4647 26.5173 87.3013 26.5407 87.124 26.494C86.9467 26.4473 86.8113 26.3447 86.718 26.186C86.55 25.8967 86.3307 25.57 86.06 25.206C85.7893 24.8327 85.4907 24.45 85.164 24.058C84.8373 23.666 84.5013 23.288 84.156 22.924C83.8107 22.5507 83.4793 22.2193 83.162 21.93C83.0313 21.8087 82.9613 21.6593 82.952 21.482C82.952 21.2953 83.0127 21.1413 83.134 21.02C83.2647 20.8893 83.4187 20.8193 83.596 20.81C83.7733 20.8007 83.9273 20.8613 84.058 20.992C84.3847 21.3 84.7253 21.6453 85.08 22.028C85.4347 22.4107 85.7847 22.8073 86.13 23.218C86.4753 23.6193 86.7973 24.0207 87.096 24.422C87.3947 24.8233 87.642 25.1967 87.838 25.542C87.9313 25.6913 87.9547 25.8547 87.908 26.032C87.8707 26.2 87.7727 26.3307 87.614 26.424ZM86.942 21.342C86.5687 21.342 86.2467 21.2067 85.976 20.936C85.7053 20.6653 85.57 20.3433 85.57 19.97C85.57 19.5873 85.7053 19.2653 85.976 19.004C86.2467 18.7333 86.5687 18.598 86.942 18.598C87.3247 18.598 87.6467 18.7333 87.908 19.004C88.1787 19.2653 88.314 19.5873 88.314 19.97C88.314 20.3433 88.1787 20.6653 87.908 20.936C87.6467 21.2067 87.3247 21.342 86.942 21.342ZM86.942 20.656C87.138 20.656 87.3013 20.5907 87.432 20.46C87.572 20.32 87.642 20.1567 87.642 19.97C87.642 19.774 87.572 19.6107 87.432 19.48C87.3013 19.34 87.138 19.27 86.942 19.27C86.7553 19.27 86.592 19.34 86.452 19.48C86.3213 19.6107 86.256 19.774 86.256 19.97C86.256 20.1567 86.3213 20.32 86.452 20.46C86.592 20.5907 86.7553 20.656 86.942 20.656ZM92.598 28.314C92.43 28.3793 92.2667 28.3747 92.108 28.3C91.9493 28.2253 91.8373 28.104 91.772 27.936C91.7067 27.768 91.7113 27.6047 91.786 27.446C91.87 27.278 91.996 27.1613 92.164 27.096C92.9293 26.816 93.6947 26.4847 94.46 26.102C95.2253 25.71 95.958 25.29 96.658 24.842C97.3673 24.3847 98.0067 23.9133 98.576 23.428C99.1547 22.9427 99.6353 22.4667 100.018 22C100.13 21.86 100.275 21.7853 100.452 21.776C100.629 21.7573 100.788 21.804 100.928 21.916C101.068 22.028 101.147 22.1727 101.166 22.35C101.185 22.5273 101.138 22.686 101.026 22.826C100.653 23.2833 100.149 23.7733 99.514 24.296C98.8793 24.8187 98.1747 25.3367 97.4 25.85C96.6253 26.354 95.8227 26.8207 94.992 27.25C94.1707 27.6793 93.3727 28.034 92.598 28.314ZM94.026 22.882C93.802 22.686 93.5453 22.4807 93.256 22.266C92.976 22.0513 92.6913 21.846 92.402 21.65C92.122 21.454 91.8653 21.286 91.632 21.146C91.4827 21.0527 91.3847 20.922 91.338 20.754C91.2913 20.5767 91.3147 20.4133 91.408 20.264C91.5013 20.1053 91.6367 20.0027 91.814 19.956C91.9913 19.9093 92.1547 19.9373 92.304 20.04C92.5373 20.1893 92.8127 20.3807 93.13 20.614C93.4567 20.838 93.774 21.0667 94.082 21.3C94.39 21.524 94.6373 21.7107 94.824 21.86C94.964 21.972 95.0433 22.1167 95.062 22.294C95.09 22.4713 95.048 22.63 94.936 22.77C94.8333 22.91 94.6887 22.994 94.502 23.022C94.3247 23.05 94.166 23.0033 94.026 22.882ZM107.284 29.126C107.125 29.1913 106.962 29.1913 106.794 29.126C106.626 29.07 106.505 28.958 106.43 28.79C106.365 28.6313 106.36 28.468 106.416 28.3C106.481 28.132 106.593 28.0107 106.752 27.936C108.236 27.2733 109.496 26.466 110.532 25.514C111.577 24.5527 112.329 23.5073 112.786 22.378C112.991 21.8833 113.019 21.496 112.87 21.216C112.73 20.9267 112.361 20.782 111.764 20.782H106.346C106.169 20.782 106.015 20.7213 105.884 20.6C105.763 20.4693 105.702 20.3153 105.702 20.138C105.702 19.9513 105.763 19.7973 105.884 19.676C106.015 19.5453 106.169 19.48 106.346 19.48H111.764C112.52 19.48 113.103 19.6247 113.514 19.914C113.934 20.2033 114.186 20.6 114.27 21.104C114.354 21.608 114.261 22.1913 113.99 22.854C113.467 24.142 112.627 25.3273 111.47 26.41C110.322 27.4833 108.927 28.3887 107.284 29.126ZM123.468 27.362C122.255 27.782 121.303 27.824 120.612 27.488C119.931 27.1427 119.59 26.4007 119.59 25.262V20.572C119.59 20.3947 119.655 20.2453 119.786 20.124C119.917 19.9933 120.071 19.928 120.248 19.928C120.425 19.928 120.575 19.9933 120.696 20.124C120.827 20.2453 120.892 20.3947 120.892 20.572V25.262C120.892 25.822 121.055 26.172 121.382 26.312C121.718 26.452 122.273 26.4007 123.048 26.158C123.645 25.962 124.252 25.724 124.868 25.444C125.484 25.1547 126.081 24.8373 126.66 24.492C127.248 24.1373 127.789 23.7733 128.284 23.4C128.433 23.288 128.597 23.246 128.774 23.274C128.951 23.2927 129.091 23.372 129.194 23.512C129.306 23.6613 129.348 23.8247 129.32 24.002C129.301 24.1793 129.222 24.3193 129.082 24.422C128.587 24.8047 128.032 25.178 127.416 25.542C126.8 25.8967 126.156 26.2327 125.484 26.55C124.812 26.858 124.14 27.1287 123.468 27.362ZM136.32 29.364C136.18 29.4293 136.035 29.434 135.886 29.378C135.746 29.3313 135.639 29.238 135.564 29.098C135.499 28.9487 135.489 28.7993 135.536 28.65C135.592 28.5007 135.69 28.3933 135.83 28.328C136.782 27.8707 137.566 27.362 138.182 26.802C138.807 26.2327 139.302 25.5887 139.666 24.87C140.03 24.142 140.291 23.3067 140.45 22.364C140.478 22.2053 140.557 22.084 140.688 22C140.819 21.9067 140.959 21.874 141.108 21.902C141.267 21.93 141.388 22.0093 141.472 22.14C141.565 22.2613 141.598 22.4013 141.57 22.56C141.299 24.128 140.739 25.472 139.89 26.592C139.041 27.7027 137.851 28.6267 136.32 29.364ZM138.224 24.842C138.075 24.8887 137.93 24.8793 137.79 24.814C137.65 24.7393 137.552 24.6273 137.496 24.478C137.393 24.1887 137.267 23.876 137.118 23.54C136.969 23.1947 136.838 22.9193 136.726 22.714C136.651 22.574 136.628 22.4293 136.656 22.28C136.693 22.1213 136.782 22.0047 136.922 21.93C137.053 21.846 137.197 21.8227 137.356 21.86C137.515 21.8973 137.631 21.986 137.706 22.126C137.799 22.294 137.902 22.504 138.014 22.756C138.126 22.9987 138.233 23.2413 138.336 23.484C138.439 23.7267 138.523 23.9367 138.588 24.114C138.635 24.2633 138.621 24.408 138.546 24.548C138.481 24.688 138.373 24.786 138.224 24.842ZM136.04 25.374C135.9 25.4393 135.755 25.444 135.606 25.388C135.466 25.3227 135.363 25.22 135.298 25.08C135.158 24.7813 135.004 24.4827 134.836 24.184C134.677 23.876 134.519 23.61 134.36 23.386C134.267 23.2553 134.234 23.1153 134.262 22.966C134.29 22.8073 134.365 22.6813 134.486 22.588C134.617 22.4947 134.757 22.462 134.906 22.49C135.065 22.5087 135.191 22.5833 135.284 22.714C135.405 22.882 135.531 23.0827 135.662 23.316C135.793 23.5493 135.919 23.7827 136.04 24.016C136.161 24.24 136.259 24.4407 136.334 24.618C136.409 24.7673 136.413 24.9167 136.348 25.066C136.292 25.206 136.189 25.3087 136.04 25.374ZM151.09 29.308C150.913 29.308 150.759 29.2427 150.628 29.112C150.507 28.9813 150.446 28.8273 150.446 28.65V18.99C150.446 18.8127 150.507 18.6633 150.628 18.542C150.759 18.4113 150.913 18.346 151.09 18.346C151.277 18.346 151.431 18.4113 151.552 18.542C151.683 18.6633 151.748 18.8127 151.748 18.99V28.65C151.748 28.8273 151.683 28.9813 151.552 29.112C151.431 29.2427 151.277 29.308 151.09 29.308ZM155.234 25.276C154.973 25.0707 154.66 24.8467 154.296 24.604C153.941 24.3613 153.577 24.1233 153.204 23.89C152.831 23.6473 152.481 23.4327 152.154 23.246C152.005 23.162 151.902 23.036 151.846 22.868C151.79 22.7 151.799 22.5367 151.874 22.378C151.958 22.2193 152.084 22.1167 152.252 22.07C152.429 22.014 152.597 22.0233 152.756 22.098C153.129 22.2847 153.517 22.504 153.918 22.756C154.329 22.9987 154.721 23.2507 155.094 23.512C155.477 23.7733 155.808 24.0207 156.088 24.254C156.228 24.3753 156.307 24.5293 156.326 24.716C156.345 24.8933 156.293 25.052 156.172 25.192C156.051 25.332 155.901 25.4113 155.724 25.43C155.547 25.4393 155.383 25.388 155.234 25.276ZM166 30.288C165.823 30.288 165.669 30.2273 165.538 30.106C165.407 29.9847 165.342 29.8213 165.342 29.616V27.74H160.078C159.91 27.74 159.775 27.684 159.672 27.572C159.579 27.46 159.532 27.3293 159.532 27.18C159.532 27.0213 159.583 26.8907 159.686 26.788C159.798 26.6853 159.933 26.634 160.092 26.634H165.342V25.444C164.913 25.3133 164.609 25.094 164.432 24.786C164.264 24.4687 164.18 24.0207 164.18 23.442V20.838C163.975 21.0713 163.76 21.3 163.536 21.524C163.415 21.6453 163.27 21.7153 163.102 21.734C162.934 21.7433 162.785 21.6827 162.654 21.552C162.542 21.44 162.481 21.3047 162.472 21.146C162.472 20.9873 162.533 20.8567 162.654 20.754C162.962 20.4647 163.27 20.138 163.578 19.774C163.886 19.41 164.175 19.032 164.446 18.64C164.717 18.2387 164.945 17.856 165.132 17.492C165.216 17.3333 165.337 17.2353 165.496 17.198C165.664 17.1513 165.823 17.17 165.972 17.254C166.121 17.338 166.215 17.4547 166.252 17.604C166.289 17.744 166.271 17.884 166.196 18.024C166.103 18.192 166 18.3647 165.888 18.542C165.785 18.71 165.669 18.8873 165.538 19.074H167.498C167.573 18.9247 167.657 18.752 167.75 18.556C167.843 18.36 167.932 18.1733 168.016 17.996C168.1 17.8093 168.165 17.6647 168.212 17.562C168.287 17.394 168.408 17.2913 168.576 17.254C168.744 17.2167 168.903 17.2353 169.052 17.31C169.22 17.4033 169.318 17.5247 169.346 17.674C169.383 17.814 169.36 17.9587 169.276 18.108C169.211 18.248 169.131 18.4067 169.038 18.584C168.954 18.752 168.865 18.9153 168.772 19.074H171.502C171.661 19.074 171.782 19.1253 171.866 19.228C171.95 19.3307 171.992 19.452 171.992 19.592C171.992 19.7227 171.95 19.8393 171.866 19.942C171.782 20.0447 171.661 20.096 171.502 20.096H168.674V20.95H171.026C171.185 20.95 171.306 20.9967 171.39 21.09C171.474 21.1833 171.516 21.2953 171.516 21.426C171.516 21.5567 171.474 21.6687 171.39 21.762C171.306 21.8553 171.185 21.902 171.026 21.902H168.674V22.742H171.026C171.185 22.742 171.306 22.7887 171.39 22.882C171.474 22.9753 171.516 23.0873 171.516 23.218C171.516 23.3487 171.474 23.4607 171.39 23.554C171.306 23.6473 171.185 23.694 171.026 23.694H168.674V24.576H171.67C171.819 24.576 171.936 24.6273 172.02 24.73C172.113 24.8327 172.16 24.9493 172.16 25.08C172.16 25.2107 172.113 25.3273 172.02 25.43C171.936 25.5327 171.819 25.584 171.67 25.584H166.672V26.634H171.95C172.109 26.634 172.235 26.6853 172.328 26.788C172.421 26.8907 172.468 27.0213 172.468 27.18C172.468 27.3293 172.417 27.46 172.314 27.572C172.221 27.684 172.09 27.74 171.922 27.74H166.672V29.616C166.672 29.8213 166.607 29.9847 166.476 30.106C166.345 30.2273 166.187 30.288 166 30.288ZM160.12 25.752C159.999 25.6307 159.938 25.4907 159.938 25.332C159.947 25.164 160.013 25.0287 160.134 24.926C160.339 24.7487 160.573 24.5293 160.834 24.268C161.095 23.9973 161.352 23.7267 161.604 23.456C161.856 23.176 162.075 22.9287 162.262 22.714C162.365 22.5927 162.491 22.532 162.64 22.532C162.789 22.532 162.915 22.5833 163.018 22.686C163.149 22.798 163.214 22.9287 163.214 23.078C163.214 23.218 163.163 23.3533 163.06 23.484C162.901 23.6893 162.696 23.932 162.444 24.212C162.201 24.492 161.954 24.7673 161.702 25.038C161.45 25.3087 161.221 25.5373 161.016 25.724C160.895 25.8453 160.745 25.9107 160.568 25.92C160.4 25.9293 160.251 25.8733 160.12 25.752ZM162.276 19.494C162.089 19.3727 161.851 19.228 161.562 19.06C161.282 18.8827 161.039 18.738 160.834 18.626C160.703 18.5513 160.615 18.444 160.568 18.304C160.531 18.1547 160.554 18.0053 160.638 17.856C160.713 17.716 160.829 17.6273 160.988 17.59C161.147 17.5527 161.296 17.5713 161.436 17.646C161.66 17.7673 161.912 17.912 162.192 18.08C162.472 18.248 162.705 18.3973 162.892 18.528C163.041 18.6213 163.13 18.7427 163.158 18.892C163.186 19.032 163.153 19.1767 163.06 19.326C162.985 19.4473 162.869 19.5313 162.71 19.578C162.561 19.6153 162.416 19.5873 162.276 19.494ZM161.59 21.93C161.394 21.8273 161.147 21.706 160.848 21.566C160.549 21.426 160.293 21.3093 160.078 21.216C159.929 21.16 159.826 21.062 159.77 20.922C159.723 20.7727 159.733 20.6233 159.798 20.474C159.863 20.3247 159.971 20.2267 160.12 20.18C160.279 20.124 160.433 20.124 160.582 20.18C160.825 20.2827 161.091 20.404 161.38 20.544C161.679 20.684 161.926 20.8053 162.122 20.908C162.281 20.992 162.379 21.104 162.416 21.244C162.453 21.384 162.435 21.5333 162.36 21.692C162.295 21.8227 162.187 21.9113 162.038 21.958C161.898 22.0047 161.749 21.9953 161.59 21.93ZM165.468 20.95H167.414V20.096H165.468V20.95ZM165.468 22.742H167.414V21.902H165.468V22.742ZM166.7 24.576H167.414V23.694H165.468C165.487 24.0487 165.58 24.2867 165.748 24.408C165.925 24.52 166.243 24.576 166.7 24.576ZM175.8 30.19C175.632 30.19 175.487 30.1293 175.366 30.008C175.254 29.896 175.198 29.7513 175.198 29.574V22.826C175.067 23.0593 174.927 23.2833 174.778 23.498C174.638 23.7033 174.498 23.9087 174.358 24.114C174.237 24.2633 174.087 24.352 173.91 24.38C173.733 24.3987 173.574 24.3613 173.434 24.268C173.303 24.1653 173.224 24.0347 173.196 23.876C173.177 23.708 173.219 23.5587 173.322 23.428C173.733 22.8773 174.125 22.2613 174.498 21.58C174.871 20.8893 175.203 20.1987 175.492 19.508C175.781 18.8173 176.005 18.1967 176.164 17.646C176.211 17.4593 176.309 17.3333 176.458 17.268C176.607 17.1933 176.766 17.1793 176.934 17.226C177.102 17.2727 177.228 17.366 177.312 17.506C177.396 17.646 177.41 17.8047 177.354 17.982C177.233 18.374 177.088 18.78 176.92 19.2C176.761 19.62 176.589 20.0447 176.402 20.474V29.252C176.421 29.168 176.444 29.1027 176.472 29.056C176.883 28.3 177.163 27.46 177.312 26.536C177.471 25.612 177.55 24.5713 177.55 23.414C177.55 22.8633 177.611 22.4247 177.732 22.098C177.863 21.7713 178.082 21.5333 178.39 21.384C178.698 21.2253 179.118 21.1367 179.65 21.118V19.844H177.858C177.709 19.844 177.578 19.788 177.466 19.676C177.363 19.564 177.312 19.4333 177.312 19.284C177.312 19.1347 177.363 19.0087 177.466 18.906C177.578 18.794 177.709 18.738 177.858 18.738H179.65V17.814C179.65 17.6273 179.711 17.4827 179.832 17.38C179.953 17.268 180.098 17.212 180.266 17.212C180.434 17.212 180.579 17.268 180.7 17.38C180.821 17.4827 180.882 17.6273 180.882 17.814V18.738H182.506V17.814C182.506 17.6273 182.562 17.4827 182.674 17.38C182.795 17.268 182.94 17.212 183.108 17.212C183.285 17.212 183.43 17.268 183.542 17.38C183.663 17.4827 183.724 17.6273 183.724 17.814V18.738H185.6C185.759 18.738 185.889 18.794 185.992 18.906C186.095 19.0087 186.146 19.1347 186.146 19.284C186.146 19.4333 186.095 19.564 185.992 19.676C185.889 19.788 185.759 19.844 185.6 19.844H183.724V21.104H185.866C186.025 21.104 186.155 21.1553 186.258 21.258C186.361 21.3607 186.412 21.4913 186.412 21.65C186.412 21.7993 186.361 21.9253 186.258 22.028C186.155 22.1307 186.025 22.182 185.866 22.182H180.07C179.529 22.182 179.16 22.266 178.964 22.434C178.777 22.5927 178.684 22.9193 178.684 23.414C178.684 24.6553 178.605 25.7987 178.446 26.844C178.287 27.88 177.989 28.7853 177.55 29.56C177.466 29.7093 177.345 29.812 177.186 29.868C177.027 29.924 176.869 29.9147 176.71 29.84C176.533 29.756 176.43 29.6113 176.402 29.406V29.574C176.402 29.7513 176.341 29.896 176.22 30.008C176.108 30.1293 175.968 30.19 175.8 30.19ZM180.042 30.204C179.893 30.204 179.762 30.1527 179.65 30.05C179.538 29.9567 179.482 29.826 179.482 29.658V24.87C179.482 24.366 179.547 23.974 179.678 23.694C179.809 23.414 180.028 23.218 180.336 23.106C180.653 22.994 181.092 22.938 181.652 22.938H183.458C184.018 22.938 184.452 22.994 184.76 23.106C185.077 23.218 185.297 23.414 185.418 23.694C185.539 23.974 185.6 24.366 185.6 24.87V28.524C185.6 29.0747 185.479 29.4807 185.236 29.742C185.003 30.0033 184.625 30.1387 184.102 30.148C183.934 30.148 183.789 30.106 183.668 30.022C183.547 29.938 183.477 29.8073 183.458 29.63C183.449 29.4527 183.495 29.308 183.598 29.196C183.701 29.084 183.845 29.0233 184.032 29.014C184.219 28.9953 184.345 28.9533 184.41 28.888C184.475 28.8133 184.508 28.664 184.508 28.44V27.754H183.094V29.364C183.094 29.5227 183.038 29.6487 182.926 29.742C182.823 29.8447 182.697 29.896 182.548 29.896C182.399 29.896 182.268 29.8447 182.156 29.742C182.044 29.6487 181.988 29.5227 181.988 29.364V27.754H180.616V29.658C180.616 29.826 180.56 29.9567 180.448 30.05C180.336 30.1527 180.201 30.204 180.042 30.204ZM180.882 21.104H182.506V19.844H180.882V21.104ZM183.094 26.788H184.508V25.85H183.094V26.788ZM180.616 26.788H181.988V25.85H180.616V26.788ZM183.094 24.884H184.508V24.87C184.508 24.4873 184.443 24.24 184.312 24.128C184.181 24.016 183.897 23.96 183.458 23.96H183.094V24.884ZM180.616 24.884H181.988V23.96H181.652C181.213 23.96 180.929 24.016 180.798 24.128C180.677 24.24 180.616 24.4873 180.616 24.87V24.884ZM194 30.064C193.795 30.064 193.631 30.0127 193.51 29.91C193.398 29.8073 193.342 29.658 193.342 29.462V25.458H191.144C190.425 25.458 189.851 25.3787 189.422 25.22C188.993 25.0613 188.685 24.786 188.498 24.394C188.321 24.002 188.232 23.4607 188.232 22.77C188.232 22.0607 188.33 21.5147 188.526 21.132C188.722 20.74 189.03 20.4693 189.45 20.32C189.879 20.1613 190.444 20.082 191.144 20.082H193.342V17.884C193.342 17.6973 193.398 17.5527 193.51 17.45C193.631 17.338 193.795 17.282 194 17.282C194.196 17.282 194.355 17.338 194.476 17.45C194.597 17.5527 194.658 17.6973 194.658 17.884V20.082H196.87C197.579 20.082 198.144 20.1613 198.564 20.32C198.993 20.4693 199.301 20.74 199.488 21.132C199.684 21.5147 199.782 22.0607 199.782 22.77C199.782 23.4607 199.679 24.002 199.474 24.394C199.278 24.786 198.965 25.0613 198.536 25.22C198.107 25.3787 197.551 25.458 196.87 25.458H194.658V29.462C194.658 29.658 194.597 29.8073 194.476 29.91C194.355 30.0127 194.196 30.064 194 30.064ZM194.658 24.212H196.87C197.262 24.212 197.575 24.1793 197.808 24.114C198.041 24.0393 198.209 23.8993 198.312 23.694C198.424 23.4793 198.48 23.1713 198.48 22.77C198.48 22.3407 198.429 22.028 198.326 21.832C198.233 21.6267 198.069 21.496 197.836 21.44C197.603 21.3747 197.281 21.342 196.87 21.342H194.658V24.212ZM191.144 24.212H193.342V21.342H191.144C190.743 21.342 190.425 21.3747 190.192 21.44C189.959 21.496 189.791 21.6267 189.688 21.832C189.595 22.028 189.548 22.3407 189.548 22.77C189.548 23.1713 189.59 23.4793 189.674 23.694C189.767 23.8993 189.926 24.0393 190.15 24.114C190.383 24.1793 190.715 24.212 191.144 24.212ZM203.058 29.154C202.797 29.154 202.573 29.0607 202.386 28.874C202.209 28.6873 202.12 28.468 202.12 28.216C202.12 27.964 202.209 27.7447 202.386 27.558C202.573 27.3713 202.797 27.278 203.058 27.278C203.319 27.278 203.539 27.3713 203.716 27.558C203.903 27.7447 203.996 27.964 203.996 28.216C203.996 28.468 203.903 28.6873 203.716 28.874C203.539 29.0607 203.319 29.154 203.058 29.154ZM211.304 29.154C211.043 29.154 210.823 29.0607 210.646 28.874C210.469 28.6873 210.38 28.468 210.38 28.216C210.38 27.964 210.469 27.7447 210.646 27.558C210.823 27.3713 211.043 27.278 211.304 27.278C211.565 27.278 211.785 27.3713 211.962 27.558C212.149 27.7447 212.242 27.964 212.242 28.216C212.242 28.468 212.149 28.6873 211.962 28.874C211.785 29.0607 211.565 29.154 211.304 29.154ZM207.188 29.154C206.927 29.154 206.703 29.0607 206.516 28.874C206.339 28.6873 206.25 28.468 206.25 28.216C206.25 27.964 206.339 27.7447 206.516 27.558C206.703 27.3713 206.927 27.278 207.188 27.278C207.44 27.278 207.655 27.3713 207.832 27.558C208.019 27.7447 208.112 27.964 208.112 28.216C208.112 28.468 208.019 28.6873 207.832 28.874C207.655 29.0607 207.44 29.154 207.188 29.154Z" fill="white"/>
</svg>
