<svg width="57" height="19" viewBox="0 0 57 19" fill="none" xmlns="http://www.w3.org/2000/svg">
<path d="M2.318 18.463C2.10267 18.6023 1.87467 18.653 1.634 18.615C1.39333 18.577 1.20333 18.4567 1.064 18.254C0.937333 18.064 0.893 17.8613 0.931 17.646C0.969 17.4433 1.08933 17.2787 1.292 17.152C2.356 16.4807 3.097 15.6827 3.515 14.758C3.94567 13.8207 4.17367 12.725 4.199 11.471C4.22433 10.5717 4.446 9.94467 4.864 9.59C5.282 9.22267 5.97233 9.039 6.935 9.039H12.692C13.5533 9.039 14.1677 9.23533 14.535 9.628C14.915 10.008 15.105 10.6477 15.105 11.547C15.105 12.459 14.915 13.1113 14.535 13.504C14.1677 13.884 13.5533 14.074 12.692 14.074H5.51C5.26933 14.948 4.88933 15.7587 4.37 16.506C3.86333 17.2533 3.17933 17.9057 2.318 18.463ZM1.767 9.837C1.501 9.93833 1.26033 9.95733 1.045 9.894C0.829667 9.818 0.671333 9.666 0.57 9.438C0.481333 9.21 0.487667 9.001 0.589 8.811C0.703 8.621 0.880333 8.48167 1.121 8.393C1.86833 8.11433 2.63467 7.79133 3.42 7.424C4.20533 7.044 4.96533 6.65133 5.7 6.246C6.43467 5.828 7.087 5.43533 7.657 5.068C8.113 4.77667 8.50567 4.58667 8.835 4.498C9.16433 4.39667 9.5 4.39033 9.842 4.479C10.1967 4.56767 10.621 4.75133 11.115 5.03C11.7357 5.372 12.4197 5.72667 13.167 6.094C13.9143 6.46133 14.687 6.816 15.485 7.158C16.2957 7.5 17.0873 7.79767 17.86 8.051C18.1007 8.127 18.2717 8.25367 18.373 8.431C18.487 8.60833 18.5123 8.80467 18.449 9.02C18.373 9.27333 18.2273 9.45067 18.012 9.552C17.8093 9.65333 17.5877 9.65967 17.347 9.571C16.701 9.343 16.0107 9.06433 15.276 8.735C14.5413 8.40567 13.813 8.06367 13.091 7.709C13.1037 7.73433 13.11 7.77867 13.11 7.842C13.11 8.01933 13.053 8.17767 12.939 8.317C12.825 8.44367 12.6603 8.507 12.445 8.507H6.802C6.59933 8.507 6.441 8.44367 6.327 8.317C6.213 8.17767 6.156 8.01933 6.156 7.842C6.156 7.77867 6.16233 7.73433 6.175 7.709C5.46567 8.10167 4.731 8.48167 3.971 8.849C3.211 9.21633 2.47633 9.54567 1.767 9.837ZM7.771 18.52C6.90967 18.52 6.30167 18.368 5.947 18.064C5.59233 17.7727 5.415 17.2977 5.415 16.639C5.415 15.9677 5.59233 15.4863 5.947 15.195C6.30167 14.9037 6.90967 14.758 7.771 14.758H12.958C13.8067 14.758 14.4083 14.9037 14.763 15.195C15.1303 15.4863 15.314 15.9677 15.314 16.639C15.314 17.2977 15.1367 17.7727 14.782 18.064C14.44 18.368 13.832 18.52 12.958 18.52H7.771ZM6.878 5.334C6.63733 5.334 6.43467 5.258 6.27 5.106C6.118 4.954 6.042 4.75767 6.042 4.517V3.757H1.558C1.34267 3.757 1.17167 3.68733 1.045 3.548C0.918333 3.40867 0.855 3.244 0.855 3.054C0.855 2.864 0.918333 2.69933 1.045 2.56C1.17167 2.42067 1.34267 2.351 1.558 2.351H6.042V1.591C6.042 1.33767 6.118 1.14133 6.27 1.002C6.43467 0.849999 6.63733 0.773999 6.878 0.773999C7.106 0.773999 7.296 0.849999 7.448 1.002C7.61267 1.14133 7.695 1.33767 7.695 1.591V2.351H11.229V1.591C11.229 1.33767 11.3113 1.14133 11.476 1.002C11.6407 0.849999 11.837 0.773999 12.065 0.773999C12.293 0.773999 12.4893 0.849999 12.654 1.002C12.8187 1.14133 12.901 1.33767 12.901 1.591V2.351H17.423C17.6383 2.351 17.8093 2.42067 17.936 2.56C18.0627 2.69933 18.126 2.864 18.126 3.054C18.126 3.244 18.0627 3.40867 17.936 3.548C17.8093 3.68733 17.6383 3.757 17.423 3.757H12.901V4.46C12.901 4.70067 12.8187 4.897 12.654 5.049C12.4893 5.201 12.293 5.277 12.065 5.277C11.837 5.277 11.6407 5.201 11.476 5.049C11.3113 4.897 11.229 4.70067 11.229 4.46V3.757H7.695V4.517C7.695 4.75767 7.61267 4.954 7.448 5.106C7.296 5.258 7.106 5.334 6.878 5.334ZM7.98 17.19H12.768C13.1227 17.19 13.3507 17.152 13.452 17.076C13.566 17.0127 13.623 16.867 13.623 16.639C13.623 16.3983 13.566 16.2463 13.452 16.183C13.3507 16.107 13.1227 16.069 12.768 16.069H7.98C7.62533 16.069 7.391 16.107 7.277 16.183C7.17567 16.2463 7.125 16.3983 7.125 16.639C7.125 16.867 7.17567 17.0127 7.277 17.076C7.391 17.152 7.62533 17.19 7.98 17.19ZM5.757 12.839H12.141C12.559 12.839 12.863 12.801 13.053 12.725C13.243 12.649 13.3633 12.4463 13.414 12.117H5.833C5.82033 12.2437 5.80767 12.364 5.795 12.478C5.795 12.592 5.78233 12.7123 5.757 12.839ZM5.928 10.939H13.395C13.3443 10.6477 13.2177 10.464 13.015 10.388C12.825 10.312 12.5337 10.274 12.141 10.274H7.22C6.84 10.274 6.54867 10.3183 6.346 10.407C6.14333 10.4957 6.004 10.673 5.928 10.939ZM7.068 7.177H12.065C11.7483 6.99967 11.4317 6.82867 11.115 6.664C10.811 6.49933 10.526 6.341 10.26 6.189C9.90533 5.97367 9.62667 5.866 9.424 5.866C9.22133 5.866 8.95533 5.98 8.626 6.208C8.398 6.36 8.151 6.51833 7.885 6.683C7.63167 6.84767 7.35933 7.01233 7.068 7.177ZM20.558 18.254C20.3933 18.0893 20.311 17.893 20.311 17.665C20.3237 17.4497 20.4123 17.2787 20.577 17.152C21.1723 16.6327 21.622 16.088 21.926 15.518C22.2427 14.948 22.4643 14.3147 22.591 13.618C22.2363 13.7067 21.8943 13.7827 21.565 13.846C21.2357 13.9093 20.9443 13.9727 20.691 14.036C20.4503 14.0867 20.235 14.055 20.045 13.941C19.8677 13.827 19.7537 13.656 19.703 13.428C19.665 13.2127 19.703 13.0163 19.817 12.839C19.9437 12.6617 20.121 12.554 20.349 12.516C20.6783 12.4527 21.0457 12.3893 21.451 12.326C21.869 12.25 22.2933 12.1677 22.724 12.079V9.704H20.824C20.6213 9.704 20.4503 9.63433 20.311 9.495C20.1843 9.35567 20.121 9.191 20.121 9.001C20.121 8.79833 20.1843 8.63367 20.311 8.507C20.4503 8.36767 20.6213 8.298 20.824 8.298H22.724V6.189H20.615C20.4123 6.189 20.2413 6.11933 20.102 5.98C19.9627 5.84067 19.893 5.66967 19.893 5.467C19.893 5.26433 19.9627 5.09333 20.102 4.954C20.2413 4.81467 20.4123 4.745 20.615 4.745H23.389C23.4903 4.479 23.6107 4.14333 23.75 3.738C23.902 3.33267 24.0477 2.93367 24.187 2.541C24.3263 2.14833 24.4277 1.84433 24.491 1.629C24.5543 1.41367 24.681 1.26167 24.871 1.173C25.061 1.07167 25.2573 1.059 25.46 1.135C25.6753 1.19833 25.8273 1.31867 25.916 1.496C26.0047 1.67333 26.0173 1.86333 25.954 2.066C25.8907 2.26867 25.7957 2.52833 25.669 2.845C25.555 3.149 25.4283 3.472 25.289 3.814C25.1623 4.156 25.0357 4.46633 24.909 4.745H26.22C26.4227 4.745 26.5937 4.81467 26.733 4.954C26.8723 5.09333 26.942 5.26433 26.942 5.467C26.942 5.66967 26.8723 5.84067 26.733 5.98C26.5937 6.11933 26.4227 6.189 26.22 6.189H24.225V8.298H25.935C26.125 8.298 26.2897 8.36767 26.429 8.507C26.5683 8.63367 26.638 8.79833 26.638 9.001C26.638 9.191 26.5683 9.35567 26.429 9.495C26.2897 9.63433 26.125 9.704 25.935 9.704H24.225V11.756C24.567 11.6927 24.8963 11.623 25.213 11.547C25.5423 11.471 25.84 11.4077 26.106 11.357C26.5747 11.243 26.8597 11.4203 26.961 11.889C27.0117 12.1043 26.98 12.288 26.866 12.44C26.7647 12.592 26.6063 12.6933 26.391 12.744C26.1123 12.82 25.7767 12.9023 25.384 12.991C24.9913 13.0797 24.5797 13.1747 24.149 13.276C24.0477 14.34 23.807 15.2583 23.427 16.031C23.0597 16.8037 22.515 17.5257 21.793 18.197C21.6157 18.3617 21.4067 18.4503 21.166 18.463C20.938 18.4883 20.7353 18.4187 20.558 18.254ZM28.804 18.425C28.5633 18.425 28.367 18.3553 28.215 18.216C28.063 18.0893 27.9807 17.9057 27.968 17.665C27.9553 17.4497 28.0187 17.2533 28.158 17.076C28.31 16.9113 28.5063 16.8227 28.747 16.81C29.1777 16.7847 29.469 16.715 29.621 16.601C29.773 16.4743 29.849 16.2273 29.849 15.86V12.383C29.4183 12.7757 28.9623 13.1747 28.481 13.58C27.9997 13.9727 27.5943 14.2957 27.265 14.549C27.075 14.6757 26.866 14.7263 26.638 14.701C26.41 14.663 26.2327 14.549 26.106 14.359C25.954 14.1437 25.9097 13.9283 25.973 13.713C26.0363 13.4977 26.163 13.3267 26.353 13.2C26.6317 13.01 26.9863 12.7503 27.417 12.421C27.8603 12.079 28.3037 11.7307 28.747 11.376C29.1903 11.0087 29.5577 10.6983 29.849 10.445V4.65C29.849 4.20667 29.773 3.92167 29.621 3.795C29.469 3.65567 29.1523 3.586 28.671 3.586H27.55C27.3473 3.586 27.1763 3.51633 27.037 3.377C26.9103 3.225 26.847 3.054 26.847 2.864C26.847 2.66133 26.9103 2.49033 27.037 2.351C27.1763 2.21167 27.3473 2.142 27.55 2.142H28.728C29.412 2.142 29.944 2.21167 30.324 2.351C30.704 2.47767 30.97 2.71833 31.122 3.073C31.2867 3.415 31.369 3.909 31.369 4.555V16.183C31.369 16.9937 31.1663 17.57 30.761 17.912C30.3557 18.254 29.7033 18.425 28.804 18.425ZM33.934 18.425C33.3893 18.425 33.098 18.1717 33.06 17.665C33.0473 17.4497 33.1107 17.2597 33.25 17.095C33.3893 16.943 33.5603 16.848 33.763 16.81C34.2443 16.7973 34.5737 16.7277 34.751 16.601C34.941 16.4743 35.036 16.2273 35.036 15.86V12.231C34.6813 12.5477 34.3077 12.8707 33.915 13.2C33.535 13.5293 33.1993 13.8017 32.908 14.017C32.718 14.1437 32.509 14.1943 32.281 14.169C32.053 14.131 31.8693 14.017 31.73 13.827C31.5907 13.6117 31.5527 13.3963 31.616 13.181C31.6793 12.9657 31.7997 12.7947 31.977 12.668C32.243 12.4907 32.5597 12.2627 32.927 11.984C33.2943 11.6927 33.668 11.395 34.048 11.091C34.428 10.787 34.7573 10.5083 35.036 10.255V4.65C35.036 4.20667 34.9537 3.92167 34.789 3.795C34.637 3.65567 34.3203 3.586 33.839 3.586H32.509C32.319 3.586 32.1543 3.51633 32.015 3.377C31.8757 3.225 31.806 3.054 31.806 2.864C31.806 2.66133 31.8757 2.49033 32.015 2.351C32.1543 2.21167 32.319 2.142 32.509 2.142H33.915C34.5863 2.142 35.112 2.21167 35.492 2.351C35.872 2.47767 36.138 2.71833 36.29 3.073C36.4547 3.415 36.537 3.909 36.537 4.555V16.183C36.537 16.9937 36.3343 17.57 35.929 17.912C35.5363 18.254 34.8713 18.425 33.934 18.425ZM34.447 8.944C34.2317 9.058 34.0227 9.08333 33.82 9.02C33.63 8.944 33.497 8.811 33.421 8.621C33.3323 8.40567 33.2183 8.146 33.079 7.842C32.9397 7.538 32.8003 7.234 32.661 6.93C32.5217 6.626 32.4013 6.379 32.3 6.189C32.2113 6.01167 32.1987 5.828 32.262 5.638C32.3253 5.448 32.4457 5.30867 32.623 5.22C32.8383 5.11867 33.041 5.09967 33.231 5.163C33.4337 5.22633 33.5793 5.35933 33.668 5.562C33.782 5.76467 33.9087 6.018 34.048 6.322C34.1873 6.61333 34.3203 6.911 34.447 7.215C34.5863 7.50633 34.694 7.75333 34.77 7.956C34.8587 8.15867 34.8713 8.34867 34.808 8.526C34.7573 8.70333 34.637 8.84267 34.447 8.944ZM29.26 9.362C29.032 9.476 28.8167 9.50133 28.614 9.438C28.424 9.362 28.291 9.229 28.215 9.039C28.1263 8.82367 28.0123 8.564 27.873 8.26C27.7463 7.956 27.6133 7.652 27.474 7.348C27.3347 7.044 27.2143 6.797 27.113 6.607C27.0243 6.42967 27.0117 6.246 27.075 6.056C27.1383 5.866 27.2587 5.72667 27.436 5.638C27.6513 5.53667 27.854 5.51767 28.044 5.581C28.234 5.64433 28.3797 5.77733 28.481 5.98C28.5823 6.18267 28.7027 6.436 28.842 6.74C28.9813 7.03133 29.1143 7.329 29.241 7.633C29.3803 7.92433 29.4943 8.17133 29.583 8.374C29.659 8.57667 29.6717 8.76667 29.621 8.944C29.5703 9.12133 29.45 9.26067 29.26 9.362ZM22.401 4.479C22.1983 4.56767 22.002 4.574 21.812 4.498C21.622 4.40933 21.4953 4.27 21.432 4.08C21.3813 3.928 21.299 3.73167 21.185 3.491C21.0837 3.25033 20.9823 3.00967 20.881 2.769C20.7797 2.52833 20.691 2.332 20.615 2.18C20.5263 2.00267 20.52 1.82533 20.596 1.648C20.6847 1.458 20.8177 1.325 20.995 1.249C21.2103 1.16033 21.413 1.154 21.603 1.23C21.793 1.306 21.9323 1.44533 22.021 1.648C22.097 1.78733 22.1857 1.97733 22.287 2.218C22.3883 2.446 22.4897 2.68033 22.591 2.921C22.705 3.149 22.7873 3.34533 22.838 3.51C22.9267 3.71267 22.9267 3.909 22.838 4.099C22.762 4.27633 22.6163 4.403 22.401 4.479ZM39.786 10.673C39.5707 10.7743 39.349 10.8123 39.121 10.787C38.9057 10.7617 38.7283 10.6477 38.589 10.445C38.4623 10.2423 38.4307 10.0333 38.494 9.818C38.5573 9.60267 38.7093 9.438 38.95 9.324C39.3807 9.134 39.7987 8.925 40.204 8.697C40.622 8.469 41.0147 8.22833 41.382 7.975C41.2047 7.785 41.021 7.595 40.831 7.405C40.641 7.20233 40.4953 7.05033 40.394 6.949C40.28 6.82233 40.2167 6.67667 40.204 6.512C40.204 6.33467 40.2673 6.189 40.394 6.075C40.5333 5.93567 40.6917 5.85967 40.869 5.847C41.059 5.83433 41.2173 5.89767 41.344 6.037C41.496 6.189 41.6733 6.37267 41.876 6.588C42.0913 6.80333 42.294 6.99967 42.484 7.177C42.788 6.93633 43.0857 6.67667 43.377 6.398C43.1743 6.22067 42.9463 6.02433 42.693 5.809C42.4523 5.59367 42.2687 5.43533 42.142 5.334C42.0153 5.20733 41.9393 5.06167 41.914 4.897C41.9013 4.73233 41.952 4.58667 42.066 4.46C42.2053 4.308 42.3637 4.21933 42.541 4.194C42.7183 4.16867 42.8767 4.21933 43.016 4.346C43.1933 4.48533 43.396 4.65633 43.624 4.859C43.8647 5.06167 44.0863 5.25167 44.289 5.429C44.4157 5.28967 44.536 5.15033 44.65 5.011C44.764 4.859 44.8653 4.71333 44.954 4.574C45.182 4.232 45.258 3.985 45.182 3.833C45.1187 3.66833 44.8717 3.586 44.441 3.586H42.674C42.2433 4.09267 41.781 4.58667 41.287 5.068C40.8057 5.54933 40.337 5.96733 39.881 6.322C39.7163 6.44867 39.5137 6.512 39.273 6.512C39.045 6.512 38.8613 6.42967 38.722 6.265C38.5953 6.08767 38.5447 5.89767 38.57 5.695C38.608 5.47967 38.7093 5.315 38.874 5.201C39.33 4.87167 39.786 4.479 40.242 4.023C40.698 3.567 41.1287 3.08567 41.534 2.579C41.952 2.05967 42.3067 1.56567 42.598 1.097C42.7247 0.919666 42.8893 0.812 43.092 0.773999C43.3073 0.723333 43.51 0.748666 43.7 0.85C43.8773 0.951332 43.9913 1.097 44.042 1.287C44.0927 1.477 44.0673 1.66067 43.966 1.838C43.9153 1.914 43.8647 1.99 43.814 2.066C43.776 2.12933 43.7317 2.19267 43.681 2.256H45.106C46.0433 2.256 46.6387 2.51567 46.892 3.035C47.158 3.54167 47.0693 4.14333 46.626 4.84C46.2967 5.35933 45.9103 5.87233 45.467 6.379C45.0363 6.873 44.5677 7.348 44.061 7.804C44.137 7.77867 44.2003 7.766 44.251 7.766H51.015C51.243 7.766 51.433 7.84833 51.585 8.013C51.737 8.165 51.813 8.355 51.813 8.583C51.813 8.79833 51.737 8.98833 51.585 9.153C51.433 9.305 51.243 9.381 51.015 9.381H44.251C44.0357 9.381 43.8457 9.305 43.681 9.153C43.529 8.98833 43.453 8.79833 43.453 8.583C43.453 8.45633 43.472 8.34867 43.51 8.26C42.94 8.72867 42.3383 9.16567 41.705 9.571C41.0843 9.97633 40.4447 10.3437 39.786 10.673ZM45.524 18.767C45.2833 18.767 45.068 18.691 44.878 18.539C44.688 18.387 44.5803 18.1717 44.555 17.893C44.5423 17.6523 44.6183 17.437 44.783 17.247C44.9477 17.0697 45.1693 16.9747 45.448 16.962C46.0053 16.924 46.36 16.8417 46.512 16.715C46.6767 16.5757 46.759 16.3097 46.759 15.917V12.782H40.508C40.2927 12.782 40.1027 12.706 39.938 12.554C39.786 12.3893 39.71 12.1993 39.71 11.984C39.71 11.7687 39.786 11.585 39.938 11.433C40.1027 11.2683 40.2927 11.186 40.508 11.186H54.511C54.739 11.186 54.929 11.2683 55.081 11.433C55.233 11.585 55.309 11.7687 55.309 11.984C55.309 12.1993 55.233 12.3893 55.081 12.554C54.929 12.706 54.739 12.782 54.511 12.782H48.507V16.126C48.507 17.038 48.2917 17.703 47.861 18.121C47.4303 18.5517 46.6513 18.767 45.524 18.767ZM55.138 10.331C54.0867 9.81167 53.067 9.16567 52.079 8.393C51.091 7.60767 50.2043 6.702 49.419 5.676C48.6463 4.63733 48.0573 3.48467 47.652 2.218C47.5887 1.97733 47.6013 1.762 47.69 1.572C47.7913 1.36933 47.956 1.24267 48.184 1.192C48.4247 1.12867 48.6337 1.14767 48.811 1.249C49.001 1.33767 49.134 1.496 49.21 1.724C49.4633 2.49667 49.7927 3.21867 50.198 3.89C50.6033 4.56133 51.072 5.17567 51.604 5.733C51.8193 5.55567 52.0663 5.34667 52.345 5.106C52.6363 4.85267 52.896 4.62467 53.124 4.422C53.39 4.16867 53.4787 3.966 53.39 3.814C53.314 3.662 53.0987 3.586 52.744 3.586H50.787C50.5843 3.586 50.4133 3.51633 50.274 3.377C50.1347 3.225 50.065 3.04767 50.065 2.845C50.065 2.655 50.1347 2.484 50.274 2.332C50.4133 2.18 50.5843 2.104 50.787 2.104H53.371C53.903 2.104 54.3273 2.20533 54.644 2.408C54.9733 2.61067 55.195 2.87667 55.309 3.206C55.423 3.52267 55.4293 3.85833 55.328 4.213C55.2267 4.555 55.0113 4.878 54.682 5.182C54.3653 5.46067 54.0423 5.74567 53.713 6.037C53.3963 6.31567 53.0797 6.57533 52.763 6.816C53.2823 7.24667 53.827 7.633 54.397 7.975C54.967 8.317 55.5433 8.621 56.126 8.887C56.3667 9.001 56.5123 9.17833 56.563 9.419C56.6263 9.65967 56.5883 9.88767 56.449 10.103C56.3223 10.3183 56.1323 10.4387 55.879 10.464C55.6257 10.4893 55.3787 10.445 55.138 10.331ZM41.021 17.646C40.7803 17.7727 40.5397 17.8107 40.299 17.76C40.0583 17.722 39.8683 17.589 39.729 17.361C39.6023 17.133 39.5707 16.9177 39.634 16.715C39.71 16.4997 39.862 16.335 40.09 16.221C40.432 16.031 40.831 15.7967 41.287 15.518C41.7557 15.2267 42.218 14.929 42.674 14.625C43.13 14.3083 43.51 14.0297 43.814 13.789C43.9913 13.6497 44.194 13.5927 44.422 13.618C44.6627 13.6307 44.8463 13.7257 44.973 13.903C45.1123 14.0677 45.1757 14.264 45.163 14.492C45.1503 14.72 45.0553 14.9037 44.878 15.043C44.536 15.3217 44.137 15.6257 43.681 15.955C43.225 16.2843 42.7627 16.601 42.294 16.905C41.8253 17.1963 41.401 17.4433 41.021 17.646ZM54.055 17.646C53.675 17.456 53.238 17.209 52.744 16.905C52.2627 16.601 51.7877 16.2843 51.319 15.955C50.863 15.613 50.4767 15.2963 50.16 15.005C49.9953 14.8657 49.9067 14.6883 49.894 14.473C49.8813 14.2577 49.9447 14.0677 50.084 13.903C50.236 13.7383 50.4197 13.6433 50.635 13.618C50.8503 13.5927 51.0403 13.6497 51.205 13.789C51.509 14.0423 51.8827 14.321 52.326 14.625C52.782 14.929 53.2443 15.2267 53.713 15.518C54.1943 15.7967 54.6187 16.0247 54.986 16.202C55.1887 16.2907 55.3217 16.449 55.385 16.677C55.461 16.8923 55.442 17.1013 55.328 17.304C55.2013 17.5447 55.0177 17.6903 54.777 17.741C54.5363 17.7917 54.2957 17.76 54.055 17.646Z" fill="#40888B"/>
</svg>
