<svg width="182" height="183" viewBox="0 0 182 183" fill="none" xmlns="http://www.w3.org/2000/svg">
<g filter="url(#filter0_d_0_1)">
<rect width="175" height="175" rx="15" fill="white"/>
<rect x="0.5" y="0.5" width="174" height="174" rx="14.5" stroke="#43B8BA"/>
</g>
<path d="M44.392 35.851C44.1007 35.851 43.863 35.759 43.679 35.575C43.5103 35.391 43.426 35.1687 43.426 34.908C43.426 34.6473 43.5103 34.425 43.679 34.241C43.863 34.0417 44.1007 33.942 44.392 33.942H47.382V26.651C47.382 26.3443 47.4817 26.0913 47.681 25.892C47.8957 25.6927 48.1487 25.593 48.44 25.593C48.7313 25.593 48.9767 25.6927 49.176 25.892C49.3907 26.0913 49.498 26.3443 49.498 26.651V33.942H52.856V22.764C52.856 22.4573 52.9557 22.2043 53.155 22.005C53.3697 21.8057 53.6227 21.706 53.914 21.706C54.2207 21.706 54.4737 21.8057 54.673 22.005C54.8723 22.2043 54.972 22.4573 54.972 22.764V27.088H59.894C60.2007 27.088 60.4383 27.1877 60.607 27.387C60.791 27.571 60.883 27.801 60.883 28.077C60.883 28.353 60.791 28.5907 60.607 28.79C60.4383 28.974 60.2007 29.066 59.894 29.066H54.972V33.942H62.608C62.8993 33.942 63.1293 34.0417 63.298 34.241C63.4667 34.425 63.551 34.6473 63.551 34.908C63.551 35.1687 63.4667 35.391 63.298 35.575C63.1293 35.759 62.8993 35.851 62.608 35.851H44.392ZM44.116 25.57C43.8247 25.7233 43.5257 25.777 43.219 25.731C42.9277 25.6697 42.6977 25.501 42.529 25.225C42.3757 24.949 42.345 24.6807 42.437 24.42C42.529 24.144 42.7207 23.9293 43.012 23.776C43.9627 23.224 44.9517 22.58 45.979 21.844C47.0217 21.108 48.0183 20.3337 48.969 19.521C49.935 18.7083 50.7783 17.9417 51.499 17.221C52.1737 16.531 52.833 16.186 53.477 16.186C54.121 16.1707 54.811 16.5157 55.547 17.221C56.053 17.7117 56.6433 18.2407 57.318 18.808C57.9927 19.36 58.7057 19.9273 59.457 20.51C60.2237 21.0773 60.9903 21.614 61.757 22.12C62.539 22.626 63.275 23.063 63.965 23.431C64.2563 23.5843 64.448 23.8067 64.54 24.098C64.6473 24.3893 64.632 24.673 64.494 24.949C64.3407 25.271 64.103 25.478 63.781 25.57C63.459 25.6467 63.1217 25.5853 62.769 25.386C61.8337 24.8493 60.8447 24.2053 59.802 23.454C58.7593 22.7027 57.755 21.9207 56.789 21.108C55.8383 20.2953 55.0027 19.5287 54.282 18.808C54.0213 18.532 53.7837 18.394 53.569 18.394C53.3697 18.3787 53.132 18.5013 52.856 18.762C52.304 19.2987 51.6677 19.8813 50.947 20.51C50.2417 21.1387 49.4903 21.7673 48.693 22.396C47.911 23.0093 47.1213 23.592 46.324 24.144C45.542 24.696 44.806 25.1713 44.116 25.57ZM76.5 37.093C76.224 37.093 75.9863 37.001 75.787 36.817C75.603 36.633 75.511 36.3953 75.511 36.104V31.803C74.867 32.355 74.1157 32.9147 73.257 33.482C72.4137 34.034 71.5397 34.5553 70.635 35.046C69.7303 35.5367 68.864 35.943 68.036 36.265C67.76 36.3723 67.484 36.3953 67.208 36.334C66.9473 36.288 66.748 36.1347 66.61 35.874C66.4873 35.6133 66.472 35.345 66.564 35.069C66.6713 34.8083 66.863 34.6243 67.139 34.517C67.8597 34.2563 68.634 33.919 69.462 33.505C70.3053 33.0757 71.1333 32.6233 71.946 32.148C72.7587 31.6573 73.4717 31.1897 74.085 30.745H67.024C66.794 30.745 66.5947 30.6683 66.426 30.515C66.2573 30.3463 66.173 30.1393 66.173 29.894C66.173 29.664 66.2573 29.4647 66.426 29.296C66.5947 29.1273 66.794 29.043 67.024 29.043H75.511V27.709H69.278C69.0327 27.709 68.8257 27.6247 68.657 27.456C68.5037 27.2873 68.427 27.088 68.427 26.858C68.427 26.628 68.5037 26.4287 68.657 26.26C68.8257 26.0913 69.0327 26.007 69.278 26.007H75.511V24.742H68.312C68.082 24.742 67.8827 24.6577 67.714 24.489C67.5453 24.3203 67.461 24.121 67.461 23.891C67.461 23.661 67.5453 23.4617 67.714 23.293C67.8827 23.1243 68.082 23.04 68.312 23.04H72.268C72.13 22.7333 71.9843 22.419 71.831 22.097C71.6777 21.775 71.5473 21.5067 71.44 21.292H67.024C66.794 21.292 66.5947 21.2153 66.426 21.062C66.2573 20.8933 66.173 20.6863 66.173 20.441C66.173 20.211 66.2573 20.0193 66.426 19.866C66.5947 19.6973 66.794 19.613 67.024 19.613H70.474C70.4433 19.567 70.405 19.521 70.359 19.475C70.3283 19.429 70.2977 19.3753 70.267 19.314C70.129 19.084 69.945 18.7697 69.715 18.371C69.485 17.9723 69.2857 17.6273 69.117 17.336C68.979 17.0907 68.956 16.8453 69.048 16.6C69.14 16.3393 69.3087 16.1477 69.554 16.025C69.7993 15.9177 70.0447 15.9023 70.29 15.979C70.5353 16.0403 70.7193 16.186 70.842 16.416C70.934 16.5693 71.0567 16.7917 71.21 17.083C71.3633 17.359 71.5167 17.635 71.67 17.911C71.8233 18.187 71.9383 18.4093 72.015 18.578C72.2297 18.992 72.1607 19.337 71.808 19.613H73.464V16.554C73.464 16.2627 73.556 16.0327 73.74 15.864C73.9393 15.68 74.177 15.588 74.453 15.588C74.7137 15.588 74.936 15.68 75.12 15.864C75.3193 16.0327 75.419 16.2627 75.419 16.554V19.613H77.489V16.554C77.489 16.2627 77.581 16.0327 77.765 15.864C77.9643 15.68 78.1943 15.588 78.455 15.588C78.731 15.588 78.961 15.68 79.145 15.864C79.3443 16.0327 79.444 16.2627 79.444 16.554V19.613H80.962C80.8087 19.4597 80.732 19.2833 80.732 19.084C80.732 18.8847 80.7857 18.7007 80.893 18.532C81.0617 18.2713 81.2687 17.934 81.514 17.52C81.7593 17.0907 81.9587 16.738 82.112 16.462C82.25 16.2473 82.4417 16.1017 82.687 16.025C82.9477 15.933 83.193 15.9483 83.423 16.071C83.699 16.2243 83.8677 16.4313 83.929 16.692C84.0057 16.9373 83.975 17.1827 83.837 17.428C83.653 17.7193 83.4307 18.0567 83.17 18.44C82.9093 18.8233 82.6947 19.1453 82.526 19.406C82.4953 19.452 82.434 19.521 82.342 19.613H85.976C86.2213 19.613 86.4207 19.6973 86.574 19.866C86.7427 20.0193 86.827 20.211 86.827 20.441C86.827 20.6863 86.7427 20.8933 86.574 21.062C86.4207 21.2153 86.2213 21.292 85.976 21.292H81.583C81.4757 21.5067 81.3453 21.775 81.192 22.097C81.0387 22.419 80.893 22.7333 80.755 23.04H84.527C84.757 23.04 84.9563 23.1243 85.125 23.293C85.2937 23.4617 85.378 23.661 85.378 23.891C85.378 24.121 85.2937 24.3203 85.125 24.489C84.9563 24.6577 84.757 24.742 84.527 24.742H77.489V26.007H83.653C83.883 26.007 84.0823 26.0913 84.251 26.26C84.4197 26.4287 84.504 26.628 84.504 26.858C84.504 27.088 84.4197 27.2873 84.251 27.456C84.0823 27.6247 83.883 27.709 83.653 27.709H77.489V29.043H85.976C86.2213 29.043 86.4207 29.1273 86.574 29.296C86.7427 29.4647 86.827 29.664 86.827 29.894C86.827 30.1393 86.7427 30.3463 86.574 30.515C86.4207 30.6683 86.2213 30.745 85.976 30.745H78.8C79.4133 31.1897 80.1187 31.6573 80.916 32.148C81.7133 32.6233 82.5337 33.068 83.377 33.482C84.2203 33.896 85.0253 34.241 85.792 34.517C86.0833 34.6243 86.2673 34.8083 86.344 35.069C86.436 35.345 86.4207 35.6133 86.298 35.874C86.16 36.1347 85.9607 36.2957 85.7 36.357C85.4393 36.4183 85.171 36.3953 84.895 36.288C84.1437 35.9967 83.3157 35.6057 82.411 35.115C81.5217 34.6243 80.64 34.0953 79.766 33.528C78.9073 32.9453 78.1483 32.3933 77.489 31.872V36.104C77.489 36.3953 77.3893 36.633 77.19 36.817C77.006 37.001 76.776 37.093 76.5 37.093ZM74.407 23.04H78.593C78.685 22.8407 78.8077 22.58 78.961 22.258C79.1143 21.936 79.26 21.614 79.398 21.292H73.625C73.763 21.5987 73.901 21.913 74.039 22.235C74.1923 22.557 74.315 22.8253 74.407 23.04ZM94.9 36.012C93.658 36.012 92.6843 35.8893 91.979 35.644C91.2737 35.414 90.7677 35 90.461 34.402C90.1697 33.804 90.024 32.9607 90.024 31.872V28.468C90.024 28.146 90.1313 27.8853 90.346 27.686C90.5607 27.4867 90.8137 27.387 91.105 27.387C91.4117 27.387 91.6647 27.4867 91.864 27.686C92.0787 27.8853 92.186 28.146 92.186 28.468V31.757C92.186 32.401 92.2627 32.884 92.416 33.206C92.5847 33.528 92.8683 33.7427 93.267 33.85C93.681 33.942 94.256 33.988 94.992 33.988H98.419V26.145H95.682C94.44 26.145 93.4663 26.03 92.761 25.8C92.0557 25.5547 91.5497 25.133 91.243 24.535C90.9517 23.937 90.806 23.0937 90.806 22.005V18.647C90.806 18.325 90.9133 18.0643 91.128 17.865C91.3427 17.6657 91.5957 17.566 91.887 17.566C92.1937 17.566 92.4467 17.6657 92.646 17.865C92.8607 18.0643 92.968 18.325 92.968 18.647V21.89C92.968 22.534 93.0447 23.017 93.198 23.339C93.3667 23.661 93.6503 23.8757 94.049 23.983C94.463 24.075 95.038 24.121 95.774 24.121H98.419V16.876C98.419 16.554 98.5187 16.2933 98.718 16.094C98.9327 15.8947 99.1933 15.795 99.5 15.795C99.8067 15.795 100.06 15.8947 100.259 16.094C100.474 16.2933 100.581 16.554 100.581 16.876V24.121H103.157C103.893 24.121 104.46 24.075 104.859 23.983C105.273 23.8757 105.557 23.661 105.71 23.339C105.879 23.017 105.963 22.534 105.963 21.89V18.647C105.963 18.325 106.07 18.0643 106.285 17.865C106.5 17.6657 106.753 17.566 107.044 17.566C107.351 17.566 107.604 17.6657 107.803 17.865C108.018 18.0643 108.125 18.325 108.125 18.647V22.005C108.125 23.0937 107.979 23.937 107.688 24.535C107.397 25.133 106.891 25.5547 106.17 25.8C105.465 26.03 104.491 26.145 103.249 26.145H100.581V33.988H103.985C104.721 33.988 105.288 33.942 105.687 33.85C106.086 33.7427 106.362 33.528 106.515 33.206C106.684 32.884 106.768 32.401 106.768 31.757V28.468C106.768 28.146 106.875 27.8853 107.09 27.686C107.305 27.4867 107.558 27.387 107.849 27.387C108.156 27.387 108.416 27.4867 108.631 27.686C108.846 27.8853 108.953 28.146 108.953 28.468V31.872C108.953 32.9607 108.807 33.804 108.516 34.402C108.225 35 107.726 35.414 107.021 35.644C106.316 35.8893 105.342 36.012 104.1 36.012H94.9ZM122.132 36.633C121.028 36.633 120.146 36.5103 119.487 36.265C118.843 36.035 118.383 35.621 118.107 35.023C117.831 34.425 117.693 33.597 117.693 32.539C117.693 31.4657 117.831 30.6377 118.107 30.055C118.383 29.457 118.843 29.043 119.487 28.813C120.146 28.5677 121.028 28.445 122.132 28.445H122.339V21.867C122.339 21.5143 122.446 21.2383 122.661 21.039C122.876 20.8397 123.129 20.74 123.42 20.74C123.727 20.74 123.98 20.8397 124.179 21.039C124.394 21.2383 124.501 21.5143 124.501 21.867V23.707H130.987C131.294 23.707 131.531 23.8067 131.7 24.006C131.884 24.19 131.976 24.4123 131.976 24.673C131.976 24.949 131.884 25.1867 131.7 25.386C131.531 25.57 131.294 25.662 130.987 25.662H124.501V28.445H125.904C127.023 28.445 127.905 28.5677 128.549 28.813C129.193 29.043 129.653 29.457 129.929 30.055C130.205 30.6377 130.343 31.4657 130.343 32.539C130.343 33.597 130.205 34.425 129.929 35.023C129.653 35.621 129.193 36.035 128.549 36.265C127.905 36.5103 127.023 36.633 125.904 36.633H122.132ZM112.196 36.265C111.92 36.1423 111.744 35.943 111.667 35.667C111.59 35.4063 111.621 35.1533 111.759 34.908C112.526 33.5893 113.07 32.1097 113.392 30.469C113.714 28.813 113.875 26.8197 113.875 24.489V23.224C113.875 22.074 114.028 21.1693 114.335 20.51C114.642 19.8353 115.155 19.3523 115.876 19.061C116.597 18.7697 117.57 18.624 118.797 18.624H122.063V16.6C122.063 16.278 122.17 16.025 122.385 15.841C122.615 15.6417 122.876 15.542 123.167 15.542C123.474 15.542 123.734 15.6417 123.949 15.841C124.179 16.025 124.294 16.278 124.294 16.6V18.624H131.953C132.244 18.624 132.467 18.7237 132.62 18.923C132.789 19.107 132.873 19.3293 132.873 19.59C132.873 19.8353 132.789 20.0577 132.62 20.257C132.467 20.4563 132.244 20.556 131.953 20.556H118.889C118.092 20.556 117.471 20.6327 117.026 20.786C116.597 20.924 116.298 21.1847 116.129 21.568C115.96 21.9513 115.876 22.5033 115.876 23.224V24.512C115.876 26.8887 115.707 28.9817 115.37 30.791C115.048 32.585 114.473 34.2487 113.645 35.782C113.507 36.0427 113.3 36.2113 113.024 36.288C112.748 36.38 112.472 36.3723 112.196 36.265ZM122.316 34.724H125.72C126.395 34.724 126.916 34.678 127.284 34.586C127.652 34.4787 127.905 34.2717 128.043 33.965C128.196 33.643 128.273 33.1677 128.273 32.539C128.273 31.9103 128.196 31.4427 128.043 31.136C127.905 30.814 127.652 30.607 127.284 30.515C126.916 30.4077 126.395 30.354 125.72 30.354H122.316C121.641 30.354 121.112 30.4077 120.729 30.515C120.361 30.607 120.108 30.814 119.97 31.136C119.832 31.4427 119.763 31.9103 119.763 32.539C119.763 33.1677 119.832 33.643 119.97 33.965C120.108 34.2717 120.361 34.4787 120.729 34.586C121.112 34.678 121.641 34.724 122.316 34.724Z" fill="black"/>
<path d="M16 41H158V152C158 157.523 153.523 162 148 162H26C20.4772 162 16 157.523 16 152V41Z" fill="#D9D9D9"/>
<defs>
<filter id="filter0_d_0_1" x="0" y="0" width="182" height="183" filterUnits="userSpaceOnUse" color-interpolation-filters="sRGB">
<feFlood flood-opacity="0" result="BackgroundImageFix"/>
<feColorMatrix in="SourceAlpha" type="matrix" values="0 0 0 0 0 0 0 0 0 0 0 0 0 0 0 0 0 0 127 0" result="hardAlpha"/>
<feOffset dx="7" dy="8"/>
<feComposite in2="hardAlpha" operator="out"/>
<feColorMatrix type="matrix" values="0 0 0 0 0.262745 0 0 0 0 0.721569 0 0 0 0 0.729412 0 0 0 1 0"/>
<feBlend mode="normal" in2="BackgroundImageFix" result="effect1_dropShadow_0_1"/>
<feBlend mode="normal" in="SourceGraphic" in2="effect1_dropShadow_0_1" result="shape"/>
</filter>
</defs>
</svg>
