<svg width="182" height="183" viewBox="0 0 182 183" fill="none" xmlns="http://www.w3.org/2000/svg">
<g filter="url(#filter0_d_0_1)">
<rect width="175" height="175" rx="15" fill="white"/>
<rect x="0.5" y="0.5" width="174" height="174" rx="14.5" stroke="#43B8BA"/>
</g>
<path d="M107.178 32.001C106.917 32.001 106.695 31.9167 106.511 31.748C106.327 31.5793 106.235 31.3493 106.235 31.058V27.654H105.016C104.817 27.654 104.64 27.5773 104.487 27.424C104.349 27.2707 104.28 27.0943 104.28 26.895C104.28 26.6803 104.349 26.504 104.487 26.366C104.64 26.2127 104.817 26.136 105.016 26.136H106.235V23.56C106.235 22.8547 106.335 22.295 106.534 21.881C106.733 21.4517 107.071 21.145 107.546 20.961C108.037 20.7617 108.719 20.662 109.593 20.662H110.398V19.696H105.338C105.123 19.696 104.939 19.6193 104.786 19.466C104.633 19.3127 104.556 19.1363 104.556 18.937C104.556 18.7223 104.633 18.5383 104.786 18.385C104.939 18.2317 105.123 18.155 105.338 18.155H108.19V16.913H106.327C106.128 16.913 105.951 16.844 105.798 16.706C105.645 16.5527 105.568 16.3763 105.568 16.177C105.568 15.9623 105.645 15.786 105.798 15.648C105.951 15.4947 106.128 15.418 106.327 15.418H108.19V14.337H105.568C105.369 14.337 105.192 14.2603 105.039 14.107C104.901 13.9537 104.832 13.7773 104.832 13.578C104.832 13.3633 104.901 13.187 105.039 13.049C105.192 12.8957 105.369 12.819 105.568 12.819H108.19V11.531C108.19 11.255 108.282 11.0327 108.466 10.864C108.65 10.6953 108.865 10.611 109.11 10.611C109.371 10.611 109.585 10.6953 109.754 10.864C109.923 11.0327 110.007 11.255 110.007 11.531V12.819H112.583V11.531C112.583 11.255 112.675 11.0327 112.859 10.864C113.043 10.6953 113.258 10.611 113.503 10.611C113.748 10.611 113.955 10.6953 114.124 10.864C114.308 11.0327 114.4 11.255 114.4 11.531V12.819H117.091C117.306 12.819 117.482 12.8957 117.62 13.049C117.758 13.187 117.827 13.3633 117.827 13.578C117.827 13.7773 117.758 13.9537 117.62 14.107C117.482 14.2603 117.306 14.337 117.091 14.337H114.4V15.418H116.47C116.685 15.418 116.861 15.4947 116.999 15.648C117.137 15.786 117.206 15.9623 117.206 16.177C117.206 16.3763 117.137 16.5527 116.999 16.706C116.861 16.844 116.685 16.913 116.47 16.913H114.4V18.155H117.39C117.605 18.155 117.781 18.2317 117.919 18.385C118.072 18.5383 118.149 18.7223 118.149 18.937C118.149 19.1363 118.072 19.3127 117.919 19.466C117.781 19.6193 117.605 19.696 117.39 19.696H112.215V20.662H113.02C114.339 20.662 115.228 20.8843 115.688 21.329C116.163 21.7583 116.401 22.502 116.401 23.56V26.136H117.712C117.927 26.136 118.103 26.2127 118.241 26.366C118.394 26.504 118.471 26.6803 118.471 26.895C118.471 27.0943 118.394 27.2707 118.241 27.424C118.103 27.5773 117.927 27.654 117.712 27.654H116.401V29.218C116.401 30.2147 116.171 30.92 115.711 31.334C115.266 31.7633 114.461 31.978 113.296 31.978C113.035 31.978 112.821 31.886 112.652 31.702C112.499 31.5333 112.407 31.3263 112.376 31.081C112.361 30.8203 112.437 30.598 112.606 30.414C112.775 30.2453 113.005 30.1533 113.296 30.138C113.848 30.1073 114.185 30.0383 114.308 29.931C114.446 29.8083 114.515 29.517 114.515 29.057V27.654H108.098V31.058C108.098 31.3493 108.006 31.5793 107.822 31.748C107.653 31.9167 107.439 32.001 107.178 32.001ZM100.968 31.242C100.109 31.242 99.4347 31.1347 98.944 30.92C98.4687 30.7207 98.1313 30.3833 97.932 29.908C97.748 29.4173 97.656 28.7503 97.656 27.907C97.656 27.0637 97.748 26.4043 97.932 25.929C98.1313 25.4537 98.4687 25.1163 98.944 24.917C99.4347 24.7023 100.109 24.595 100.968 24.595C101.827 24.595 102.494 24.7023 102.969 24.917C103.46 25.1163 103.797 25.4537 103.981 25.929C104.18 26.4043 104.28 27.0637 104.28 27.907C104.28 28.7503 104.18 29.4173 103.981 29.908C103.797 30.3833 103.46 30.7207 102.969 30.92C102.494 31.1347 101.827 31.242 100.968 31.242ZM97.334 16.798C97.104 16.798 96.9047 16.7137 96.736 16.545C96.5827 16.361 96.506 16.154 96.506 15.924C96.506 15.6787 96.5827 15.4717 96.736 15.303C96.9047 15.119 97.104 15.027 97.334 15.027H104.326C104.556 15.027 104.755 15.119 104.924 15.303C105.093 15.4717 105.177 15.6787 105.177 15.924C105.177 16.154 105.093 16.361 104.924 16.545C104.755 16.7137 104.556 16.798 104.326 16.798H97.334ZM98.484 13.624C98.2387 13.624 98.0317 13.532 97.863 13.348C97.6943 13.164 97.61 12.957 97.61 12.727C97.61 12.4817 97.6943 12.2747 97.863 12.106C98.0317 11.922 98.2387 11.83 98.484 11.83H103.291C103.521 11.83 103.72 11.922 103.889 12.106C104.058 12.2747 104.142 12.4817 104.142 12.727C104.142 12.957 104.058 13.164 103.889 13.348C103.72 13.532 103.521 13.624 103.291 13.624H98.484ZM98.438 23.169C98.208 23.169 98.0087 23.0847 97.84 22.916C97.6867 22.732 97.61 22.525 97.61 22.295C97.61 22.0497 97.6867 21.8427 97.84 21.674C98.0087 21.49 98.208 21.398 98.438 21.398H103.291C103.536 21.398 103.736 21.49 103.889 21.674C104.058 21.8427 104.142 22.0497 104.142 22.295C104.142 22.525 104.058 22.732 103.889 22.916C103.736 23.0847 103.536 23.169 103.291 23.169H98.438ZM98.438 19.995C98.208 19.995 98.0087 19.9107 97.84 19.742C97.6867 19.558 97.61 19.3433 97.61 19.098C97.61 18.868 97.6867 18.6687 97.84 18.5C98.0087 18.316 98.208 18.224 98.438 18.224H103.291C103.536 18.224 103.736 18.316 103.889 18.5C104.058 18.6687 104.142 18.868 104.142 19.098C104.142 19.3433 104.058 19.558 103.889 19.742C103.736 19.9107 103.536 19.995 103.291 19.995H98.438ZM100.968 29.54C101.535 29.54 101.911 29.448 102.095 29.264C102.279 29.0647 102.371 28.6123 102.371 27.907C102.371 27.2323 102.279 26.7953 102.095 26.596C101.911 26.3967 101.535 26.297 100.968 26.297C100.401 26.297 100.025 26.3967 99.841 26.596C99.657 26.7953 99.565 27.2323 99.565 27.907C99.565 28.6123 99.657 29.0647 99.841 29.264C100.025 29.448 100.401 29.54 100.968 29.54ZM110.007 18.155H112.583V16.913H110.007V18.155ZM108.098 26.136H110.398V24.848H108.098V26.136ZM112.215 26.136H114.515V24.848H112.215V26.136ZM110.007 15.418H112.583V14.337H110.007V15.418ZM112.215 23.353H114.515C114.5 22.8623 114.385 22.5403 114.17 22.387C113.971 22.2337 113.587 22.157 113.02 22.157H112.215V23.353ZM108.098 23.353H110.398V22.157H109.593C109.026 22.157 108.642 22.2337 108.443 22.387C108.244 22.5403 108.129 22.8623 108.098 23.353ZM123.922 32.116C123.661 32.116 123.431 32.024 123.232 31.84C123.033 31.6713 122.918 31.4413 122.887 31.15C122.872 30.8893 122.956 30.6517 123.14 30.437C123.339 30.2223 123.585 30.1073 123.876 30.092C124.581 30.0613 125.026 29.977 125.21 29.839C125.409 29.701 125.509 29.4173 125.509 28.988V28.298C124.758 28.4053 124.014 28.505 123.278 28.597C122.542 28.689 121.875 28.7733 121.277 28.85C120.97 28.8807 120.717 28.827 120.518 28.689C120.334 28.5357 120.227 28.3133 120.196 28.022C120.181 27.7613 120.25 27.5467 120.403 27.378C120.572 27.194 120.802 27.0943 121.093 27.079C121.676 27.0177 122.358 26.9487 123.14 26.872C123.922 26.78 124.712 26.688 125.509 26.596V25.147H120.955C120.725 25.147 120.526 25.0703 120.357 24.917C120.204 24.7483 120.127 24.549 120.127 24.319C120.127 24.089 120.204 23.8973 120.357 23.744C120.526 23.5753 120.725 23.491 120.955 23.491H125.509V22.594C124.39 22.7013 123.217 22.7703 121.99 22.801C121.714 22.801 121.484 22.7473 121.3 22.64C121.131 22.5173 121.032 22.318 121.001 22.042C120.986 21.812 121.055 21.6203 121.208 21.467C121.361 21.2983 121.584 21.2063 121.875 21.191C123.117 21.1757 124.336 21.1067 125.532 20.984C126.743 20.8613 127.87 20.7003 128.913 20.501C129.174 20.455 129.404 20.4627 129.603 20.524C129.802 20.5853 129.94 20.7387 130.017 20.984C130.094 21.2293 130.071 21.4517 129.948 21.651C129.841 21.8503 129.657 21.9807 129.396 22.042C129.089 22.1033 128.775 22.157 128.453 22.203C128.131 22.249 127.801 22.295 127.464 22.341V23.491H131.788C131.696 23.0003 131.627 22.4867 131.581 21.95C131.535 21.398 131.504 20.8383 131.489 20.271H120.863C120.633 20.271 120.434 20.1943 120.265 20.041C120.112 19.8723 120.035 19.673 120.035 19.443C120.035 19.213 120.112 19.0213 120.265 18.868C120.434 18.6993 120.633 18.615 120.863 18.615H129.396V17.465H123.508C123.278 17.465 123.079 17.3883 122.91 17.235C122.757 17.0663 122.68 16.867 122.68 16.637C122.68 16.407 122.757 16.2153 122.91 16.062C123.079 15.8933 123.278 15.809 123.508 15.809H129.396V14.728H121.53C121.3 14.728 121.101 14.6437 120.932 14.475C120.779 14.3063 120.702 14.1147 120.702 13.9C120.702 13.67 120.779 13.4783 120.932 13.325C121.101 13.1563 121.3 13.072 121.53 13.072H126.245C126.122 12.842 125.984 12.612 125.831 12.382C125.693 12.152 125.586 11.9757 125.509 11.853C125.386 11.6537 125.34 11.4313 125.371 11.186C125.402 10.9407 125.54 10.7413 125.785 10.588C126.015 10.45 126.26 10.3963 126.521 10.427C126.797 10.4577 127.012 10.5957 127.165 10.841C127.272 10.979 127.41 11.1937 127.579 11.485C127.748 11.761 127.916 12.0523 128.085 12.359C128.254 12.6503 128.392 12.888 128.499 13.072H132.317C132.44 12.8727 132.585 12.635 132.754 12.359C132.923 12.0677 133.084 11.784 133.237 11.508C133.39 11.232 133.505 11.0173 133.582 10.864C133.735 10.6187 133.95 10.4807 134.226 10.45C134.502 10.404 134.755 10.4423 134.985 10.565C135.246 10.7183 135.399 10.9177 135.445 11.163C135.506 11.4083 135.476 11.6307 135.353 11.83C135.276 11.968 135.161 12.152 135.008 12.382C134.87 12.5967 134.724 12.8267 134.571 13.072H139.493C139.723 13.072 139.915 13.1563 140.068 13.325C140.237 13.4783 140.321 13.67 140.321 13.9C140.321 14.1147 140.237 14.3063 140.068 14.475C139.915 14.6437 139.723 14.728 139.493 14.728H131.558V15.809H137.446C137.676 15.809 137.868 15.8933 138.021 16.062C138.19 16.2153 138.274 16.407 138.274 16.637C138.274 16.867 138.19 17.0663 138.021 17.235C137.868 17.3883 137.676 17.465 137.446 17.465H131.558V18.615H140.045C140.275 18.615 140.467 18.6993 140.62 18.868C140.789 19.0213 140.873 19.213 140.873 19.443C140.873 19.673 140.789 19.8723 140.62 20.041C140.467 20.1943 140.275 20.271 140.045 20.271H133.375C133.39 20.8383 133.421 21.398 133.467 21.95C133.528 22.4867 133.605 23.0003 133.697 23.491H140.022C140.252 23.491 140.444 23.5753 140.597 23.744C140.766 23.8973 140.85 24.089 140.85 24.319C140.85 24.549 140.766 24.7483 140.597 24.917C140.444 25.0703 140.252 25.147 140.022 25.147H134.134C134.226 25.4383 134.333 25.722 134.456 25.998C134.579 26.2587 134.709 26.5193 134.847 26.78C135.154 26.5653 135.445 26.3583 135.721 26.159C136.012 25.9443 136.296 25.722 136.572 25.492C136.787 25.3233 137.024 25.2313 137.285 25.216C137.546 25.2007 137.76 25.2927 137.929 25.492C138.098 25.6913 138.174 25.9213 138.159 26.182C138.159 26.4273 138.067 26.6343 137.883 26.803C137.576 27.0637 137.254 27.3243 136.917 27.585C136.58 27.8303 136.235 28.068 135.882 28.298C136.357 28.8193 136.871 29.2563 137.423 29.609C137.745 29.8083 137.99 29.8927 138.159 29.862C138.343 29.816 138.519 29.6397 138.688 29.333C138.811 29.0877 138.926 28.8577 139.033 28.643C139.156 28.413 139.263 28.206 139.355 28.022C139.493 27.7613 139.692 27.6003 139.953 27.539C140.214 27.4623 140.467 27.493 140.712 27.631C140.942 27.7537 141.088 27.9377 141.149 28.183C141.21 28.4283 141.18 28.6813 141.057 28.942C140.95 29.1413 140.827 29.379 140.689 29.655C140.566 29.9157 140.421 30.184 140.252 30.46C139.731 31.3493 139.163 31.84 138.55 31.932C137.952 32.0393 137.224 31.817 136.365 31.265C135.982 31.0043 135.606 30.713 135.238 30.391C134.885 30.069 134.548 29.701 134.226 29.287C132.861 30.023 131.405 30.6133 129.856 31.058C129.105 31.242 128.637 31.0657 128.453 30.529C128.361 30.2683 128.369 30.0153 128.476 29.77C128.599 29.5247 128.821 29.3637 129.143 29.287C130.538 28.9497 131.895 28.436 133.214 27.746C133.015 27.3473 132.823 26.9333 132.639 26.504C132.455 26.0747 132.294 25.6223 132.156 25.147H127.464V26.343C127.924 26.2663 128.353 26.205 128.752 26.159C129.151 26.0977 129.503 26.044 129.81 25.998C130.025 25.9673 130.224 26.0133 130.408 26.136C130.592 26.2587 130.692 26.435 130.707 26.665C130.738 26.9103 130.684 27.1173 130.546 27.286C130.408 27.4393 130.216 27.539 129.971 27.585C129.618 27.6463 129.227 27.7153 128.798 27.792C128.384 27.8533 127.939 27.9223 127.464 27.999V29.218C127.464 30.2913 127.196 31.0427 126.659 31.472C126.122 31.9013 125.21 32.116 123.922 32.116ZM136.733 23.146C136.518 22.9313 136.273 22.7013 135.997 22.456C135.721 22.2107 135.468 21.9807 135.238 21.766C135.085 21.5973 134.993 21.4057 134.962 21.191C134.947 20.961 135.016 20.7693 135.169 20.616C135.338 20.432 135.537 20.3323 135.767 20.317C135.997 20.3017 136.204 20.3707 136.388 20.524C136.664 20.754 136.948 20.9917 137.239 21.237C137.53 21.4823 137.776 21.7123 137.975 21.927C138.159 22.0957 138.251 22.295 138.251 22.525C138.266 22.755 138.19 22.962 138.021 23.146C137.852 23.33 137.638 23.422 137.377 23.422C137.132 23.4067 136.917 23.3147 136.733 23.146ZM157.088 31.909C156.827 31.909 156.605 31.8247 156.421 31.656C156.237 31.4873 156.145 31.2573 156.145 30.966V25.906C155.424 26.7493 154.619 27.5773 153.73 28.39C152.841 29.1873 151.99 29.862 151.177 30.414C150.932 30.5673 150.663 30.6287 150.372 30.598C150.081 30.5827 149.858 30.4677 149.705 30.253C149.567 30.0383 149.513 29.8083 149.544 29.563C149.59 29.3023 149.72 29.103 149.935 28.965C150.533 28.5817 151.154 28.1293 151.798 27.608C152.457 27.0713 153.101 26.5117 153.73 25.929C154.359 25.331 154.918 24.756 155.409 24.204H155.179C153.876 24.204 152.956 23.951 152.419 23.445C151.898 22.939 151.637 22.088 151.637 20.892V19.696C151.637 18.5 151.898 17.6567 152.419 17.166C152.956 16.66 153.876 16.407 155.179 16.407H156.145V15.096H151.131C150.886 15.096 150.679 15.004 150.51 14.82C150.357 14.636 150.28 14.429 150.28 14.199C150.28 13.9537 150.357 13.7467 150.51 13.578C150.679 13.4093 150.886 13.325 151.131 13.325H156.145V11.554C156.145 11.2627 156.237 11.0327 156.421 10.864C156.605 10.6953 156.827 10.611 157.088 10.611C157.349 10.611 157.571 10.6953 157.755 10.864C157.939 11.0327 158.031 11.2627 158.031 11.554V13.325H163.298C163.559 13.325 163.766 13.4093 163.919 13.578C164.072 13.7467 164.149 13.9537 164.149 14.199C164.149 14.429 164.072 14.636 163.919 14.82C163.766 15.004 163.559 15.096 163.298 15.096H158.031V16.407H159.043C160.346 16.407 161.266 16.66 161.803 17.166C162.34 17.6567 162.608 18.5 162.608 19.696V20.892C162.608 22.088 162.34 22.939 161.803 23.445C161.266 23.951 160.346 24.204 159.043 24.204H158.79C159.296 24.7407 159.856 25.285 160.469 25.837C161.098 26.3737 161.734 26.8873 162.378 27.378C163.037 27.8533 163.658 28.2673 164.241 28.62C164.471 28.758 164.609 28.9573 164.655 29.218C164.716 29.4787 164.678 29.7163 164.54 29.931C164.387 30.1763 164.164 30.3143 163.873 30.345C163.582 30.3757 163.313 30.3143 163.068 30.161C162.577 29.8237 162.033 29.4173 161.435 28.942C160.852 28.4667 160.262 27.953 159.664 27.401C159.081 26.849 158.537 26.3047 158.031 25.768V30.966C158.031 31.2573 157.939 31.4873 157.755 31.656C157.571 31.8247 157.349 31.909 157.088 31.909ZM147.244 31.84C146.999 31.84 146.784 31.7557 146.6 31.587C146.416 31.4183 146.324 31.1883 146.324 30.897V21.674C146.002 22.364 145.665 23.0233 145.312 23.652C144.975 24.2807 144.653 24.825 144.346 25.285C144.193 25.4997 143.986 25.6377 143.725 25.699C143.48 25.7603 143.242 25.722 143.012 25.584C142.813 25.4613 142.682 25.2773 142.621 25.032C142.575 24.7713 142.629 24.5413 142.782 24.342C143.089 23.928 143.411 23.4297 143.748 22.847C144.085 22.2643 144.415 21.651 144.737 21.007C145.074 20.3477 145.381 19.7113 145.657 19.098C145.933 18.4693 146.155 17.9097 146.324 17.419V17.281H143.748C143.487 17.281 143.273 17.1967 143.104 17.028C142.951 16.8593 142.874 16.6523 142.874 16.407C142.874 16.1617 142.951 15.9547 143.104 15.786C143.273 15.6173 143.487 15.533 143.748 15.533H146.324V11.623C146.324 11.3317 146.416 11.1093 146.6 10.956C146.784 10.7873 146.999 10.703 147.244 10.703C147.505 10.703 147.719 10.7873 147.888 10.956C148.072 11.1093 148.164 11.3317 148.164 11.623V15.533H150.188C150.449 15.533 150.656 15.6173 150.809 15.786C150.978 15.9547 151.062 16.1617 151.062 16.407C151.062 16.6523 150.978 16.8593 150.809 17.028C150.656 17.1967 150.449 17.281 150.188 17.281H148.164V19.029C148.379 19.3203 148.655 19.696 148.992 20.156C149.345 20.6007 149.697 21.0377 150.05 21.467C150.418 21.8963 150.725 22.2413 150.97 22.502C151.139 22.686 151.215 22.9083 151.2 23.169C151.2 23.4143 151.108 23.6213 150.924 23.79C150.74 23.9587 150.525 24.0353 150.28 24.02C150.05 23.9893 149.851 23.882 149.682 23.698C149.483 23.4527 149.245 23.1537 148.969 22.801C148.693 22.4483 148.425 22.088 148.164 21.72V30.897C148.164 31.1883 148.072 31.4183 147.888 31.587C147.719 31.7557 147.505 31.84 147.244 31.84ZM158.031 22.594H158.951C159.641 22.594 160.101 22.4867 160.331 22.272C160.576 22.0573 160.707 21.6663 160.722 21.099H158.031V22.594ZM158.031 19.489H160.722C160.707 18.9217 160.576 18.5383 160.331 18.339C160.101 18.1243 159.641 18.017 158.951 18.017H158.031V19.489ZM155.294 22.594H156.145V21.099H153.523C153.538 21.6663 153.661 22.0573 153.891 22.272C154.121 22.4867 154.589 22.594 155.294 22.594ZM153.523 19.489H156.145V18.017H155.294C154.604 18.017 154.136 18.1243 153.891 18.339C153.661 18.5383 153.538 18.9217 153.523 19.489ZM148.9 54.012C147.658 54.012 146.684 53.8893 145.979 53.644C145.274 53.414 144.768 53 144.461 52.402C144.17 51.804 144.024 50.9607 144.024 49.872V46.468C144.024 46.146 144.131 45.8853 144.346 45.686C144.561 45.4867 144.814 45.387 145.105 45.387C145.412 45.387 145.665 45.4867 145.864 45.686C146.079 45.8853 146.186 46.146 146.186 46.468V49.757C146.186 50.401 146.263 50.884 146.416 51.206C146.585 51.528 146.868 51.7427 147.267 51.85C147.681 51.942 148.256 51.988 148.992 51.988H152.419V44.145H149.682C148.44 44.145 147.466 44.03 146.761 43.8C146.056 43.5547 145.55 43.133 145.243 42.535C144.952 41.937 144.806 41.0937 144.806 40.005V36.647C144.806 36.325 144.913 36.0643 145.128 35.865C145.343 35.6657 145.596 35.566 145.887 35.566C146.194 35.566 146.447 35.6657 146.646 35.865C146.861 36.0643 146.968 36.325 146.968 36.647V39.89C146.968 40.534 147.045 41.017 147.198 41.339C147.367 41.661 147.65 41.8757 148.049 41.983C148.463 42.075 149.038 42.121 149.774 42.121H152.419V34.876C152.419 34.554 152.519 34.2933 152.718 34.094C152.933 33.8947 153.193 33.795 153.5 33.795C153.807 33.795 154.06 33.8947 154.259 34.094C154.474 34.2933 154.581 34.554 154.581 34.876V42.121H157.157C157.893 42.121 158.46 42.075 158.859 41.983C159.273 41.8757 159.557 41.661 159.71 41.339C159.879 41.017 159.963 40.534 159.963 39.89V36.647C159.963 36.325 160.07 36.0643 160.285 35.865C160.5 35.6657 160.753 35.566 161.044 35.566C161.351 35.566 161.604 35.6657 161.803 35.865C162.018 36.0643 162.125 36.325 162.125 36.647V40.005C162.125 41.0937 161.979 41.937 161.688 42.535C161.397 43.133 160.891 43.5547 160.17 43.8C159.465 44.03 158.491 44.145 157.249 44.145H154.581V51.988H157.985C158.721 51.988 159.288 51.942 159.687 51.85C160.086 51.7427 160.362 51.528 160.515 51.206C160.684 50.884 160.768 50.401 160.768 49.757V46.468C160.768 46.146 160.875 45.8853 161.09 45.686C161.305 45.4867 161.558 45.387 161.849 45.387C162.156 45.387 162.416 45.4867 162.631 45.686C162.846 45.8853 162.953 46.146 162.953 46.468V49.872C162.953 50.9607 162.807 51.804 162.516 52.402C162.225 53 161.726 53.414 161.021 53.644C160.316 53.8893 159.342 54.012 158.1 54.012H148.9ZM147.612 77.725C147.336 77.7557 147.091 77.702 146.876 77.564C146.661 77.4413 146.531 77.2343 146.485 76.943C146.439 76.6823 146.493 76.4523 146.646 76.253C146.815 76.069 147.029 75.954 147.29 75.908L150.027 75.448V70.572H146.692C146.508 71.768 146.24 72.9027 145.887 73.976C145.55 75.034 145.09 76.0843 144.507 77.127C144.369 77.3723 144.154 77.5487 143.863 77.656C143.587 77.7633 143.303 77.748 143.012 77.61C142.767 77.4873 142.606 77.2957 142.529 77.035C142.452 76.7743 142.483 76.5213 142.621 76.276C143.25 75.2027 143.74 74.0833 144.093 72.918C144.446 71.7527 144.691 70.4877 144.829 69.123C144.982 67.7583 145.059 66.248 145.059 64.592V61.119C145.059 60.153 145.174 59.4017 145.404 58.865C145.649 58.3283 146.063 57.9527 146.646 57.738C147.244 57.5233 148.064 57.416 149.107 57.416H158.744C159.679 57.416 160.392 57.5003 160.883 57.669C161.374 57.8223 161.711 58.0907 161.895 58.474C162.079 58.8573 162.171 59.4017 162.171 60.107C162.171 60.797 162.079 61.3413 161.895 61.74C161.711 62.1233 161.374 62.3993 160.883 62.568C160.408 62.7367 159.702 62.821 158.767 62.821H158.353V64.96H161.665C161.926 64.96 162.125 65.0443 162.263 65.213C162.416 65.3663 162.493 65.558 162.493 65.788C162.493 66.0027 162.416 66.1943 162.263 66.363C162.125 66.5163 161.926 66.593 161.665 66.593H158.353V68.801H162.838C163.114 68.801 163.329 68.8853 163.482 69.054C163.651 69.2227 163.735 69.4373 163.735 69.698C163.735 69.9433 163.651 70.1503 163.482 70.319C163.329 70.4877 163.114 70.572 162.838 70.572H161.504C161.673 70.756 161.749 70.9707 161.734 71.216C161.719 71.4613 161.619 71.6683 161.435 71.837C161.159 72.0823 160.768 72.389 160.262 72.757C159.756 73.125 159.296 73.447 158.882 73.723C159.511 74.1523 160.185 74.5433 160.906 74.896C161.642 75.2333 162.409 75.54 163.206 75.816C163.482 75.908 163.674 76.0767 163.781 76.322C163.904 76.5673 163.904 76.8203 163.781 77.081C163.658 77.357 163.451 77.541 163.16 77.633C162.884 77.725 162.608 77.7173 162.332 77.61C160.431 76.9047 158.767 76 157.341 74.896C155.93 73.7767 154.773 72.3353 153.868 70.572H152.028V75.103C152.779 74.9803 153.446 74.8653 154.029 74.758C154.612 74.6507 154.949 74.5893 155.041 74.574C155.348 74.5127 155.601 74.551 155.8 74.689C155.999 74.8117 156.114 75.0033 156.145 75.264C156.206 75.5093 156.176 75.7317 156.053 75.931C155.946 76.1303 155.746 76.253 155.455 76.299C155.363 76.3143 155.118 76.3527 154.719 76.414C154.336 76.4907 153.86 76.5827 153.293 76.69C152.726 76.7973 152.128 76.9047 151.499 77.012C150.87 77.1347 150.272 77.242 149.705 77.334C149.153 77.4413 148.685 77.5257 148.302 77.587C147.919 77.6637 147.689 77.7097 147.612 77.725ZM147.06 61.096H158.583C159.227 61.096 159.641 61.0347 159.825 60.912C160.009 60.7893 160.101 60.5287 160.101 60.13C160.101 59.716 160.009 59.4477 159.825 59.325C159.641 59.2023 159.235 59.141 158.606 59.141H149.222C148.363 59.141 147.788 59.2637 147.497 59.509C147.206 59.7543 147.06 60.2373 147.06 60.958V61.096ZM146.899 68.801H151.039V66.593H148.532C148.287 66.593 148.087 66.5163 147.934 66.363C147.781 66.1943 147.704 66.0027 147.704 65.788C147.704 65.558 147.781 65.3663 147.934 65.213C148.087 65.0443 148.287 64.96 148.532 64.96H151.039V62.821H147.06V64.546C147.06 65.3127 147.045 66.0487 147.014 66.754C146.999 67.4593 146.96 68.1417 146.899 68.801ZM152.994 68.801H156.421V66.593H152.994V68.801ZM152.994 64.96H156.421V62.821H152.994V64.96ZM157.479 72.55C157.755 72.3507 158.062 72.136 158.399 71.906C158.736 71.6607 159.058 71.423 159.365 71.193C159.672 70.9477 159.917 70.7407 160.101 70.572H155.869C156.114 70.94 156.367 71.2927 156.628 71.63C156.904 71.952 157.188 72.2587 157.479 72.55Z" fill="black"/>
<path d="M14 26C14 20.4771 18.4772 16 24 16H88V28.5C88 34.0228 92.4771 38.5 98 38.5H128C133.523 38.5 138 42.9772 138 48.5V75.5C138 81.0229 142.477 85.5 148 85.5H158V152C158 157.523 153.523 162 148 162H24C18.4771 162 14 157.523 14 152V26Z" fill="#D9D9D9"/>
<defs>
<filter id="filter0_d_0_1" x="0" y="0" width="182" height="183" filterUnits="userSpaceOnUse" color-interpolation-filters="sRGB">
<feFlood flood-opacity="0" result="BackgroundImageFix"/>
<feColorMatrix in="SourceAlpha" type="matrix" values="0 0 0 0 0 0 0 0 0 0 0 0 0 0 0 0 0 0 127 0" result="hardAlpha"/>
<feOffset dx="7" dy="8"/>
<feComposite in2="hardAlpha" operator="out"/>
<feColorMatrix type="matrix" values="0 0 0 0 0.262745 0 0 0 0 0.721569 0 0 0 0 0.729412 0 0 0 1 0"/>
<feBlend mode="normal" in2="BackgroundImageFix" result="effect1_dropShadow_0_1"/>
<feBlend mode="normal" in="SourceGraphic" in2="effect1_dropShadow_0_1" result="shape"/>
</filter>
</defs>
</svg>
