<svg width="182" height="183" viewBox="0 0 182 183" fill="none" xmlns="http://www.w3.org/2000/svg">
<g filter="url(#filter0_d_0_1)">
<rect width="175" height="175" rx="15" fill="white"/>
<rect x="0.5" y="0.5" width="174" height="174" rx="14.5" stroke="#43B8BA"/>
</g>
<path d="M56.809 162.001C56.4717 162.001 56.2033 161.909 56.004 161.725C55.82 161.541 55.7127 161.303 55.682 161.012C55.6667 160.721 55.7663 160.483 55.981 160.299C56.211 160.115 56.5023 160.015 56.855 160C57.5603 159.969 58.1047 159.877 58.488 159.724C58.8867 159.571 59.1627 159.295 59.316 158.896C59.4847 158.482 59.569 157.899 59.569 157.148C59.569 156.719 59.523 156.312 59.431 155.929H50.116C49.84 155.929 49.6177 155.837 49.449 155.653C49.2803 155.469 49.196 155.254 49.196 155.009C49.196 154.748 49.2727 154.534 49.426 154.365C49.5947 154.181 49.8017 154.089 50.047 154.089H58.741C58.6337 153.92 58.5263 153.759 58.419 153.606C58.3117 153.453 58.1967 153.299 58.074 153.146C57.9053 152.947 57.8363 152.724 57.867 152.479C57.913 152.218 58.0357 152.011 58.235 151.858C58.4343 151.689 58.672 151.613 58.948 151.628C59.224 151.643 59.4387 151.728 59.592 151.881C59.6687 151.942 59.73 152.011 59.776 152.088C59.8373 152.149 59.8987 152.218 59.96 152.295C60.2973 152.126 60.6653 151.935 61.064 151.72C61.478 151.49 61.8077 151.306 62.053 151.168C62.3443 151.015 62.4747 150.846 62.444 150.662C62.4133 150.478 62.2217 150.386 61.869 150.386H54.118C53.8573 150.386 53.6427 150.294 53.474 150.11C53.3053 149.926 53.221 149.711 53.221 149.466C53.221 149.205 53.3053 148.983 53.474 148.799C53.6427 148.615 53.8573 148.523 54.118 148.523H62.674C63.3487 148.523 63.8777 148.653 64.261 148.914C64.6443 149.175 64.882 149.504 64.974 149.903C65.0813 150.302 65.02 150.708 64.79 151.122C64.5753 151.536 64.192 151.904 63.64 152.226C63.1493 152.502 62.6893 152.763 62.26 153.008C61.8307 153.238 61.3707 153.483 60.88 153.744L61.018 154.089H68.815C69.1217 154.089 69.3593 154.181 69.528 154.365C69.712 154.534 69.804 154.748 69.804 155.009C69.804 155.254 69.7197 155.469 69.551 155.653C69.3823 155.837 69.16 155.929 68.884 155.929H61.547C61.5777 156.144 61.6007 156.366 61.616 156.596C61.6467 156.811 61.662 157.025 61.662 157.24C61.662 158.421 61.4933 159.356 61.156 160.046C60.834 160.751 60.3127 161.25 59.592 161.541C58.8867 161.848 57.959 162.001 56.809 162.001ZM50.737 150.616C50.4457 150.616 50.2003 150.524 50.001 150.34C49.8017 150.156 49.702 149.911 49.702 149.604V148.362C49.702 147.258 49.9857 146.468 50.553 145.993C51.1203 145.502 52.094 145.257 53.474 145.257H53.796C53.612 145.134 53.4817 144.989 53.405 144.82C53.3283 144.636 53.198 144.391 53.014 144.084C52.8453 143.762 52.669 143.448 52.485 143.141C52.301 142.819 52.1477 142.574 52.025 142.405C51.887 142.19 51.8487 141.96 51.91 141.715C51.9867 141.47 52.1323 141.286 52.347 141.163C52.5923 141.025 52.8453 140.987 53.106 141.048C53.3667 141.109 53.5737 141.255 53.727 141.485C53.8803 141.684 54.049 141.937 54.233 142.244C54.4323 142.551 54.624 142.857 54.808 143.164C54.992 143.455 55.1377 143.708 55.245 143.923C55.3677 144.168 55.3983 144.414 55.337 144.659C55.2757 144.904 55.1147 145.104 54.854 145.257H59.178C58.8867 145.165 58.6873 144.981 58.58 144.705C58.5033 144.506 58.373 144.23 58.189 143.877C58.0203 143.524 57.8517 143.179 57.683 142.842C57.5143 142.489 57.3763 142.229 57.269 142.06C57.1463 141.845 57.1233 141.615 57.2 141.37C57.2767 141.109 57.43 140.925 57.66 140.818C57.9053 140.695 58.1507 140.672 58.396 140.749C58.6567 140.81 58.8637 140.964 59.017 141.209C59.155 141.408 59.316 141.677 59.5 142.014C59.684 142.351 59.8603 142.689 60.029 143.026C60.1977 143.363 60.3357 143.647 60.443 143.877C60.5657 144.122 60.5887 144.375 60.512 144.636C60.4353 144.881 60.2513 145.073 59.96 145.211C59.9447 145.226 59.9217 145.234 59.891 145.234C59.8757 145.234 59.8603 145.242 59.845 145.257H62.283C62.4977 144.92 62.7583 144.498 63.065 143.992C63.3717 143.471 63.6707 142.957 63.962 142.451C64.2533 141.945 64.4757 141.546 64.629 141.255C64.7823 140.948 64.997 140.764 65.273 140.703C65.5643 140.642 65.8327 140.672 66.078 140.795C66.3387 140.918 66.515 141.117 66.607 141.393C66.7143 141.654 66.6913 141.914 66.538 142.175C66.2927 142.589 65.986 143.087 65.618 143.67C65.2653 144.237 64.9357 144.766 64.629 145.257H65.526C66.8907 145.257 67.8567 145.502 68.424 145.993C69.0067 146.468 69.298 147.258 69.298 148.362V149.604C69.298 149.911 69.1983 150.156 68.999 150.34C68.815 150.524 68.5773 150.616 68.286 150.616C67.9947 150.616 67.7493 150.532 67.55 150.363C67.366 150.194 67.274 149.957 67.274 149.65V148.408C67.274 147.902 67.1437 147.549 66.883 147.35C66.6377 147.151 66.1777 147.051 65.503 147.051H53.52C52.8453 147.051 52.3777 147.151 52.117 147.35C51.8717 147.549 51.749 147.902 51.749 148.408V149.65C51.749 149.957 51.6493 150.194 51.45 150.363C51.2507 150.532 51.013 150.616 50.737 150.616ZM79.349 161.357C78.107 161.357 77.0643 161.273 76.221 161.104C75.3777 160.935 74.703 160.636 74.197 160.207C73.691 159.778 73.323 159.172 73.093 158.39C72.8783 157.593 72.771 156.573 72.771 155.331V147.143C72.771 145.901 72.8783 144.889 73.093 144.107C73.323 143.325 73.691 142.719 74.197 142.29C74.703 141.845 75.3777 141.539 76.221 141.37C77.0643 141.201 78.107 141.117 79.349 141.117H85.651C86.893 141.117 87.9357 141.201 88.779 141.37C89.6223 141.539 90.297 141.845 90.803 142.29C91.309 142.719 91.6693 143.325 91.884 144.107C92.114 144.889 92.229 145.901 92.229 147.143V155.331C92.229 156.573 92.114 157.593 91.884 158.39C91.6693 159.172 91.309 159.778 90.803 160.207C90.297 160.636 89.6223 160.935 88.779 161.104C87.9357 161.273 86.893 161.357 85.651 161.357H79.349ZM79.349 159.54H85.651C86.5557 159.54 87.307 159.494 87.905 159.402C88.503 159.31 88.9707 159.126 89.308 158.85C89.6453 158.559 89.883 158.137 90.021 157.585C90.159 157.033 90.228 156.297 90.228 155.377V147.12C90.228 146.2 90.159 145.464 90.021 144.912C89.883 144.36 89.6453 143.946 89.308 143.67C88.9707 143.379 88.503 143.187 87.905 143.095C87.307 142.988 86.5557 142.934 85.651 142.934H79.349C78.4443 142.934 77.693 142.988 77.095 143.095C76.497 143.187 76.0293 143.379 75.692 143.67C75.3547 143.946 75.117 144.36 74.979 144.912C74.841 145.464 74.772 146.2 74.772 147.12V155.377C74.772 156.297 74.841 157.033 74.979 157.585C75.117 158.137 75.3547 158.559 75.692 158.85C76.0293 159.126 76.497 159.31 77.095 159.402C77.693 159.494 78.4443 159.54 79.349 159.54ZM82.339 159.494C82.0937 159.494 81.8867 159.417 81.718 159.264C81.5493 159.095 81.465 158.873 81.465 158.597V155.055C80.7903 155.576 80.016 156.098 79.142 156.619C78.2833 157.14 77.4937 157.562 76.773 157.884C76.5583 157.976 76.336 157.984 76.106 157.907C75.876 157.83 75.7073 157.708 75.6 157.539C75.508 157.34 75.4927 157.14 75.554 156.941C75.6153 156.726 75.7533 156.581 75.968 156.504C76.3973 156.335 76.8727 156.121 77.394 155.86C77.9307 155.584 78.4597 155.293 78.981 154.986C79.5023 154.664 79.9777 154.35 80.407 154.043C79.3337 154.028 78.6053 153.859 78.222 153.537C77.854 153.215 77.67 152.671 77.67 151.904C77.67 151.091 77.8693 150.532 78.268 150.225C78.682 149.903 79.4717 149.742 80.637 149.742H84.34C85.1373 149.742 85.743 149.811 86.157 149.949C86.5863 150.072 86.8853 150.294 87.054 150.616C87.2227 150.923 87.307 151.352 87.307 151.904C87.307 152.441 87.2227 152.87 87.054 153.192C86.8853 153.499 86.5863 153.721 86.157 153.859C85.743 153.997 85.1373 154.066 84.34 154.066H83.443C83.7497 154.296 84.087 154.518 84.455 154.733C84.823 154.948 85.1987 155.155 85.582 155.354C85.766 155.185 85.973 154.986 86.203 154.756C86.433 154.526 86.6477 154.304 86.847 154.089C87.0463 153.874 87.1997 153.713 87.307 153.606C87.4297 153.422 87.5907 153.322 87.79 153.307C88.0047 153.292 88.204 153.338 88.388 153.445C88.5567 153.537 88.664 153.683 88.71 153.882C88.756 154.081 88.7177 154.265 88.595 154.434C88.3957 154.633 88.135 154.886 87.813 155.193C87.5063 155.5 87.2227 155.776 86.962 156.021C87.2993 156.159 87.629 156.289 87.951 156.412C88.273 156.519 88.5797 156.611 88.871 156.688C89.0857 156.749 89.2313 156.872 89.308 157.056C89.4 157.24 89.4077 157.439 89.331 157.654C89.239 157.884 89.078 158.045 88.848 158.137C88.6333 158.229 88.411 158.237 88.181 158.16C87.3683 157.899 86.5173 157.539 85.628 157.079C84.7387 156.619 83.9413 156.144 83.236 155.653V158.597C83.236 158.873 83.1517 159.095 82.983 159.264C82.8143 159.417 82.5997 159.494 82.339 159.494ZM76.175 148.845C75.945 148.845 75.761 148.768 75.623 148.615C75.5003 148.446 75.439 148.262 75.439 148.063C75.439 147.848 75.5003 147.664 75.623 147.511C75.761 147.342 75.945 147.258 76.175 147.258H81.603V146.177H77.647C77.4323 146.177 77.256 146.1 77.118 145.947C76.9953 145.778 76.934 145.594 76.934 145.395C76.934 145.196 76.9953 145.019 77.118 144.866C77.256 144.697 77.4323 144.613 77.647 144.613H81.603V143.877C81.603 143.616 81.6873 143.409 81.856 143.256C82.04 143.103 82.2547 143.026 82.5 143.026C82.7453 143.026 82.9523 143.103 83.121 143.256C83.2897 143.409 83.374 143.616 83.374 143.877V144.613H87.261C87.4757 144.613 87.6443 144.697 87.767 144.866C87.905 145.019 87.974 145.196 87.974 145.395C87.974 145.594 87.905 145.778 87.767 145.947C87.6443 146.1 87.4757 146.177 87.261 146.177H83.374V147.258H88.779C88.9937 147.258 89.1623 147.342 89.285 147.511C89.423 147.664 89.492 147.848 89.492 148.063C89.492 148.262 89.423 148.446 89.285 148.615C89.1623 148.768 88.9937 148.845 88.779 148.845H76.175ZM80.637 152.617H84.34C84.754 152.617 85.03 152.579 85.168 152.502C85.3213 152.425 85.398 152.226 85.398 151.904C85.398 151.567 85.3213 151.367 85.168 151.306C85.03 151.229 84.754 151.191 84.34 151.191H80.637C80.223 151.191 79.9393 151.229 79.786 151.306C79.648 151.367 79.579 151.567 79.579 151.904C79.579 152.226 79.648 152.425 79.786 152.502C79.9393 152.579 80.223 152.617 80.637 152.617ZM96.162 152.341C95.9013 152.464 95.633 152.51 95.357 152.479C95.0963 152.448 94.8817 152.31 94.713 152.065C94.5597 151.82 94.5213 151.567 94.598 151.306C94.6747 151.045 94.8587 150.846 95.15 150.708C95.6713 150.478 96.1773 150.225 96.668 149.949C97.174 149.673 97.6493 149.382 98.094 149.075C97.8793 148.845 97.657 148.615 97.427 148.385C97.197 148.14 97.0207 147.956 96.898 147.833C96.76 147.68 96.6833 147.503 96.668 147.304C96.668 147.089 96.7447 146.913 96.898 146.775C97.0667 146.606 97.2583 146.514 97.473 146.499C97.703 146.484 97.8947 146.56 98.048 146.729C98.232 146.913 98.4467 147.135 98.692 147.396C98.9527 147.657 99.198 147.894 99.428 148.109C99.796 147.818 100.156 147.503 100.509 147.166C100.264 146.951 99.9877 146.714 99.681 146.453C99.3897 146.192 99.1673 146.001 99.014 145.878C98.8607 145.725 98.7687 145.548 98.738 145.349C98.7227 145.15 98.784 144.973 98.922 144.82C99.0907 144.636 99.2823 144.529 99.497 144.498C99.7117 144.467 99.9033 144.529 100.072 144.682C100.287 144.851 100.532 145.058 100.808 145.303C101.099 145.548 101.368 145.778 101.613 145.993C101.766 145.824 101.912 145.656 102.05 145.487C102.188 145.303 102.311 145.127 102.418 144.958C102.694 144.544 102.786 144.245 102.694 144.061C102.617 143.862 102.318 143.762 101.797 143.762H99.658C99.1367 144.375 98.577 144.973 97.979 145.556C97.3963 146.139 96.829 146.645 96.277 147.074C96.0777 147.227 95.8323 147.304 95.541 147.304C95.265 147.304 95.0427 147.204 94.874 147.005C94.7207 146.79 94.6593 146.56 94.69 146.315C94.736 146.054 94.8587 145.855 95.058 145.717C95.61 145.318 96.162 144.843 96.714 144.291C97.266 143.739 97.7873 143.156 98.278 142.543C98.784 141.914 99.2133 141.316 99.566 140.749C99.7193 140.534 99.9187 140.404 100.164 140.358C100.425 140.297 100.67 140.327 100.9 140.45C101.115 140.573 101.253 140.749 101.314 140.979C101.375 141.209 101.345 141.431 101.222 141.646C101.161 141.738 101.099 141.83 101.038 141.922C100.992 141.999 100.938 142.075 100.877 142.152H102.602C103.737 142.152 104.457 142.466 104.764 143.095C105.086 143.708 104.979 144.437 104.442 145.28C104.043 145.909 103.576 146.53 103.039 147.143C102.518 147.741 101.95 148.316 101.337 148.868C101.429 148.837 101.506 148.822 101.567 148.822H109.755C110.031 148.822 110.261 148.922 110.445 149.121C110.629 149.305 110.721 149.535 110.721 149.811C110.721 150.072 110.629 150.302 110.445 150.501C110.261 150.685 110.031 150.777 109.755 150.777H101.567C101.306 150.777 101.076 150.685 100.877 150.501C100.693 150.302 100.601 150.072 100.601 149.811C100.601 149.658 100.624 149.527 100.67 149.42C99.98 149.987 99.2517 150.516 98.485 151.007C97.7337 151.498 96.9593 151.942 96.162 152.341ZM103.108 162.139C102.817 162.139 102.556 162.047 102.326 161.863C102.096 161.679 101.966 161.418 101.935 161.081C101.92 160.79 102.012 160.529 102.211 160.299C102.41 160.084 102.679 159.969 103.016 159.954C103.691 159.908 104.12 159.808 104.304 159.655C104.503 159.486 104.603 159.164 104.603 158.689V154.894H97.036C96.7753 154.894 96.5453 154.802 96.346 154.618C96.162 154.419 96.07 154.189 96.07 153.928C96.07 153.667 96.162 153.445 96.346 153.261C96.5453 153.062 96.7753 152.962 97.036 152.962H113.987C114.263 152.962 114.493 153.062 114.677 153.261C114.861 153.445 114.953 153.667 114.953 153.928C114.953 154.189 114.861 154.419 114.677 154.618C114.493 154.802 114.263 154.894 113.987 154.894H106.719V158.942C106.719 160.046 106.458 160.851 105.937 161.357C105.416 161.878 104.473 162.139 103.108 162.139ZM114.746 151.927C113.473 151.298 112.239 150.516 111.043 149.581C109.847 148.63 108.774 147.534 107.823 146.292C106.888 145.035 106.175 143.639 105.684 142.106C105.607 141.815 105.623 141.554 105.73 141.324C105.853 141.079 106.052 140.925 106.328 140.864C106.619 140.787 106.872 140.81 107.087 140.933C107.317 141.04 107.478 141.232 107.57 141.508C107.877 142.443 108.275 143.317 108.766 144.13C109.257 144.943 109.824 145.686 110.468 146.361C110.729 146.146 111.028 145.893 111.365 145.602C111.718 145.295 112.032 145.019 112.308 144.774C112.63 144.467 112.737 144.222 112.63 144.038C112.538 143.854 112.277 143.762 111.848 143.762H109.479C109.234 143.762 109.027 143.678 108.858 143.509C108.689 143.325 108.605 143.11 108.605 142.865C108.605 142.635 108.689 142.428 108.858 142.244C109.027 142.06 109.234 141.968 109.479 141.968H112.607C113.251 141.968 113.765 142.091 114.148 142.336C114.547 142.581 114.815 142.903 114.953 143.302C115.091 143.685 115.099 144.092 114.976 144.521C114.853 144.935 114.593 145.326 114.194 145.694C113.811 146.031 113.42 146.376 113.021 146.729C112.638 147.066 112.254 147.381 111.871 147.672C112.5 148.193 113.159 148.661 113.849 149.075C114.539 149.489 115.237 149.857 115.942 150.179C116.233 150.317 116.41 150.532 116.471 150.823C116.548 151.114 116.502 151.39 116.333 151.651C116.18 151.912 115.95 152.057 115.643 152.088C115.336 152.119 115.037 152.065 114.746 151.927ZM97.657 160.782C97.3657 160.935 97.0743 160.981 96.783 160.92C96.4917 160.874 96.2617 160.713 96.093 160.437C95.9397 160.161 95.9013 159.9 95.978 159.655C96.07 159.394 96.254 159.195 96.53 159.057C96.944 158.827 97.427 158.543 97.979 158.206C98.5463 157.853 99.106 157.493 99.658 157.125C100.21 156.742 100.67 156.404 101.038 156.113C101.253 155.944 101.498 155.875 101.774 155.906C102.065 155.921 102.288 156.036 102.441 156.251C102.61 156.45 102.686 156.688 102.671 156.964C102.656 157.24 102.541 157.462 102.326 157.631C101.912 157.968 101.429 158.336 100.877 158.735C100.325 159.134 99.7653 159.517 99.198 159.885C98.6307 160.238 98.117 160.537 97.657 160.782ZM113.435 160.782C112.975 160.552 112.446 160.253 111.848 159.885C111.265 159.517 110.69 159.134 110.123 158.735C109.571 158.321 109.103 157.938 108.72 157.585C108.521 157.416 108.413 157.202 108.398 156.941C108.383 156.68 108.459 156.45 108.628 156.251C108.812 156.052 109.034 155.937 109.295 155.906C109.556 155.875 109.786 155.944 109.985 156.113C110.353 156.42 110.805 156.757 111.342 157.125C111.894 157.493 112.454 157.853 113.021 158.206C113.604 158.543 114.117 158.819 114.562 159.034C114.807 159.141 114.968 159.333 115.045 159.609C115.137 159.87 115.114 160.123 114.976 160.368C114.823 160.659 114.6 160.836 114.309 160.897C114.018 160.958 113.726 160.92 113.435 160.782ZM119.392 160.851C119.101 160.851 118.863 160.759 118.679 160.575C118.51 160.391 118.426 160.169 118.426 159.908C118.426 159.647 118.51 159.425 118.679 159.241C118.863 159.042 119.101 158.942 119.392 158.942H122.382V151.651C122.382 151.344 122.482 151.091 122.681 150.892C122.896 150.693 123.149 150.593 123.44 150.593C123.731 150.593 123.977 150.693 124.176 150.892C124.391 151.091 124.498 151.344 124.498 151.651V158.942H127.856V147.764C127.856 147.457 127.956 147.204 128.155 147.005C128.37 146.806 128.623 146.706 128.914 146.706C129.221 146.706 129.474 146.806 129.673 147.005C129.872 147.204 129.972 147.457 129.972 147.764V152.088H134.894C135.201 152.088 135.438 152.188 135.607 152.387C135.791 152.571 135.883 152.801 135.883 153.077C135.883 153.353 135.791 153.591 135.607 153.79C135.438 153.974 135.201 154.066 134.894 154.066H129.972V158.942H137.608C137.899 158.942 138.129 159.042 138.298 159.241C138.467 159.425 138.551 159.647 138.551 159.908C138.551 160.169 138.467 160.391 138.298 160.575C138.129 160.759 137.899 160.851 137.608 160.851H119.392ZM119.116 150.57C118.825 150.723 118.526 150.777 118.219 150.731C117.928 150.67 117.698 150.501 117.529 150.225C117.376 149.949 117.345 149.681 117.437 149.42C117.529 149.144 117.721 148.929 118.012 148.776C118.963 148.224 119.952 147.58 120.979 146.844C122.022 146.108 123.018 145.334 123.969 144.521C124.935 143.708 125.778 142.942 126.499 142.221C127.174 141.531 127.833 141.186 128.477 141.186C129.121 141.171 129.811 141.516 130.547 142.221C131.053 142.712 131.643 143.241 132.318 143.808C132.993 144.36 133.706 144.927 134.457 145.51C135.224 146.077 135.99 146.614 136.757 147.12C137.539 147.626 138.275 148.063 138.965 148.431C139.256 148.584 139.448 148.807 139.54 149.098C139.647 149.389 139.632 149.673 139.494 149.949C139.341 150.271 139.103 150.478 138.781 150.57C138.459 150.647 138.122 150.585 137.769 150.386C136.834 149.849 135.845 149.205 134.802 148.454C133.759 147.703 132.755 146.921 131.789 146.108C130.838 145.295 130.003 144.529 129.282 143.808C129.021 143.532 128.784 143.394 128.569 143.394C128.37 143.379 128.132 143.501 127.856 143.762C127.304 144.299 126.668 144.881 125.947 145.51C125.242 146.139 124.49 146.767 123.693 147.396C122.911 148.009 122.121 148.592 121.324 149.144C120.542 149.696 119.806 150.171 119.116 150.57ZM149.729 157.01C148.334 157.01 147.345 156.749 146.762 156.228C146.195 155.691 145.911 154.756 145.911 153.422V149.65C145.911 148.301 146.195 147.365 146.762 146.844C147.345 146.323 148.334 146.062 149.729 146.062H150.419V143.67H142.07C141.794 143.67 141.572 143.578 141.403 143.394C141.234 143.21 141.15 142.995 141.15 142.75C141.15 142.505 141.234 142.298 141.403 142.129C141.572 141.945 141.794 141.853 142.07 141.853H160.976C161.252 141.853 161.474 141.945 161.643 142.129C161.812 142.298 161.896 142.505 161.896 142.75C161.896 142.995 161.812 143.21 161.643 143.394C161.474 143.578 161.252 143.67 160.976 143.67H152.42V146.062H153.202C154.597 146.062 155.579 146.323 156.146 146.844C156.713 147.365 156.997 148.301 156.997 149.65V153.422C156.997 154.756 156.713 155.691 156.146 156.228C155.579 156.749 154.597 157.01 153.202 157.01H149.729ZM148.28 160.69C146.701 160.69 145.459 160.544 144.554 160.253C143.649 159.977 143.005 159.463 142.622 158.712C142.254 157.961 142.07 156.887 142.07 155.492V147.189C142.07 146.882 142.162 146.637 142.346 146.453C142.545 146.269 142.791 146.177 143.082 146.177C143.358 146.177 143.588 146.269 143.772 146.453C143.971 146.637 144.071 146.882 144.071 147.189V155.285C144.071 156.282 144.186 157.033 144.416 157.539C144.646 158.045 145.06 158.382 145.658 158.551C146.271 158.72 147.138 158.804 148.257 158.804H154.697C155.816 158.804 156.675 158.72 157.273 158.551C157.886 158.382 158.308 158.045 158.538 157.539C158.768 157.033 158.883 156.282 158.883 155.285V147.189C158.883 146.882 158.975 146.637 159.159 146.453C159.358 146.269 159.596 146.177 159.872 146.177C160.163 146.177 160.401 146.269 160.585 146.453C160.784 146.637 160.884 146.882 160.884 147.189V155.492C160.884 156.887 160.692 157.961 160.309 158.712C159.941 159.463 159.305 159.977 158.4 160.253C157.511 160.544 156.269 160.69 154.674 160.69H148.28ZM152.42 155.216H152.834C153.693 155.216 154.275 155.086 154.582 154.825C154.904 154.564 155.065 154.028 155.065 153.215V152.318H152.42V155.216ZM150.074 155.216H150.419V152.318H147.843V153.215C147.843 154.028 147.996 154.564 148.303 154.825C148.625 155.086 149.215 155.216 150.074 155.216ZM152.42 150.478H155.065V149.834C155.065 149.021 154.904 148.492 154.582 148.247C154.275 147.986 153.693 147.856 152.834 147.856H152.42V150.478ZM147.843 150.478H150.419V147.856H150.074C149.215 147.856 148.625 147.986 148.303 148.247C147.996 148.492 147.843 149.021 147.843 149.834V150.478Z" fill="black"/>
<path d="M13.5 26C13.5 20.4771 17.9772 16 23.5 16H153C158.523 16 163 20.4772 163 26V135H54C48.4772 135 44 139.477 44 145V162H23.5C17.9772 162 13.5 157.523 13.5 152V26Z" fill="#D9D9D9"/>
<defs>
<filter id="filter0_d_0_1" x="0" y="0" width="182" height="183" filterUnits="userSpaceOnUse" color-interpolation-filters="sRGB">
<feFlood flood-opacity="0" result="BackgroundImageFix"/>
<feColorMatrix in="SourceAlpha" type="matrix" values="0 0 0 0 0 0 0 0 0 0 0 0 0 0 0 0 0 0 127 0" result="hardAlpha"/>
<feOffset dx="7" dy="8"/>
<feComposite in2="hardAlpha" operator="out"/>
<feColorMatrix type="matrix" values="0 0 0 0 0.262745 0 0 0 0 0.721569 0 0 0 0 0.729412 0 0 0 1 0"/>
<feBlend mode="normal" in2="BackgroundImageFix" result="effect1_dropShadow_0_1"/>
<feBlend mode="normal" in="SourceGraphic" in2="effect1_dropShadow_0_1" result="shape"/>
</filter>
</defs>
</svg>
