<svg width="182" height="183" viewBox="0 0 182 183" fill="none" xmlns="http://www.w3.org/2000/svg">
<g filter="url(#filter0_d_0_1)">
<rect width="175" height="175" rx="15" fill="white"/>
<rect x="0.5" y="0.5" width="174" height="174" rx="14.5" stroke="#43B8BA"/>
</g>
<path d="M29.48 28.988C26.0607 29.77 23.2317 29.908 20.993 29.402C18.7543 28.896 17.2977 27.8227 16.623 26.182C16.5157 25.906 16.5157 25.6377 16.623 25.377C16.7303 25.1163 16.9143 24.9323 17.175 24.825C17.451 24.7023 17.7193 24.7023 17.98 24.825C18.2407 24.9477 18.4247 25.1393 18.532 25.4C18.7927 25.998 19.2527 26.481 19.912 26.849C20.5713 27.2017 21.3763 27.4393 22.327 27.562C23.2777 27.6847 24.3203 27.7 25.455 27.608C26.605 27.5007 27.7857 27.286 28.997 26.964C29.2883 26.8873 29.5567 26.9257 29.802 27.079C30.0473 27.2323 30.2007 27.4547 30.262 27.746C30.3387 28.022 30.3003 28.2827 30.147 28.528C29.9937 28.758 29.7713 28.9113 29.48 28.988ZM27.525 16.407C26.743 16.1923 25.8767 16.0313 24.926 15.924C23.9753 15.8013 23.017 15.7323 22.051 15.717C21.085 15.7017 20.188 15.7323 19.36 15.809C19.084 15.8243 18.831 15.7553 18.601 15.602C18.371 15.4333 18.2407 15.2033 18.21 14.912C18.1793 14.6207 18.2483 14.36 18.417 14.13C18.5857 13.9 18.8157 13.7697 19.107 13.739C19.7817 13.6623 20.5253 13.6317 21.338 13.647C22.1507 13.647 22.9633 13.6853 23.776 13.762C24.604 13.8233 25.386 13.9077 26.122 14.015C26.858 14.1223 27.4867 14.245 28.008 14.383C28.284 14.4443 28.4987 14.5977 28.652 14.843C28.8053 15.0883 28.8513 15.349 28.79 15.625C28.7287 15.9163 28.5677 16.1387 28.307 16.292C28.0617 16.43 27.801 16.4683 27.525 16.407ZM52.112 30.322C50.456 30.5367 48.9073 30.6133 47.466 30.552C46.04 30.506 44.7903 30.2913 43.717 29.908C42.6437 29.5247 41.808 28.9573 41.21 28.206C40.612 27.4547 40.313 26.4887 40.313 25.308C40.313 23.974 40.6657 22.847 41.371 21.927C42.0763 20.9917 43.027 20.1943 44.223 19.535C44.1003 18.9063 43.9393 18.1857 43.74 17.373C43.556 16.545 43.3567 15.74 43.142 14.958C42.9273 14.176 42.7357 13.532 42.567 13.026C42.475 12.75 42.498 12.4893 42.636 12.244C42.774 11.9833 42.981 11.8147 43.257 11.738C43.533 11.6613 43.7937 11.692 44.039 11.83C44.2997 11.9527 44.476 12.152 44.568 12.428C44.8747 13.4093 45.1507 14.4443 45.396 15.533C45.6567 16.6217 45.8713 17.672 46.04 18.684C46.8067 18.3773 47.627 18.0937 48.501 17.833C49.3903 17.5723 50.318 17.3193 51.284 17.074C51.56 17.0127 51.8207 17.0587 52.066 17.212C52.3113 17.3653 52.4647 17.5877 52.526 17.879C52.5873 18.155 52.5413 18.4157 52.388 18.661C52.2347 18.9063 52.0123 19.0597 51.721 19.121C49.789 19.5197 48.2097 19.949 46.983 20.409C45.7563 20.869 44.8133 21.3597 44.154 21.881C43.4947 22.387 43.0347 22.9313 42.774 23.514C42.5287 24.0967 42.406 24.71 42.406 25.354C42.406 26.3353 42.797 27.0867 43.579 27.608C44.3763 28.114 45.4803 28.4207 46.891 28.528C48.317 28.62 49.973 28.528 51.859 28.252C52.135 28.2213 52.388 28.298 52.618 28.482C52.848 28.6507 52.9783 28.873 53.009 29.149C53.055 29.4403 52.986 29.701 52.802 29.931C52.6333 30.161 52.4033 30.2913 52.112 30.322ZM57.586 16.89C57.402 17.028 57.195 17.074 56.965 17.028C56.735 16.982 56.5587 16.8593 56.436 16.66C56.0373 16.0467 55.608 15.4717 55.148 14.935C55.01 14.7817 54.941 14.6053 54.941 14.406C54.9563 14.1913 55.0483 14.015 55.217 13.877C55.401 13.7237 55.6003 13.67 55.815 13.716C56.0297 13.7467 56.2137 13.8387 56.367 13.992C56.5663 14.1913 56.804 14.4597 57.08 14.797C57.356 15.1343 57.5937 15.4333 57.793 15.694C57.9463 15.8933 57.9923 16.108 57.931 16.338C57.885 16.568 57.77 16.752 57.586 16.89ZM55.401 18.477C55.2017 18.5997 54.987 18.638 54.757 18.592C54.5423 18.5307 54.3737 18.4003 54.251 18.201C54.0823 17.8943 53.8907 17.5877 53.676 17.281C53.4613 16.9743 53.2467 16.6907 53.032 16.43C52.9093 16.2613 52.8557 16.0773 52.871 15.878C52.8863 15.6633 52.9783 15.4947 53.147 15.372C53.331 15.2187 53.5227 15.165 53.722 15.211C53.9367 15.257 54.1207 15.3643 54.274 15.533C54.4733 15.7323 54.7033 16.0083 54.964 16.361C55.2247 16.7137 55.4547 17.028 55.654 17.304C55.7767 17.5033 55.8073 17.718 55.746 17.948C55.7 18.178 55.585 18.3543 55.401 18.477ZM70.65 31.035C68.8713 31.035 67.5143 30.575 66.579 29.655C65.6437 28.735 65.176 27.493 65.176 25.929C65.176 25.5457 65.2603 24.8327 65.429 23.79C64.9537 23.7133 64.486 23.629 64.026 23.537C63.5813 23.4297 63.1827 23.33 62.83 23.238C62.554 23.1613 62.347 22.9927 62.209 22.732C62.0863 22.4713 62.0633 22.203 62.14 21.927C62.232 21.6663 62.4007 21.467 62.646 21.329C62.9067 21.191 63.175 21.1603 63.451 21.237C63.7577 21.329 64.1103 21.421 64.509 21.513C64.923 21.605 65.3523 21.6893 65.797 21.766C65.889 21.2293 65.9887 20.6773 66.096 20.11C66.2033 19.5273 66.3107 18.9523 66.418 18.385C65.9887 18.293 65.5747 18.201 65.176 18.109C64.7773 18.017 64.4323 17.9327 64.141 17.856C63.865 17.7793 63.658 17.6183 63.52 17.373C63.382 17.1123 63.3513 16.844 63.428 16.568C63.5047 16.292 63.6657 16.085 63.911 15.947C64.1563 15.809 64.417 15.7783 64.693 15.855C64.9537 15.9163 65.268 15.993 65.636 16.085C66.004 16.177 66.3873 16.2613 66.786 16.338C66.9393 15.5253 67.0697 14.7817 67.177 14.107C67.2843 13.417 67.3457 12.865 67.361 12.451C67.3763 12.1597 67.4913 11.922 67.706 11.738C67.9207 11.5387 68.166 11.4467 68.442 11.462C68.7333 11.4773 68.971 11.5923 69.155 11.807C69.3543 12.0217 69.4463 12.2747 69.431 12.566C69.4157 13.0107 69.3467 13.601 69.224 14.337C69.1167 15.0577 68.9863 15.8473 68.833 16.706C69.1243 16.7673 69.4003 16.8133 69.661 16.844C69.937 16.8747 70.1747 16.9053 70.374 16.936C70.6653 16.9513 70.8953 17.074 71.064 17.304C71.2327 17.534 71.3017 17.7947 71.271 18.086C71.2403 18.3773 71.11 18.6073 70.88 18.776C70.6653 18.9447 70.4123 19.0137 70.121 18.983C69.8757 18.9523 69.6073 18.9217 69.316 18.891C69.04 18.845 68.7487 18.799 68.442 18.753C68.3347 19.3203 68.2273 19.8877 68.12 20.455C68.0127 21.007 67.9053 21.5437 67.798 22.065C68.1813 22.111 68.5417 22.1493 68.879 22.18C69.2163 22.1953 69.5307 22.2183 69.822 22.249C70.1133 22.2643 70.351 22.3793 70.535 22.594C70.7343 22.7933 70.8263 23.0387 70.811 23.33C70.7957 23.6213 70.6807 23.8667 70.466 24.066C70.2513 24.25 69.9983 24.3343 69.707 24.319C69.3697 24.2883 69.0017 24.2577 68.603 24.227C68.2197 24.1963 67.8287 24.1503 67.43 24.089C67.3687 24.503 67.315 24.871 67.269 25.193C67.223 25.4997 67.2 25.745 67.2 25.929C67.2 27.953 68.35 28.965 70.65 28.965C71.524 28.965 72.26 28.7733 72.858 28.39C73.4713 28.0067 73.893 27.5083 74.123 26.895C74.3837 26.2203 74.3683 25.5227 74.077 24.802C73.801 24.066 73.2797 23.3683 72.513 22.709C72.2983 22.5097 72.1757 22.272 72.145 21.996C72.1297 21.7047 72.214 21.4517 72.398 21.237C72.5973 21.0223 72.835 20.9073 73.111 20.892C73.4023 20.8613 73.6553 20.938 73.87 21.122C74.9587 22.0573 75.6947 23.1 76.078 24.25C76.4767 25.4 76.4767 26.5193 76.078 27.608C75.6947 28.6507 75.02 29.4787 74.054 30.092C73.1033 30.7207 71.9687 31.035 70.65 31.035ZM13.265 56.656C12.9737 56.5333 12.782 56.3263 12.69 56.035C12.6133 55.759 12.6517 55.4983 12.805 55.253C13.3417 54.3483 13.7787 53.3977 14.116 52.401C14.4533 51.4043 14.6987 50.285 14.852 49.043C15.0207 47.801 15.105 46.3597 15.105 44.719V43.799C15.105 42.603 15.2583 41.6753 15.565 41.016C15.8717 40.3413 16.4007 39.8737 17.152 39.613C17.9187 39.337 18.969 39.199 20.303 39.199H23.178V36.646C23.178 36.3087 23.2853 36.048 23.5 35.864C23.7147 35.6647 23.9677 35.565 24.259 35.565C24.5657 35.565 24.8263 35.6647 25.041 35.864C25.2557 36.048 25.363 36.3087 25.363 36.646V39.199H32.585C32.861 39.199 33.0833 39.291 33.252 39.475C33.436 39.659 33.528 39.8813 33.528 40.142C33.528 40.4027 33.436 40.625 33.252 40.809C33.0833 40.993 32.861 41.085 32.585 41.085H20.303C19.4597 41.085 18.808 41.154 18.348 41.292C17.888 41.43 17.566 41.6983 17.382 42.097C17.2133 42.4803 17.129 43.0477 17.129 43.799V44.742C17.129 46.4287 17.0447 47.9467 16.876 49.296C16.7227 50.63 16.4697 51.849 16.117 52.953C15.7797 54.057 15.3197 55.115 14.737 56.127C14.5837 56.3877 14.369 56.564 14.093 56.656C13.817 56.7633 13.541 56.7633 13.265 56.656ZM32.7 56.242C32.424 56.38 32.148 56.403 31.872 56.311C31.596 56.2343 31.3813 56.058 31.228 55.782C31.0747 55.4753 30.906 55.1533 30.722 54.816C30.538 54.4787 30.3387 54.126 30.124 53.758C29.3573 53.9113 28.4603 54.0877 27.433 54.287C26.4057 54.471 25.3323 54.6627 24.213 54.862C23.109 55.046 22.0357 55.2147 20.993 55.368C19.9503 55.5367 19.0303 55.6747 18.233 55.782C17.8957 55.828 17.612 55.7667 17.382 55.598C17.152 55.4447 17.014 55.207 16.968 54.885C16.9373 54.5783 17.0063 54.3177 17.175 54.103C17.3437 53.8883 17.589 53.7733 17.911 53.758C18.1717 53.7273 18.4477 53.6967 18.739 53.666C19.0303 53.62 19.3293 53.5817 19.636 53.551C19.9273 52.9223 20.2493 52.171 20.602 51.297C20.97 50.423 21.3303 49.5107 21.683 48.56C22.0357 47.594 22.3577 46.6587 22.649 45.754C22.9403 44.8493 23.1703 44.0597 23.339 43.385C23.4157 43.063 23.5843 42.8407 23.845 42.718C24.121 42.58 24.4047 42.557 24.696 42.649C25.0027 42.7257 25.2173 42.8867 25.34 43.132C25.478 43.3773 25.5087 43.6457 25.432 43.937C25.248 44.5963 25.018 45.3323 24.742 46.145C24.466 46.9423 24.167 47.7627 23.845 48.606C23.523 49.4493 23.1933 50.2773 22.856 51.09C22.534 51.8873 22.2273 52.608 21.936 53.252C23.2087 53.0833 24.489 52.8993 25.777 52.7C27.0803 52.4853 28.2073 52.2937 29.158 52.125C28.7747 51.5117 28.3837 50.9137 27.985 50.331C27.5863 49.733 27.1877 49.181 26.789 48.675C26.6357 48.4603 26.582 48.2303 26.628 47.985C26.6893 47.7243 26.8273 47.5173 27.042 47.364C27.2873 47.2107 27.5403 47.157 27.801 47.203C28.077 47.249 28.2993 47.3793 28.468 47.594C29.0047 48.284 29.572 49.066 30.17 49.94C30.768 50.814 31.3353 51.6803 31.872 52.539C32.4087 53.3823 32.8457 54.126 33.183 54.77C33.3363 55.046 33.367 55.322 33.275 55.598C33.1983 55.874 33.0067 56.0887 32.7 56.242ZM51.813 56.725C51.537 56.725 51.2993 56.6483 51.1 56.495C50.9007 56.357 50.7857 56.1423 50.755 55.851C50.7397 55.575 50.8163 55.3297 50.985 55.115C51.169 54.9157 51.399 54.8083 51.675 54.793C52.3037 54.747 52.7483 54.6703 53.009 54.563C53.285 54.4557 53.4843 54.1873 53.607 53.758C53.699 53.4207 53.7987 52.9913 53.906 52.47C54.0287 51.9333 54.1207 51.3967 54.182 50.86C54.2433 50.354 54.1973 50.0013 54.044 49.802C53.906 49.5873 53.6453 49.457 53.262 49.411C52.8633 50.331 52.342 51.2433 51.698 52.148C51.0693 53.0527 50.3563 53.8883 49.559 54.655C48.777 55.4217 47.9413 56.0657 47.052 56.587C46.8373 56.725 46.5997 56.7863 46.339 56.771C46.0783 56.7557 45.8637 56.656 45.695 56.472C45.5417 56.3033 45.4727 56.0963 45.488 55.851C45.5033 55.621 45.6107 55.4293 45.81 55.276C47.052 54.5247 48.1483 53.6277 49.099 52.585C50.065 51.527 50.8317 50.4613 51.399 49.388H49.996C49.536 50.1853 48.9533 50.9673 48.248 51.734C47.5427 52.5007 46.776 53.206 45.948 53.85C45.1353 54.4787 44.3073 55.0077 43.464 55.437C43.2187 55.5597 42.9657 55.5903 42.705 55.529C42.4597 55.483 42.2757 55.3373 42.153 55.092C42.0457 54.8927 42.015 54.678 42.061 54.448C42.1223 54.218 42.2603 54.0493 42.475 53.942C43.1957 53.5893 43.901 53.1677 44.591 52.677C45.2963 52.1863 45.948 51.6573 46.546 51.09C47.1593 50.5227 47.673 49.9553 48.087 49.388H46.385C45.3423 50.5533 44.2307 51.527 43.05 52.309C42.8353 52.447 42.59 52.5083 42.314 52.493C42.0533 52.4623 41.8463 52.355 41.693 52.171C41.555 51.987 41.4937 51.7723 41.509 51.527C41.5397 51.2817 41.6547 51.0977 41.854 50.975C42.452 50.5917 43.0347 50.1547 43.602 49.664C44.1847 49.158 44.729 48.6367 45.235 48.1C45.741 47.548 46.1627 47.0267 46.5 46.536H43.878C43.6327 46.536 43.441 46.4517 43.303 46.283C43.165 46.099 43.096 45.8997 43.096 45.685C43.096 45.4703 43.165 45.2787 43.303 45.11C43.441 44.9413 43.6327 44.857 43.878 44.857H56.459C56.7043 44.857 56.896 44.9413 57.034 45.11C57.172 45.2787 57.241 45.4703 57.241 45.685C57.241 45.8997 57.172 46.099 57.034 46.283C56.896 46.4517 56.7043 46.536 56.459 46.536H48.478C48.2327 46.9653 47.9567 47.4023 47.65 47.847H53.262C54.3047 47.847 55.0637 48.0693 55.539 48.514C56.0143 48.9587 56.1907 49.7177 56.068 50.791C55.93 52.1863 55.723 53.39 55.447 54.402C55.217 55.2453 54.8183 55.8357 54.251 56.173C53.699 56.5257 52.8863 56.7097 51.813 56.725ZM49.099 43.776C48.1177 43.776 47.3433 43.6687 46.776 43.454C46.224 43.2393 45.833 42.8637 45.603 42.327C45.373 41.775 45.258 41.016 45.258 40.05C45.258 39.0687 45.373 38.3097 45.603 37.773C45.833 37.221 46.224 36.8377 46.776 36.623C47.3433 36.4083 48.1177 36.301 49.099 36.301H50.916C51.9127 36.301 52.687 36.4083 53.239 36.623C53.791 36.8377 54.182 37.221 54.412 37.773C54.642 38.3097 54.757 39.0687 54.757 40.05C54.757 41.016 54.642 41.775 54.412 42.327C54.182 42.8637 53.791 43.2393 53.239 43.454C52.687 43.6687 51.9127 43.776 50.916 43.776H49.099ZM37.231 51.711C36.9397 51.8183 36.6637 51.803 36.403 51.665C36.1577 51.5117 35.9967 51.3047 35.92 51.044C35.8433 50.768 35.8663 50.515 35.989 50.285C36.127 50.055 36.3417 49.8863 36.633 49.779C36.7097 49.7483 36.955 49.664 37.369 49.526C37.7983 49.388 38.2967 49.2193 38.864 49.02V42.764H36.817C36.541 42.764 36.3187 42.672 36.15 42.488C35.9813 42.304 35.897 42.0893 35.897 41.844C35.897 41.5833 35.9813 41.3687 36.15 41.2C36.3187 41.016 36.541 40.924 36.817 40.924H38.864V36.922C38.864 36.6153 38.956 36.3777 39.14 36.209C39.3393 36.025 39.577 35.933 39.853 35.933C40.1443 35.933 40.382 36.025 40.566 36.209C40.75 36.3777 40.842 36.6153 40.842 36.922V40.924H42.797C43.073 40.924 43.2953 41.016 43.464 41.2C43.6327 41.3687 43.717 41.5833 43.717 41.844C43.717 42.0893 43.6327 42.304 43.464 42.488C43.2953 42.672 43.073 42.764 42.797 42.764H40.842V48.33L42.705 47.663C42.9503 47.5863 43.1803 47.594 43.395 47.686C43.625 47.7627 43.7783 47.9083 43.855 48.123C43.947 48.3837 43.947 48.6213 43.855 48.836C43.763 49.0507 43.5867 49.2117 43.326 49.319C43.234 49.3497 42.981 49.4493 42.567 49.618C42.1683 49.7867 41.6853 49.9783 41.118 50.193C40.566 50.4077 40.0063 50.63 39.439 50.86C38.887 51.0747 38.404 51.2663 37.99 51.435C37.576 51.5883 37.323 51.6803 37.231 51.711ZM49.283 42.166H50.755C51.5063 42.166 52.02 42.0817 52.296 41.913C52.572 41.7443 52.7407 41.3533 52.802 40.74H47.213C47.2743 41.3533 47.443 41.7443 47.719 41.913C48.0103 42.0817 48.5317 42.166 49.283 42.166ZM47.236 39.245H52.779C52.7177 38.6623 52.5413 38.2943 52.25 38.141C51.974 37.9877 51.4757 37.911 50.755 37.911H49.283C48.5623 37.911 48.0563 37.9877 47.765 38.141C47.4737 38.2943 47.2973 38.6623 47.236 39.245Z" fill="black"/>
<path d="M87 16H152C157.523 16 162 20.4772 162 26V152C162 157.523 157.523 162 152 162H25C19.4772 162 15 157.523 15 152V88H39V63H63V38.5H87V16Z" fill="#D9D9D9"/>
<defs>
<filter id="filter0_d_0_1" x="0" y="0" width="182" height="183" filterUnits="userSpaceOnUse" color-interpolation-filters="sRGB">
<feFlood flood-opacity="0" result="BackgroundImageFix"/>
<feColorMatrix in="SourceAlpha" type="matrix" values="0 0 0 0 0 0 0 0 0 0 0 0 0 0 0 0 0 0 127 0" result="hardAlpha"/>
<feOffset dx="7" dy="8"/>
<feComposite in2="hardAlpha" operator="out"/>
<feColorMatrix type="matrix" values="0 0 0 0 0.262745 0 0 0 0 0.721569 0 0 0 0 0.729412 0 0 0 1 0"/>
<feBlend mode="normal" in2="BackgroundImageFix" result="effect1_dropShadow_0_1"/>
<feBlend mode="normal" in="SourceGraphic" in2="effect1_dropShadow_0_1" result="shape"/>
</filter>
</defs>
</svg>
