<svg width="182" height="183" viewBox="0 0 182 183" fill="none" xmlns="http://www.w3.org/2000/svg">
<g filter="url(#filter0_d_0_1)">
<rect width="175" height="175" rx="15" fill="white"/>
<rect x="0.5" y="0.5" width="174" height="174" rx="14.5" stroke="#43B8BA"/>
</g>
<path d="M33.675 156.925C33.3417 157.008 33.0417 156.983 32.775 156.85C32.5083 156.733 32.3333 156.525 32.25 156.225C32.1667 155.942 32.1917 155.683 32.325 155.45C32.4583 155.217 32.6833 155.058 33 154.975C34.3 154.642 35.3833 154.175 36.25 153.575C37.1167 152.958 37.7833 152.183 38.25 151.25H33.35C33.0667 151.25 32.8417 151.158 32.675 150.975C32.5083 150.775 32.425 150.542 32.425 150.275C32.425 150.025 32.5083 149.808 32.675 149.625C32.8417 149.425 33.0667 149.325 33.35 149.325H38.9C38.95 149.092 38.9917 148.858 39.025 148.625C39.0583 148.375 39.0833 148.117 39.1 147.85H38.55C37.5 147.85 36.6667 147.733 36.05 147.5C35.45 147.267 35.025 146.867 34.775 146.3C34.525 145.733 34.4 144.942 34.4 143.925C34.4 142.908 34.525 142.117 34.775 141.55C35.025 140.983 35.45 140.583 36.05 140.35C36.6667 140.117 37.5 140 38.55 140H41.975C43.025 140 43.85 140.117 44.45 140.35C45.0667 140.583 45.5 140.983 45.75 141.55C46 142.117 46.125 142.908 46.125 143.925C46.125 144.942 46 145.733 45.75 146.3C45.5 146.867 45.0667 147.267 44.45 147.5C43.85 147.733 43.025 147.85 41.975 147.85H41.225C41.2083 148.35 41.1583 148.842 41.075 149.325H47.25C47.5333 149.325 47.7583 149.425 47.925 149.625C48.0917 149.808 48.175 150.025 48.175 150.275C48.175 150.542 48.0917 150.775 47.925 150.975C47.7583 151.158 47.5333 151.25 47.25 151.25H42C42.65 152.2 43.45 152.967 44.4 153.55C45.35 154.133 46.3667 154.592 47.45 154.925C47.7833 155.025 48.0083 155.2 48.125 155.45C48.2583 155.7 48.275 155.967 48.175 156.25C48.075 156.533 47.8833 156.733 47.6 156.85C47.3167 156.983 47.0167 157 46.7 156.9C45.3833 156.467 44.15 155.833 43 155C41.85 154.15 40.9333 153.175 40.25 152.075C39.6833 153.275 38.85 154.267 37.75 155.05C36.65 155.833 35.2917 156.458 33.675 156.925ZM29.775 157.075C29.475 157.075 29.225 156.983 29.025 156.8C28.8417 156.633 28.75 156.392 28.75 156.075V145.8C28.3833 146.6 27.9917 147.367 27.575 148.1C27.175 148.833 26.8 149.467 26.45 150C26.2833 150.25 26.0583 150.417 25.775 150.5C25.4917 150.567 25.225 150.525 24.975 150.375C24.7417 150.225 24.5917 150.017 24.525 149.75C24.4583 149.467 24.5083 149.208 24.675 148.975C25.025 148.492 25.3917 147.917 25.775 147.25C26.175 146.567 26.5667 145.85 26.95 145.1C27.3333 144.35 27.6833 143.633 28 142.95C28.3167 142.25 28.5667 141.642 28.75 141.125V140.95H25.85C25.5667 140.95 25.3333 140.858 25.15 140.675C24.9667 140.475 24.875 140.242 24.875 139.975C24.875 139.708 24.9667 139.483 25.15 139.3C25.3333 139.1 25.5667 139 25.85 139H28.75V134.95C28.75 134.633 28.8417 134.383 29.025 134.2C29.225 134.017 29.475 133.925 29.775 133.925C30.0583 133.925 30.2917 134.017 30.475 134.2C30.675 134.383 30.775 134.633 30.775 134.95V139H32.925C33.2083 139 33.4417 139.1 33.625 139.3C33.8083 139.483 33.9 139.708 33.9 139.975C33.9 140.242 33.8083 140.475 33.625 140.675C33.4417 140.858 33.2083 140.95 32.925 140.95H30.775V142.6C31.0083 142.9 31.3167 143.292 31.7 143.775C32.0833 144.242 32.4667 144.708 32.85 145.175C33.25 145.625 33.5833 145.983 33.85 146.25C34.05 146.45 34.1417 146.7 34.125 147C34.125 147.283 34.0167 147.525 33.8 147.725C33.5833 147.925 33.3333 148.008 33.05 147.975C32.7667 147.942 32.5333 147.817 32.35 147.6C32.15 147.367 31.9083 147.067 31.625 146.7C31.3417 146.317 31.0583 145.933 30.775 145.55V156.075C30.775 156.392 30.675 156.633 30.475 156.8C30.2917 156.983 30.0583 157.075 29.775 157.075ZM37.95 139.95C37.65 139.95 37.4 139.85 37.2 139.65C37 139.433 36.9 139.175 36.9 138.875V138.25H33.575C33.3083 138.25 33.0833 138.158 32.9 137.975C32.7333 137.775 32.65 137.542 32.65 137.275C32.65 137.025 32.7333 136.808 32.9 136.625C33.0833 136.425 33.3083 136.325 33.575 136.325H36.9V135C36.9 134.683 37 134.433 37.2 134.25C37.4 134.05 37.65 133.95 37.95 133.95C38.2333 133.95 38.475 134.05 38.675 134.25C38.8917 134.433 39 134.683 39 135V136.325H41.6V135C41.6 134.683 41.7 134.433 41.9 134.25C42.1167 134.05 42.3667 133.95 42.65 133.95C42.9333 133.95 43.175 134.05 43.375 134.25C43.5917 134.433 43.7 134.683 43.7 135V136.325H47.1C47.3833 136.325 47.6083 136.425 47.775 136.625C47.9417 136.808 48.025 137.025 48.025 137.275C48.025 137.542 47.9417 137.775 47.775 137.975C47.6083 138.158 47.3833 138.25 47.1 138.25H43.7V138.875C43.7 139.175 43.5917 139.433 43.375 139.65C43.175 139.85 42.9333 139.95 42.65 139.95C42.3667 139.95 42.1167 139.85 41.9 139.65C41.7 139.433 41.6 139.175 41.6 138.875V138.25H39V138.875C39 139.175 38.8917 139.433 38.675 139.65C38.475 139.85 38.2333 139.95 37.95 139.95ZM38.8 146.125H41.75C42.5333 146.125 43.075 146.042 43.375 145.875C43.6917 145.708 43.8833 145.308 43.95 144.675H36.575C36.6417 145.308 36.8333 145.708 37.15 145.875C37.4667 146.042 38.0167 146.125 38.8 146.125ZM36.575 143.05H43.95C43.8833 142.467 43.6917 142.1 43.375 141.95C43.0583 141.8 42.5167 141.725 41.75 141.725H38.8C38.0333 141.725 37.4917 141.8 37.175 141.95C36.8583 142.1 36.6583 142.467 36.575 143.05ZM51.3 157.05C50.6167 157.05 50.2333 156.725 50.15 156.075C50.1333 155.792 50.2083 155.533 50.375 155.3C50.5417 155.083 50.775 154.967 51.075 154.95C51.6083 154.917 51.9583 154.817 52.125 154.65C52.3083 154.483 52.4 154.167 52.4 153.7V148.075C52.1333 148.192 51.875 148.292 51.625 148.375C51.3917 148.458 51.1833 148.542 51 148.625C50.6833 148.742 50.3917 148.742 50.125 148.625C49.8583 148.508 49.675 148.292 49.575 147.975C49.475 147.692 49.4917 147.425 49.625 147.175C49.7583 146.908 49.9667 146.725 50.25 146.625C50.5333 146.542 50.8583 146.433 51.225 146.3C51.6083 146.167 52 146.033 52.4 145.9V141.15H50.55C50.2833 141.15 50.05 141.058 49.85 140.875C49.6667 140.675 49.575 140.442 49.575 140.175C49.575 139.908 49.6667 139.683 49.85 139.5C50.05 139.317 50.2833 139.225 50.55 139.225H52.4V134.95C52.4 134.65 52.4917 134.408 52.675 134.225C52.875 134.042 53.1083 133.95 53.375 133.95C53.6583 133.95 53.8917 134.042 54.075 134.225C54.275 134.408 54.375 134.65 54.375 134.95V139.225H55.6C55.8833 139.225 56.1167 139.317 56.3 139.5C56.4833 139.683 56.575 139.908 56.575 140.175C56.575 140.442 56.4833 140.675 56.3 140.875C56.1167 141.058 55.8833 141.15 55.6 141.15H54.375V145.2L55.425 144.825C55.9417 144.642 56.325 144.758 56.575 145.175C56.6583 145.025 56.7667 144.792 56.9 144.475C57.0333 144.158 57.1583 143.85 57.275 143.55C57.4083 143.233 57.4917 143.017 57.525 142.9C57.6083 142.667 57.7667 142.492 58 142.375C58.2333 142.258 58.4667 142.242 58.7 142.325C58.9667 142.408 59.15 142.558 59.25 142.775C59.3667 142.992 59.3833 143.217 59.3 143.45C59.2667 143.567 59.2083 143.725 59.125 143.925C59.0417 144.125 58.9417 144.358 58.825 144.625H62.725C62.975 144.625 63.1833 144.717 63.35 144.9C63.5333 145.067 63.625 145.275 63.625 145.525C63.625 145.775 63.5083 145.992 63.275 146.175C63.0417 146.342 62.8 146.425 62.55 146.425H61.05V148.625H63.25C63.5 148.625 63.7083 148.717 63.875 148.9C64.0583 149.083 64.15 149.3 64.15 149.55C64.15 149.8 64.0333 150.017 63.8 150.2C63.5667 150.367 63.325 150.45 63.075 150.45H60.9C60.8833 150.717 60.8333 151.008 60.75 151.325C61.05 151.575 61.3667 151.833 61.7 152.1C62.05 152.35 62.3417 152.567 62.575 152.75C62.8083 152.917 62.9417 153.125 62.975 153.375C63.025 153.625 62.9667 153.867 62.8 154.1C62.65 154.317 62.4417 154.45 62.175 154.5C61.9083 154.55 61.6583 154.492 61.425 154.325C61.2583 154.192 61.0583 154.025 60.825 153.825C60.6083 153.625 60.3833 153.417 60.15 153.2C59.5 154.633 58.4167 155.8 56.9 156.7C56.65 156.85 56.3833 156.908 56.1 156.875C55.8167 156.842 55.5917 156.7 55.425 156.45C55.275 156.217 55.2333 155.967 55.3 155.7C55.3667 155.433 55.525 155.233 55.775 155.1C56.8083 154.517 57.5667 153.867 58.05 153.15C58.55 152.417 58.875 151.517 59.025 150.45H56.225C55.975 150.45 55.7583 150.367 55.575 150.2C55.4083 150.017 55.325 149.8 55.325 149.55C55.325 149.3 55.4083 149.083 55.575 148.9C55.7583 148.717 55.975 148.625 56.225 148.625H59.15V146.425H58.05C57.9167 146.742 57.7917 147.025 57.675 147.275C57.5583 147.508 57.4667 147.692 57.4 147.825C57.2833 148.058 57.0917 148.208 56.825 148.275C56.575 148.342 56.3333 148.325 56.1 148.225C55.8833 148.108 55.7333 147.933 55.65 147.7C55.5833 147.45 55.6083 147.217 55.725 147C55.775 146.917 55.825 146.817 55.875 146.7C55.675 146.783 55.4417 146.875 55.175 146.975C54.925 147.075 54.6583 147.183 54.375 147.3V154.025C54.375 155.075 54.1333 155.842 53.65 156.325C53.1667 156.808 52.3833 157.05 51.3 157.05ZM62.45 156.7C62.2167 156.567 62.0667 156.367 62 156.1C61.95 155.833 62 155.592 62.15 155.375C62.95 154.225 63.5333 152.933 63.9 151.5C64.2667 150.067 64.4917 148.467 64.575 146.7C64.5917 146.417 64.6917 146.2 64.875 146.05C65.0583 145.9 65.275 145.833 65.525 145.85C65.775 145.85 65.9917 145.925 66.175 146.075C66.3583 146.225 66.4417 146.442 66.425 146.725C66.375 147.875 66.275 148.95 66.125 149.95C66.3083 150.417 66.5 150.842 66.7 151.225C66.9167 151.608 67.1417 151.967 67.375 152.3V144.175H64.4C64.15 144.175 63.9333 144.083 63.75 143.9C63.5833 143.717 63.5 143.5 63.5 143.25C63.5 143 63.5833 142.783 63.75 142.6C63.9333 142.417 64.15 142.325 64.4 142.325H70.325C71.5417 142.325 72.3333 142.608 72.7 143.175C73.0667 143.742 73.0333 144.467 72.6 145.35C72.4833 145.567 72.35 145.808 72.2 146.075C72.05 146.342 71.9167 146.567 71.8 146.75C71.6667 146.983 71.4583 147.133 71.175 147.2C70.8917 147.267 70.625 147.233 70.375 147.1C70.1583 146.983 70.0083 146.8 69.925 146.55C69.8583 146.3 69.9083 146.042 70.075 145.775C70.1583 145.642 70.2417 145.5 70.325 145.35C70.425 145.2 70.5167 145.067 70.6 144.95C70.7833 144.65 70.8333 144.45 70.75 144.35C70.6667 144.233 70.4333 144.175 70.05 144.175H69.275V147.9H71.875C72.1417 147.9 72.3667 147.992 72.55 148.175C72.7333 148.358 72.825 148.583 72.825 148.85C72.825 149.117 72.7333 149.342 72.55 149.525C72.3667 149.708 72.1417 149.8 71.875 149.8H69.275V153.95C69.7083 154.167 70.1833 154.342 70.7 154.475C71.2333 154.608 71.825 154.692 72.475 154.725C72.7917 154.742 73.025 154.858 73.175 155.075C73.3417 155.308 73.4083 155.567 73.375 155.85C73.275 156.5 72.85 156.783 72.1 156.7C69.0833 156.433 66.9 155.075 65.55 152.625C65.35 153.308 65.1167 153.958 64.85 154.575C64.5833 155.192 64.2583 155.792 63.875 156.375C63.725 156.608 63.5083 156.75 63.225 156.8C62.9417 156.867 62.6833 156.833 62.45 156.7ZM60.625 142.3C59.675 142.3 58.925 142.217 58.375 142.05C57.8417 141.867 57.4583 141.575 57.225 141.175C57.0083 140.758 56.9 140.192 56.9 139.475V135.025C56.9 134.725 56.9917 134.492 57.175 134.325C57.375 134.158 57.6083 134.075 57.875 134.075C58.1417 134.075 58.375 134.158 58.575 134.325C58.775 134.492 58.875 134.725 58.875 135.025V136.85C59.4083 136.633 59.9917 136.392 60.625 136.125C61.275 135.842 61.8083 135.592 62.225 135.375C62.475 135.258 62.725 135.242 62.975 135.325C63.225 135.408 63.4083 135.567 63.525 135.8C63.6583 136.05 63.675 136.3 63.575 136.55C63.475 136.783 63.3 136.967 63.05 137.1C62.4833 137.367 61.8083 137.65 61.025 137.95C60.2417 138.25 59.525 138.508 58.875 138.725V139.3C58.875 139.733 58.9833 140.025 59.2 140.175C59.4333 140.325 59.9083 140.4 60.625 140.4C61.2917 140.4 61.75 140.325 62 140.175C62.2667 140.025 62.4417 139.725 62.525 139.275C62.575 139.025 62.725 138.842 62.975 138.725C63.225 138.592 63.475 138.567 63.725 138.65C64.3083 138.817 64.55 139.192 64.45 139.775C64.2667 140.658 63.8917 141.3 63.325 141.7C62.7583 142.1 61.8583 142.3 60.625 142.3ZM68.725 141.95C68.3583 141.55 67.9 141.125 67.35 140.675C66.8 140.208 66.2667 139.783 65.75 139.4C65.55 139.25 65.4333 139.05 65.4 138.8C65.3833 138.533 65.4583 138.308 65.625 138.125C65.8083 137.925 66.025 137.808 66.275 137.775C66.525 137.742 66.7667 137.8 67 137.95C67.1833 138.067 67.3667 138.2 67.55 138.35C67.7333 138.483 67.9167 138.625 68.1 138.775C68.3667 138.592 68.625 138.392 68.875 138.175C69.125 137.958 69.3583 137.767 69.575 137.6C69.8083 137.4 69.8917 137.233 69.825 137.1C69.775 136.95 69.5833 136.875 69.25 136.875H64.825C64.575 136.875 64.3583 136.792 64.175 136.625C64.0083 136.442 63.925 136.225 63.925 135.975C63.925 135.725 64.0083 135.517 64.175 135.35C64.3583 135.167 64.575 135.075 64.825 135.075H70.05C70.8333 135.075 71.4167 135.275 71.8 135.675C72.1833 136.075 72.3417 136.558 72.275 137.125C72.2083 137.675 71.8833 138.2 71.3 138.7C70.9833 138.95 70.6917 139.183 70.425 139.4C70.1583 139.6 69.8833 139.808 69.6 140.025C69.7 140.108 69.7917 140.192 69.875 140.275C69.975 140.342 70.0583 140.417 70.125 140.5C70.3417 140.683 70.45 140.917 70.45 141.2C70.4667 141.467 70.375 141.7 70.175 141.9C69.975 142.1 69.725 142.208 69.425 142.225C69.1417 142.242 68.9083 142.15 68.725 141.95ZM86.1 156.775C84.9 156.775 83.9417 156.642 83.225 156.375C82.525 156.125 82.025 155.675 81.725 155.025C81.425 154.375 81.275 153.475 81.275 152.325C81.275 151.158 81.425 150.258 81.725 149.625C82.025 148.975 82.525 148.525 83.225 148.275C83.9417 148.008 84.9 147.875 86.1 147.875H86.325V140.725C86.325 140.342 86.4417 140.042 86.675 139.825C86.9083 139.608 87.1833 139.5 87.5 139.5C87.8333 139.5 88.1083 139.608 88.325 139.825C88.5583 140.042 88.675 140.342 88.675 140.725V142.725H95.725C96.0583 142.725 96.3167 142.833 96.5 143.05C96.7 143.25 96.8 143.492 96.8 143.775C96.8 144.075 96.7 144.333 96.5 144.55C96.3167 144.75 96.0583 144.85 95.725 144.85H88.675V147.875H90.2C91.4167 147.875 92.375 148.008 93.075 148.275C93.775 148.525 94.275 148.975 94.575 149.625C94.875 150.258 95.025 151.158 95.025 152.325C95.025 153.475 94.875 154.375 94.575 155.025C94.275 155.675 93.775 156.125 93.075 156.375C92.375 156.642 91.4167 156.775 90.2 156.775H86.1ZM75.3 156.375C75 156.242 74.8083 156.025 74.725 155.725C74.6417 155.442 74.675 155.167 74.825 154.9C75.6583 153.467 76.25 151.858 76.6 150.075C76.95 148.275 77.125 146.108 77.125 143.575V142.2C77.125 140.95 77.2917 139.967 77.625 139.25C77.9583 138.517 78.5167 137.992 79.3 137.675C80.0833 137.358 81.1417 137.2 82.475 137.2H86.025V135C86.025 134.65 86.1417 134.375 86.375 134.175C86.625 133.958 86.9083 133.85 87.225 133.85C87.5583 133.85 87.8417 133.958 88.075 134.175C88.325 134.375 88.45 134.65 88.45 135V137.2H96.775C97.0917 137.2 97.3333 137.308 97.5 137.525C97.6833 137.725 97.775 137.967 97.775 138.25C97.775 138.517 97.6833 138.758 97.5 138.975C97.3333 139.192 97.0917 139.3 96.775 139.3H82.575C81.7083 139.3 81.0333 139.383 80.55 139.55C80.0833 139.7 79.7583 139.983 79.575 140.4C79.3917 140.817 79.3 141.417 79.3 142.2V143.6C79.3 146.183 79.1167 148.458 78.75 150.425C78.4 152.375 77.775 154.183 76.875 155.85C76.725 156.133 76.5 156.317 76.2 156.4C75.9 156.5 75.6 156.492 75.3 156.375ZM86.3 154.7H90C90.7333 154.7 91.3 154.65 91.7 154.55C92.1 154.433 92.375 154.208 92.525 153.875C92.6917 153.525 92.775 153.008 92.775 152.325C92.775 151.642 92.6917 151.133 92.525 150.8C92.375 150.45 92.1 150.225 91.7 150.125C91.3 150.008 90.7333 149.95 90 149.95H86.3C85.5667 149.95 84.9917 150.008 84.575 150.125C84.175 150.225 83.9 150.45 83.75 150.8C83.6 151.133 83.525 151.642 83.525 152.325C83.525 153.008 83.6 153.525 83.75 153.875C83.9 154.208 84.175 154.433 84.575 154.55C84.9917 154.65 85.5667 154.7 86.3 154.7Z" fill="black"/>
<path d="M16 25.5C16 19.9772 20.4772 15.5 26 15.5H153C158.523 15.5 163 19.9772 163 25.5V152C163 157.523 158.523 162 153 162H111V147.5C111 133.693 99.8071 122.5 86 122.5H16V25.5Z" fill="#D9D9D9"/>
<defs>
<filter id="filter0_d_0_1" x="0" y="0" width="182" height="183" filterUnits="userSpaceOnUse" color-interpolation-filters="sRGB">
<feFlood flood-opacity="0" result="BackgroundImageFix"/>
<feColorMatrix in="SourceAlpha" type="matrix" values="0 0 0 0 0 0 0 0 0 0 0 0 0 0 0 0 0 0 127 0" result="hardAlpha"/>
<feOffset dx="7" dy="8"/>
<feComposite in2="hardAlpha" operator="out"/>
<feColorMatrix type="matrix" values="0 0 0 0 0.262745 0 0 0 0 0.721569 0 0 0 0 0.729412 0 0 0 1 0"/>
<feBlend mode="normal" in2="BackgroundImageFix" result="effect1_dropShadow_0_1"/>
<feBlend mode="normal" in="SourceGraphic" in2="effect1_dropShadow_0_1" result="shape"/>
</filter>
</defs>
</svg>
