<svg width="182" height="183" viewBox="0 0 182 183" fill="none" xmlns="http://www.w3.org/2000/svg">
<g filter="url(#filter0_d_0_1)">
<rect width="175" height="175" rx="15" fill="white"/>
<rect x="0.5" y="0.5" width="174" height="174" rx="14.5" stroke="#43B8BA"/>
</g>
<path d="M27.28 32.552C27.1093 32.6587 26.9227 32.6907 26.72 32.648C26.528 32.5947 26.3733 32.4827 26.256 32.312C26.1493 32.1307 26.1173 31.944 26.16 31.752C26.2133 31.5493 26.3253 31.3947 26.496 31.288C27.552 30.6587 28.5387 29.944 29.456 29.144C30.384 28.344 31.2213 27.4907 31.968 26.584C31.5093 26.2747 31.0667 25.9867 30.64 25.72C30.2133 25.4533 29.84 25.24 29.52 25.08C29.3387 24.9947 29.2107 24.856 29.136 24.664C29.0613 24.472 29.0667 24.2853 29.152 24.104C29.2373 23.912 29.3813 23.7893 29.584 23.736C29.7867 23.6827 29.9787 23.6987 30.16 23.784C30.5653 23.976 30.9973 24.2107 31.456 24.488C31.9253 24.7653 32.4 25.0693 32.88 25.4C33.2427 24.888 33.5787 24.3653 33.888 23.832C34.208 23.2987 34.4907 22.7547 34.736 22.2C34.8213 22.0187 34.96 21.8907 35.152 21.816C35.3547 21.7413 35.5467 21.7467 35.728 21.832C35.9093 21.9173 36.0373 22.0613 36.112 22.264C36.1867 22.456 36.1813 22.6427 36.096 22.824C35.8293 23.3893 35.52 23.96 35.168 24.536C34.8267 25.112 34.448 25.6827 34.032 26.248C34.5227 26.6107 34.9813 26.9787 35.408 27.352C35.8453 27.7253 36.2133 28.0667 36.512 28.376C36.6613 28.5147 36.7307 28.6907 36.72 28.904C36.72 29.1173 36.6453 29.2987 36.496 29.448C36.336 29.5867 36.1493 29.656 35.936 29.656C35.7333 29.656 35.5573 29.576 35.408 29.416C35.1413 29.128 34.8053 28.8133 34.4 28.472C33.9947 28.12 33.5627 27.7733 33.104 27.432C32.2827 28.4133 31.376 29.3467 30.384 30.232C29.392 31.1067 28.3573 31.88 27.28 32.552ZM48.8 33.448C48.5973 33.448 48.4213 33.3733 48.272 33.224C48.1333 33.0853 48.064 32.9147 48.064 32.712V25.8C47.3493 26.4613 46.592 27.1013 45.792 27.72C44.992 28.328 44.1973 28.872 43.408 29.352C43.2373 29.4587 43.0507 29.4853 42.848 29.432C42.656 29.3787 42.5013 29.2667 42.384 29.096C42.2773 28.9147 42.2507 28.728 42.304 28.536C42.3573 28.3333 42.4693 28.1787 42.64 28.072C43.6853 27.4427 44.688 26.7493 45.648 25.992C46.608 25.2347 47.4933 24.4347 48.304 23.592C49.1147 22.7493 49.808 21.9067 50.384 21.064C50.5013 20.8933 50.656 20.792 50.848 20.76C51.0507 20.7173 51.2373 20.7547 51.408 20.872C51.5787 20.9893 51.68 21.1493 51.712 21.352C51.7547 21.5547 51.7173 21.7413 51.6 21.912C51.3227 22.3067 51.008 22.712 50.656 23.128C50.3147 23.5333 49.9467 23.944 49.552 24.36V32.712C49.552 32.9147 49.4773 33.0853 49.328 33.224C49.1893 33.3733 49.0133 33.448 48.8 33.448ZM60.112 32.216C59.92 32.2907 59.7333 32.2853 59.552 32.2C59.3707 32.1147 59.2427 31.976 59.168 31.784C59.0933 31.592 59.0987 31.4053 59.184 31.224C59.28 31.032 59.424 30.8987 59.616 30.824C60.4907 30.504 61.3653 30.1253 62.24 29.688C63.1147 29.24 63.952 28.76 64.752 28.248C65.5627 27.7253 66.2933 27.1867 66.944 26.632C67.6053 26.0773 68.1547 25.5333 68.592 25C68.72 24.84 68.8853 24.7547 69.088 24.744C69.2907 24.7227 69.472 24.776 69.632 24.904C69.792 25.032 69.8827 25.1973 69.904 25.4C69.9253 25.6027 69.872 25.784 69.744 25.944C69.3173 26.4667 68.7413 27.0267 68.016 27.624C67.2907 28.2213 66.4853 28.8133 65.6 29.4C64.7147 29.976 63.7973 30.5093 62.848 31C61.9093 31.4907 60.9973 31.896 60.112 32.216ZM61.744 26.008C61.488 25.784 61.1947 25.5493 60.864 25.304C60.544 25.0587 60.2187 24.824 59.888 24.6C59.568 24.376 59.2747 24.184 59.008 24.024C58.8373 23.9173 58.7253 23.768 58.672 23.576C58.6187 23.3733 58.6453 23.1867 58.752 23.016C58.8587 22.8347 59.0133 22.7173 59.216 22.664C59.4187 22.6107 59.6053 22.6427 59.776 22.76C60.0427 22.9307 60.3573 23.1493 60.72 23.416C61.0933 23.672 61.456 23.9333 61.808 24.2C62.16 24.456 62.4427 24.6693 62.656 24.84C62.816 24.968 62.9067 25.1333 62.928 25.336C62.96 25.5387 62.912 25.72 62.784 25.88C62.6667 26.04 62.5013 26.136 62.288 26.168C62.0853 26.2 61.904 26.1467 61.744 26.008ZM74.864 32.488C74.6827 32.5733 74.4907 32.584 74.288 32.52C74.096 32.4453 73.9573 32.3173 73.872 32.136C73.7867 31.9547 73.776 31.768 73.84 31.576C73.904 31.3733 74.0267 31.2293 74.208 31.144C75.7653 30.3973 77.1627 29.4747 78.4 28.376C79.648 27.2667 80.6453 26.056 81.392 24.744C81.8613 23.912 81.5467 23.496 80.448 23.496H75.936C75.7333 23.496 75.5573 23.4213 75.408 23.272C75.2693 23.1227 75.2 22.9467 75.2 22.744C75.2 22.5413 75.2693 22.3707 75.408 22.232C75.5573 22.0827 75.7333 22.008 75.936 22.008H80.448C81.3013 22.008 81.952 22.1573 82.4 22.456C82.8587 22.7547 83.1093 23.1653 83.152 23.688C83.2053 24.2107 83.04 24.808 82.656 25.48C82.5067 25.736 82.3413 25.9973 82.16 26.264C81.9893 26.52 81.8027 26.7813 81.6 27.048C82.112 27.4533 82.64 27.912 83.184 28.424C83.728 28.9253 84.24 29.416 84.72 29.896C85.2 30.376 85.5893 30.7813 85.888 31.112C86.0373 31.2507 86.112 31.4213 86.112 31.624C86.112 31.8267 86.0373 32.0027 85.888 32.152C85.7387 32.2907 85.5627 32.36 85.36 32.36C85.1573 32.36 84.9813 32.2853 84.832 32.136C84.6187 31.9227 84.352 31.6507 84.032 31.32C83.712 30.9787 83.36 30.6213 82.976 30.248C82.592 29.864 82.2027 29.4853 81.808 29.112C81.424 28.7387 81.056 28.4027 80.704 28.104C79.904 28.9787 79.0027 29.7947 78 30.552C76.9973 31.3093 75.952 31.9547 74.864 32.488ZM92.128 33.208C91.9467 33.304 91.7547 33.32 91.552 33.256C91.36 33.2027 91.216 33.0853 91.12 32.904C91.0347 32.7227 91.0187 32.536 91.072 32.344C91.136 32.1413 91.2587 31.992 91.44 31.896C92.208 31.4907 92.8853 30.9947 93.472 30.408C94.0693 29.8213 94.5493 29.176 94.912 28.472C95.2853 27.7573 95.5147 27.0267 95.6 26.28H90.688C90.4853 26.28 90.3147 26.2107 90.176 26.072C90.0373 25.9333 89.968 25.7627 89.968 25.56C89.968 25.3573 90.0373 25.1867 90.176 25.048C90.3147 24.9093 90.4853 24.84 90.688 24.84H101.296C101.499 24.84 101.669 24.9093 101.808 25.048C101.947 25.1867 102.016 25.3573 102.016 25.56C102.016 25.7627 101.947 25.9333 101.808 26.072C101.669 26.2107 101.499 26.28 101.296 26.28H97.04C96.9547 27.208 96.6987 28.1093 96.272 28.984C95.8453 29.8587 95.28 30.6587 94.576 31.384C93.872 32.1093 93.056 32.7173 92.128 33.208ZM92.56 23C92.368 23 92.1973 22.9307 92.048 22.792C91.9093 22.6533 91.84 22.4827 91.84 22.28C91.84 22.088 91.9093 21.9227 92.048 21.784C92.1973 21.6347 92.368 21.56 92.56 21.56H99.6C99.792 21.56 99.9573 21.6347 100.096 21.784C100.245 21.9227 100.32 22.088 100.32 22.28C100.32 22.4827 100.245 22.6533 100.096 22.792C99.9573 22.9307 99.792 23 99.6 23H92.56ZM107.024 27.768C106.821 27.768 106.645 27.6987 106.496 27.56C106.357 27.4107 106.288 27.2347 106.288 27.032C106.288 26.8187 106.357 26.6427 106.496 26.504C106.645 26.3653 106.821 26.296 107.024 26.296H116.992C117.195 26.296 117.365 26.3653 117.504 26.504C117.653 26.6427 117.728 26.8187 117.728 27.032C117.728 27.2347 117.653 27.4107 117.504 27.56C117.365 27.6987 117.195 27.768 116.992 27.768H107.024ZM123.936 32.648C123.744 32.712 123.557 32.696 123.376 32.6C123.195 32.504 123.072 32.36 123.008 32.168C122.944 31.976 122.96 31.7893 123.056 31.608C123.152 31.4267 123.296 31.304 123.488 31.24C124.32 30.9733 125.168 30.6107 126.032 30.152C126.907 29.6933 127.749 29.1707 128.56 28.584C129.381 27.9867 130.133 27.352 130.816 26.68C131.499 25.9973 132.075 25.3147 132.544 24.632C132.661 24.4613 132.816 24.36 133.008 24.328C133.211 24.2853 133.397 24.3227 133.568 24.44C133.739 24.5467 133.84 24.7013 133.872 24.904C133.915 25.1067 133.877 25.2933 133.76 25.464C133.28 26.168 132.667 26.888 131.92 27.624C131.173 28.3493 130.347 29.0427 129.44 29.704C128.533 30.3653 127.605 30.952 126.656 31.464C125.717 31.976 124.811 32.3707 123.936 32.648ZM124.768 27.528C124.608 27.4 124.379 27.2453 124.08 27.064C123.781 26.872 123.477 26.6907 123.168 26.52C122.859 26.3387 122.608 26.2053 122.416 26.12C122.224 26.0347 122.096 25.896 122.032 25.704C121.979 25.5013 121.995 25.3093 122.08 25.128C122.176 24.9467 122.32 24.824 122.512 24.76C122.704 24.696 122.891 24.7067 123.072 24.792C123.328 24.9093 123.627 25.064 123.968 25.256C124.309 25.448 124.64 25.6453 124.96 25.848C125.28 26.0507 125.536 26.2267 125.728 26.376C125.888 26.504 125.973 26.6747 125.984 26.888C126.005 27.0907 125.947 27.272 125.808 27.432C125.68 27.5813 125.515 27.6667 125.312 27.688C125.12 27.6987 124.939 27.6453 124.768 27.528ZM126.496 24.712C126.347 24.5733 126.123 24.408 125.824 24.216C125.536 24.0133 125.243 23.816 124.944 23.624C124.645 23.432 124.4 23.288 124.208 23.192C124.027 23.096 123.909 22.9467 123.856 22.744C123.803 22.5413 123.829 22.3547 123.936 22.184C124.043 22.0027 124.192 21.8907 124.384 21.848C124.587 21.7947 124.773 21.816 124.944 21.912C125.189 22.04 125.472 22.2107 125.792 22.424C126.123 22.6267 126.443 22.84 126.752 23.064C127.072 23.2773 127.323 23.4693 127.504 23.64C127.653 23.768 127.733 23.9387 127.744 24.152C127.755 24.3547 127.685 24.5307 127.536 24.68C127.397 24.8293 127.227 24.9093 127.024 24.92C126.821 24.92 126.645 24.8507 126.496 24.712ZM133.408 22.152C133.301 22.2587 133.163 22.312 132.992 22.312C132.832 22.3013 132.699 22.2373 132.592 22.12C132.432 21.9387 132.256 21.7573 132.064 21.576C131.883 21.3947 131.701 21.2293 131.52 21.08C131.413 20.9947 131.349 20.8773 131.328 20.728C131.307 20.5787 131.349 20.4507 131.456 20.344C131.563 20.216 131.685 20.1573 131.824 20.168C131.973 20.168 132.112 20.2107 132.24 20.296C132.4 20.4027 132.592 20.5573 132.816 20.76C133.051 20.9627 133.253 21.144 133.424 21.304C133.541 21.4107 133.595 21.5493 133.584 21.72C133.584 21.8907 133.525 22.0347 133.408 22.152ZM132.08 23.464C131.963 23.5707 131.819 23.6187 131.648 23.608C131.488 23.5973 131.36 23.528 131.264 23.4C131.115 23.2187 130.949 23.0373 130.768 22.856C130.587 22.664 130.405 22.488 130.224 22.328C130.117 22.232 130.059 22.1147 130.048 21.976C130.037 21.8267 130.085 21.6933 130.192 21.576C130.309 21.4587 130.437 21.4053 130.576 21.416C130.725 21.4267 130.859 21.48 130.976 21.576C131.136 21.6933 131.328 21.8587 131.552 22.072C131.776 22.2747 131.963 22.4613 132.112 22.632C132.229 22.7493 132.283 22.8933 132.272 23.064C132.261 23.224 132.197 23.3573 132.08 23.464ZM142.608 33.576C141.392 33.576 140.464 33.272 139.824 32.664C139.184 32.056 138.864 31.2133 138.864 30.136C138.864 29.528 138.997 29.0053 139.264 28.568C139.541 28.12 139.899 27.7307 140.336 27.4C140.773 27.0587 141.237 26.7493 141.728 26.472C141.429 26.12 141.157 25.7893 140.912 25.48C140.677 25.1707 140.491 24.8453 140.352 24.504C140.213 24.1627 140.144 23.7787 140.144 23.352C140.144 22.712 140.299 22.1787 140.608 21.752C140.928 21.3253 141.339 21.0053 141.84 20.792C142.341 20.568 142.864 20.456 143.408 20.456C144.069 20.456 144.64 20.584 145.12 20.84C145.6 21.0853 145.968 21.4213 146.224 21.848C146.491 22.2747 146.624 22.7547 146.624 23.288C146.624 23.8533 146.491 24.3493 146.224 24.776C145.968 25.192 145.627 25.56 145.2 25.88C144.784 26.2 144.336 26.4987 143.856 26.776C144.016 26.9573 144.224 27.208 144.48 27.528C144.747 27.8373 145.04 28.184 145.36 28.568C145.68 28.9413 146 29.3253 146.32 29.72C146.608 29.3573 146.896 28.9733 147.184 28.568C147.472 28.1627 147.765 27.736 148.064 27.288C148.181 27.128 148.336 27.0267 148.528 26.984C148.72 26.9413 148.896 26.9787 149.056 27.096C149.227 27.2027 149.328 27.3573 149.36 27.56C149.403 27.752 149.365 27.928 149.248 28.088C148.917 28.568 148.587 29.0427 148.256 29.512C147.925 29.9707 147.589 30.4027 147.248 30.808C147.557 31.1707 147.829 31.496 148.064 31.784C148.299 32.0613 148.469 32.264 148.576 32.392C148.704 32.5413 148.757 32.7173 148.736 32.92C148.725 33.1227 148.64 33.288 148.48 33.416C148.331 33.5547 148.155 33.6133 147.952 33.592C147.749 33.5707 147.584 33.4853 147.456 33.336L146.256 31.88C145.712 32.392 145.141 32.8027 144.544 33.112C143.947 33.4213 143.301 33.576 142.608 33.576ZM142.688 32.152C143.147 32.152 143.595 32.0347 144.032 31.8C144.48 31.5547 144.917 31.2187 145.344 30.792C145.003 30.376 144.656 29.9653 144.304 29.56C143.963 29.144 143.643 28.76 143.344 28.408C143.056 28.0453 142.811 27.7413 142.608 27.496C142.213 27.7307 141.851 27.976 141.52 28.232C141.2 28.488 140.939 28.7707 140.736 29.08C140.544 29.3787 140.448 29.7307 140.448 30.136C140.448 30.8507 140.64 31.368 141.024 31.688C141.419 31.9973 141.973 32.152 142.688 32.152ZM142.976 25.768C143.563 25.4267 144.059 25.0693 144.464 24.696C144.88 24.312 145.088 23.8427 145.088 23.288C145.088 22.8293 144.928 22.4613 144.608 22.184C144.299 21.9067 143.904 21.768 143.424 21.768C142.933 21.768 142.507 21.912 142.144 22.2C141.792 22.4773 141.616 22.872 141.616 23.384C141.616 23.8533 141.755 24.2693 142.032 24.632C142.309 24.984 142.624 25.3627 142.976 25.768ZM31.776 51.392C31.5947 51.392 31.44 51.3333 31.312 51.216C31.184 51.0987 31.12 50.9387 31.12 50.736V48.368H30.272C30.1333 48.368 30.0107 48.3147 29.904 48.208C29.808 48.1013 29.76 47.9787 29.76 47.84C29.76 47.6907 29.808 47.568 29.904 47.472C30.0107 47.3653 30.1333 47.312 30.272 47.312H31.12V45.52C31.12 45.0293 31.1893 44.64 31.328 44.352C31.4667 44.0533 31.7013 43.84 32.032 43.712C32.3733 43.5733 32.848 43.504 33.456 43.504H34.016V42.832H30.496C30.3467 42.832 30.2187 42.7787 30.112 42.672C30.0053 42.5653 29.952 42.4427 29.952 42.304C29.952 42.1547 30.0053 42.0267 30.112 41.92C30.2187 41.8133 30.3467 41.76 30.496 41.76H32.48V40.896H31.184C31.0453 40.896 30.9227 40.848 30.816 40.752C30.7093 40.6453 30.656 40.5227 30.656 40.384C30.656 40.2347 30.7093 40.112 30.816 40.016C30.9227 39.9093 31.0453 39.856 31.184 39.856H32.48V39.104H30.656C30.5173 39.104 30.3947 39.0507 30.288 38.944C30.192 38.8373 30.144 38.7147 30.144 38.576C30.144 38.4267 30.192 38.304 30.288 38.208C30.3947 38.1013 30.5173 38.048 30.656 38.048H32.48V37.152C32.48 36.96 32.544 36.8053 32.672 36.688C32.8 36.5707 32.9493 36.512 33.12 36.512C33.3013 36.512 33.4507 36.5707 33.568 36.688C33.6853 36.8053 33.744 36.96 33.744 37.152V38.048H35.536V37.152C35.536 36.96 35.6 36.8053 35.728 36.688C35.856 36.5707 36.0053 36.512 36.176 36.512C36.3467 36.512 36.4907 36.5707 36.608 36.688C36.736 36.8053 36.8 36.96 36.8 37.152V38.048H38.672C38.8213 38.048 38.944 38.1013 39.04 38.208C39.136 38.304 39.184 38.4267 39.184 38.576C39.184 38.7147 39.136 38.8373 39.04 38.944C38.944 39.0507 38.8213 39.104 38.672 39.104H36.8V39.856H38.24C38.3893 39.856 38.512 39.9093 38.608 40.016C38.704 40.112 38.752 40.2347 38.752 40.384C38.752 40.5227 38.704 40.6453 38.608 40.752C38.512 40.848 38.3893 40.896 38.24 40.896H36.8V41.76H38.88C39.0293 41.76 39.152 41.8133 39.248 41.92C39.3547 42.0267 39.408 42.1547 39.408 42.304C39.408 42.4427 39.3547 42.5653 39.248 42.672C39.152 42.7787 39.0293 42.832 38.88 42.832H35.28V43.504H35.84C36.7573 43.504 37.376 43.6587 37.696 43.968C38.0267 44.2667 38.192 44.784 38.192 45.52V47.312H39.104C39.2533 47.312 39.376 47.3653 39.472 47.472C39.5787 47.568 39.632 47.6907 39.632 47.84C39.632 47.9787 39.5787 48.1013 39.472 48.208C39.376 48.3147 39.2533 48.368 39.104 48.368H38.192V49.456C38.192 50.1493 38.032 50.64 37.712 50.928C37.4027 51.2267 36.8427 51.376 36.032 51.376C35.8507 51.376 35.7013 51.312 35.584 51.184C35.4773 51.0667 35.4133 50.9227 35.392 50.752C35.3813 50.5707 35.4347 50.416 35.552 50.288C35.6693 50.1707 35.8293 50.1067 36.032 50.096C36.416 50.0747 36.6507 50.0267 36.736 49.952C36.832 49.8667 36.88 49.664 36.88 49.344V48.368H32.416V50.736C32.416 50.9387 32.352 51.0987 32.224 51.216C32.1067 51.3333 31.9573 51.392 31.776 51.392ZM27.456 50.864C26.8587 50.864 26.3893 50.7893 26.048 50.64C25.7173 50.5013 25.4827 50.2667 25.344 49.936C25.216 49.5947 25.152 49.1307 25.152 48.544C25.152 47.9573 25.216 47.4987 25.344 47.168C25.4827 46.8373 25.7173 46.6027 26.048 46.464C26.3893 46.3147 26.8587 46.24 27.456 46.24C28.0533 46.24 28.5173 46.3147 28.848 46.464C29.1893 46.6027 29.424 46.8373 29.552 47.168C29.6907 47.4987 29.76 47.9573 29.76 48.544C29.76 49.1307 29.6907 49.5947 29.552 49.936C29.424 50.2667 29.1893 50.5013 28.848 50.64C28.5173 50.7893 28.0533 50.864 27.456 50.864ZM24.928 40.816C24.768 40.816 24.6293 40.7573 24.512 40.64C24.4053 40.512 24.352 40.368 24.352 40.208C24.352 40.0373 24.4053 39.8933 24.512 39.776C24.6293 39.648 24.768 39.584 24.928 39.584H29.792C29.952 39.584 30.0907 39.648 30.208 39.776C30.3253 39.8933 30.384 40.0373 30.384 40.208C30.384 40.368 30.3253 40.512 30.208 40.64C30.0907 40.7573 29.952 40.816 29.792 40.816H24.928ZM25.728 38.608C25.5573 38.608 25.4133 38.544 25.296 38.416C25.1787 38.288 25.12 38.144 25.12 37.984C25.12 37.8133 25.1787 37.6693 25.296 37.552C25.4133 37.424 25.5573 37.36 25.728 37.36H29.072C29.232 37.36 29.3707 37.424 29.488 37.552C29.6053 37.6693 29.664 37.8133 29.664 37.984C29.664 38.144 29.6053 38.288 29.488 38.416C29.3707 38.544 29.232 38.608 29.072 38.608H25.728ZM25.696 45.248C25.536 45.248 25.3973 45.1893 25.28 45.072C25.1733 44.944 25.12 44.8 25.12 44.64C25.12 44.4693 25.1733 44.3253 25.28 44.208C25.3973 44.08 25.536 44.016 25.696 44.016H29.072C29.2427 44.016 29.3813 44.08 29.488 44.208C29.6053 44.3253 29.664 44.4693 29.664 44.64C29.664 44.8 29.6053 44.944 29.488 45.072C29.3813 45.1893 29.2427 45.248 29.072 45.248H25.696ZM25.696 43.04C25.536 43.04 25.3973 42.9813 25.28 42.864C25.1733 42.736 25.12 42.5867 25.12 42.416C25.12 42.256 25.1733 42.1173 25.28 42C25.3973 41.872 25.536 41.808 25.696 41.808H29.072C29.2427 41.808 29.3813 41.872 29.488 42C29.6053 42.1173 29.664 42.256 29.664 42.416C29.664 42.5867 29.6053 42.736 29.488 42.864C29.3813 42.9813 29.2427 43.04 29.072 43.04H25.696ZM27.456 49.68C27.8507 49.68 28.112 49.616 28.24 49.488C28.368 49.3493 28.432 49.0347 28.432 48.544C28.432 48.0747 28.368 47.7707 28.24 47.632C28.112 47.4933 27.8507 47.424 27.456 47.424C27.0613 47.424 26.8 47.4933 26.672 47.632C26.544 47.7707 26.48 48.0747 26.48 48.544C26.48 49.0347 26.544 49.3493 26.672 49.488C26.8 49.616 27.0613 49.68 27.456 49.68ZM33.744 41.76H35.536V40.896H33.744V41.76ZM32.416 47.312H34.016V46.416H32.416V47.312ZM35.28 47.312H36.88V46.416H35.28V47.312ZM33.744 39.856H35.536V39.104H33.744V39.856ZM35.28 45.376H36.88C36.8693 45.0347 36.7893 44.8107 36.64 44.704C36.5013 44.5973 36.2347 44.544 35.84 44.544H35.28V45.376ZM32.416 45.376H34.016V44.544H33.456C33.0613 44.544 32.7947 44.5973 32.656 44.704C32.5173 44.8107 32.4373 45.0347 32.416 45.376ZM41.36 50.736C41.168 50.736 41.0133 50.672 40.896 50.544C40.7787 50.416 40.72 50.2667 40.72 50.096C40.72 49.9147 40.7787 49.7653 40.896 49.648C41.0133 49.5307 41.168 49.472 41.36 49.472H47.264V48.096H43.12C42.9387 48.096 42.7893 48.0373 42.672 47.92C42.5547 47.792 42.496 47.6427 42.496 47.472C42.496 47.2907 42.5547 47.1413 42.672 47.024C42.7893 46.9067 42.9387 46.848 43.12 46.848H47.264V45.648H46.336C45.472 45.648 44.8693 45.504 44.528 45.216C44.1973 44.928 44.032 44.4107 44.032 43.664C44.032 42.9067 44.1973 42.3947 44.528 42.128C44.8693 41.8507 45.472 41.712 46.336 41.712H49.68C50.544 41.712 51.1413 41.8507 51.472 42.128C51.8133 42.3947 51.984 42.9067 51.984 43.664C51.984 44.4107 51.8133 44.928 51.472 45.216C51.1413 45.504 50.544 45.648 49.68 45.648H48.752V46.848H52.832C53.024 46.848 53.1733 46.9067 53.28 47.024C53.3973 47.1413 53.456 47.2907 53.456 47.472C53.456 47.6427 53.3973 47.792 53.28 47.92C53.1733 48.0373 53.024 48.096 52.832 48.096H48.752V49.472H54.64C54.832 49.472 54.9867 49.5307 55.104 49.648C55.2213 49.7653 55.28 49.9147 55.28 50.096C55.28 50.2667 55.2213 50.416 55.104 50.544C54.9867 50.672 54.832 50.736 54.64 50.736H41.36ZM41.856 43.392C41.6427 43.392 41.4667 43.328 41.328 43.2C41.1893 43.0613 41.12 42.8853 41.12 42.672V41.776C41.12 40.9333 41.328 40.336 41.744 39.984C42.1707 39.632 42.9067 39.456 43.952 39.456H44.512C44.4693 39.4133 44.4373 39.376 44.416 39.344C44.352 39.216 44.2613 39.0613 44.144 38.88C44.0267 38.688 43.9093 38.5013 43.792 38.32C43.6747 38.1387 43.5787 38 43.504 37.904C43.3973 37.744 43.3653 37.5733 43.408 37.392C43.4613 37.2 43.568 37.056 43.728 36.96C43.9093 36.8427 44.096 36.8 44.288 36.832C44.4907 36.864 44.6453 36.96 44.752 37.12C44.8373 37.2267 44.9387 37.376 45.056 37.568C45.184 37.76 45.3067 37.952 45.424 38.144C45.5413 38.336 45.6267 38.48 45.68 38.576C45.7653 38.7253 45.7973 38.88 45.776 39.04C45.7653 39.2 45.7013 39.3387 45.584 39.456H47.232V37.264C47.232 37.0293 47.3067 36.848 47.456 36.72C47.616 36.5813 47.7973 36.512 48 36.512C48.2133 36.512 48.3947 36.5813 48.544 36.72C48.6933 36.848 48.768 37.0293 48.768 37.264V39.456H50.48C50.3413 39.3707 50.2453 39.2427 50.192 39.072C50.1493 38.8907 50.176 38.7253 50.272 38.576C50.3467 38.4693 50.4427 38.3253 50.56 38.144C50.6773 37.9627 50.7893 37.7813 50.896 37.6C51.0133 37.4187 51.0987 37.28 51.152 37.184C51.2693 37.0027 51.4187 36.8853 51.6 36.832C51.792 36.7787 51.9733 36.8053 52.144 36.912C52.3253 37.0187 52.4427 37.168 52.496 37.36C52.5493 37.5413 52.528 37.7173 52.432 37.888C52.3787 37.9733 52.2933 38.1067 52.176 38.288C52.0587 38.4693 51.9413 38.6507 51.824 38.832C51.7067 39.0133 51.6107 39.152 51.536 39.248C51.472 39.344 51.3973 39.4133 51.312 39.456H52.08C53.1253 39.456 53.856 39.632 54.272 39.984C54.688 40.336 54.896 40.9333 54.896 41.776V42.624C54.896 42.8373 54.8267 43.0133 54.688 43.152C54.5493 43.28 54.3733 43.344 54.16 43.344C53.9467 43.344 53.7707 43.28 53.632 43.152C53.4933 43.0133 53.424 42.8373 53.424 42.624V41.824C53.424 41.3973 53.328 41.1147 53.136 40.976C52.9547 40.8267 52.5813 40.752 52.016 40.752H44C43.4453 40.752 43.072 40.8267 42.88 40.976C42.688 41.1147 42.592 41.3973 42.592 41.824V42.672C42.592 42.8853 42.5227 43.0613 42.384 43.2C42.256 43.328 42.08 43.392 41.856 43.392ZM46.512 44.416H49.504C49.92 44.416 50.1973 44.3627 50.336 44.256C50.4747 44.1493 50.544 43.952 50.544 43.664C50.544 43.3653 50.4747 43.1627 50.336 43.056C50.1973 42.9493 49.92 42.896 49.504 42.896H46.512C46.096 42.896 45.8133 42.9493 45.664 43.056C45.5253 43.1627 45.456 43.3653 45.456 43.664C45.456 43.952 45.5253 44.1493 45.664 44.256C45.8133 44.3627 46.096 44.416 46.512 44.416ZM69.792 50.72C69.6107 50.848 69.4027 50.8907 69.168 50.848C68.944 50.8053 68.7733 50.6933 68.656 50.512C68.528 50.32 68.3787 50.1067 68.208 49.872C68.048 49.6373 67.8773 49.392 67.696 49.136C67.2267 49.2 66.6667 49.2747 66.016 49.36C65.376 49.4347 64.6987 49.5147 63.984 49.6C63.2693 49.6853 62.5547 49.7707 61.84 49.856C61.1253 49.9307 60.4533 50 59.824 50.064C59.2053 50.128 58.672 50.1813 58.224 50.224C57.9573 50.2453 57.744 50.1973 57.584 50.08C57.424 49.9627 57.3333 49.7867 57.312 49.552C57.3013 49.3493 57.36 49.1733 57.488 49.024C57.616 48.864 57.7973 48.7787 58.032 48.768C58.2667 48.7467 58.5333 48.7253 58.832 48.704C59.1307 48.6827 59.4507 48.656 59.792 48.624C60.016 48.1973 60.2667 47.7013 60.544 47.136C60.8213 46.5707 61.0987 45.984 61.376 45.376C61.664 44.768 61.9253 44.1867 62.16 43.632C62.4053 43.0667 62.6027 42.5813 62.752 42.176C62.8373 41.9733 62.976 41.8293 63.168 41.744C63.36 41.6587 63.5573 41.6533 63.76 41.728C63.9733 41.8027 64.1227 41.936 64.208 42.128C64.2933 42.32 64.2933 42.5173 64.208 42.72C63.9947 43.2427 63.7333 43.8453 63.424 44.528C63.1147 45.2 62.7893 45.8827 62.448 46.576C62.1173 47.2693 61.7973 47.904 61.488 48.48C62.4053 48.3947 63.3387 48.304 64.288 48.208C65.248 48.1013 66.0853 48.0107 66.8 47.936C66.4907 47.5307 66.1867 47.152 65.888 46.8C65.6 46.4373 65.3387 46.128 65.104 45.872C64.9653 45.7227 64.9013 45.552 64.912 45.36C64.9227 45.1573 65.0027 44.9973 65.152 44.88C65.312 44.7413 65.4933 44.6773 65.696 44.688C65.8987 44.6987 66.0693 44.7787 66.208 44.928C66.464 45.1947 66.7573 45.5253 67.088 45.92C67.4187 46.304 67.76 46.72 68.112 47.168C68.464 47.6053 68.8 48.0373 69.12 48.464C69.4507 48.88 69.7333 49.2533 69.968 49.584C70.1067 49.7653 70.16 49.968 70.128 50.192C70.096 50.416 69.984 50.592 69.792 50.72ZM70.128 44.704C69.5093 44.2773 68.9227 43.792 68.368 43.248C67.8133 42.6933 67.312 42.1227 66.864 41.536C66.416 40.9387 66.0373 40.3573 65.728 39.792C65.5893 39.5147 65.4613 39.312 65.344 39.184C65.2373 39.0453 65.0987 38.9547 64.928 38.912C64.768 38.8587 64.5333 38.832 64.224 38.832H62.912C62.72 38.832 62.56 38.768 62.432 38.64C62.304 38.5013 62.24 38.3413 62.24 38.16C62.24 37.968 62.304 37.808 62.432 37.68C62.56 37.5413 62.72 37.472 62.912 37.472H64.224C64.7787 37.472 65.216 37.52 65.536 37.616C65.8667 37.712 66.1387 37.8773 66.352 38.112C66.576 38.336 66.8 38.656 67.024 39.072C67.4613 39.872 68.0373 40.6613 68.752 41.44C69.4773 42.2187 70.2667 42.88 71.12 43.424C71.312 43.5413 71.4293 43.7173 71.472 43.952C71.5253 44.176 71.4773 44.3787 71.328 44.56C71.1893 44.7413 71.0027 44.848 70.768 44.88C70.544 44.9013 70.3307 44.8427 70.128 44.704ZM56.784 44.848C56.624 44.6987 56.5493 44.5173 56.56 44.304C56.5707 44.08 56.6613 43.8933 56.832 43.744C57.28 43.3493 57.7333 42.88 58.192 42.336C58.6507 41.7813 59.0773 41.2 59.472 40.592C59.8773 39.9733 60.208 39.3867 60.464 38.832C60.5493 38.6293 60.688 38.5013 60.88 38.448C61.0827 38.384 61.2747 38.4 61.456 38.496C61.648 38.5813 61.776 38.72 61.84 38.912C61.904 39.0933 61.8933 39.28 61.808 39.472C61.3493 40.4747 60.7787 41.44 60.096 42.368C59.4133 43.2853 58.7093 44.0907 57.984 44.784C57.8133 44.944 57.616 45.04 57.392 45.072C57.168 45.0933 56.9653 45.0187 56.784 44.848ZM80.192 48.224C79.232 48.224 78.56 48.0533 78.176 47.712C77.792 47.3707 77.6 46.784 77.6 45.952V44.96C77.6 44.128 77.792 43.5413 78.176 43.2C78.56 42.8587 79.232 42.688 80.192 42.688H81.168V41.728H78.944C78.7733 41.728 78.6347 41.6693 78.528 41.552C78.4213 41.424 78.368 41.28 78.368 41.12C78.368 40.96 78.4213 40.8213 78.528 40.704C78.6347 40.576 78.7733 40.512 78.944 40.512H84.8C84.9813 40.512 85.12 40.576 85.216 40.704C85.3227 40.8213 85.376 40.96 85.376 41.12C85.376 41.28 85.3227 41.424 85.216 41.552C85.12 41.6693 84.9813 41.728 84.8 41.728H82.56V42.688H83.648C84.608 42.688 85.28 42.8587 85.664 43.2C86.048 43.5413 86.24 44.128 86.24 44.96V45.952C86.24 46.784 86.048 47.3707 85.664 47.712C85.28 48.0533 84.608 48.224 83.648 48.224H80.192ZM77.264 41.872C77.0827 41.872 76.928 41.8187 76.8 41.712C76.672 41.5947 76.608 41.4347 76.608 41.232V40.384C76.608 39.6587 76.7733 39.1413 77.104 38.832C77.4453 38.5227 78.0213 38.368 78.832 38.368H81.104V37.2C81.104 36.9653 81.1787 36.784 81.328 36.656C81.488 36.5173 81.6693 36.448 81.872 36.448C82.0853 36.448 82.2667 36.5173 82.416 36.656C82.5653 36.784 82.64 36.9653 82.64 37.2V38.368H84.88C85.7013 38.368 86.2773 38.5227 86.608 38.832C86.9387 39.1413 87.104 39.6587 87.104 40.384V41.216C87.104 41.4187 87.04 41.5787 86.912 41.696C86.784 41.8133 86.6293 41.872 86.448 41.872C86.2667 41.872 86.1067 41.8133 85.968 41.696C85.84 41.5787 85.776 41.4187 85.776 41.216V40.448C85.776 40.1173 85.7067 39.8933 85.568 39.776C85.44 39.648 85.1893 39.584 84.816 39.584H78.896C78.5333 39.584 78.2827 39.648 78.144 39.776C78.0053 39.8933 77.936 40.1173 77.936 40.448V41.232C77.936 41.4347 77.8667 41.5947 77.728 41.712C77.6 41.8187 77.4453 41.872 77.264 41.872ZM73.12 50.816C72.9173 50.6987 72.8053 50.5387 72.784 50.336C72.7627 50.144 72.8053 49.9627 72.912 49.792C73.136 49.4507 73.3813 49.024 73.648 48.512C73.9253 48 74.192 47.4773 74.448 46.944C74.7147 46.4107 74.9333 45.9413 75.104 45.536C75.1893 45.344 75.3173 45.2213 75.488 45.168C75.6587 45.104 75.8347 45.1147 76.016 45.2C76.1973 45.2747 76.32 45.392 76.384 45.552C76.4587 45.7013 76.4533 45.8773 76.368 46.08C76.2507 46.3787 76.1013 46.7307 75.92 47.136C75.7387 47.5307 75.5467 47.936 75.344 48.352C75.1413 48.768 74.9333 49.168 74.72 49.552C74.5173 49.936 74.336 50.2613 74.176 50.528C74.0693 50.6987 73.9147 50.816 73.712 50.88C73.52 50.944 73.3227 50.9227 73.12 50.816ZM86.24 51.28C85.9307 51.1413 85.584 50.976 85.2 50.784C84.816 50.592 84.4373 50.384 84.064 50.16C83.6907 49.936 83.3493 49.712 83.04 49.488C82.9013 49.3813 82.8107 49.2373 82.768 49.056C82.736 48.8747 82.784 48.7093 82.912 48.56C83.04 48.4107 83.1947 48.3307 83.376 48.32C83.5573 48.2987 83.728 48.3413 83.888 48.448C84.1653 48.6293 84.48 48.8213 84.832 49.024C85.184 49.2267 85.536 49.4187 85.888 49.6C86.2507 49.7707 86.576 49.9147 86.864 50.032C87.0773 50.1067 87.2267 50.2293 87.312 50.4C87.3973 50.5707 87.3973 50.7467 87.312 50.928C87.216 51.152 87.0613 51.2907 86.848 51.344C86.6453 51.3973 86.4427 51.376 86.24 51.28ZM77.6 51.264C77.3867 51.36 77.1733 51.3813 76.96 51.328C76.7467 51.2853 76.592 51.1627 76.496 50.96C76.4107 50.7573 76.4053 50.5707 76.48 50.4C76.5653 50.2293 76.7093 50.1067 76.912 50.032C77.2107 49.9147 77.5413 49.7653 77.904 49.584C78.2773 49.392 78.64 49.1947 78.992 48.992C79.344 48.7893 79.648 48.6027 79.904 48.432C80.064 48.3253 80.2347 48.288 80.416 48.32C80.608 48.3413 80.7573 48.432 80.864 48.592C80.9813 48.752 81.024 48.9173 80.992 49.088C80.96 49.2587 80.8693 49.3973 80.72 49.504C80.2933 49.8027 79.7973 50.1067 79.232 50.416C78.6773 50.736 78.1333 51.0187 77.6 51.264ZM74.656 43.232C74.5173 43.1253 74.336 42.9973 74.112 42.848C73.8987 42.6987 73.68 42.5547 73.456 42.416C73.232 42.2667 73.04 42.1547 72.88 42.08C72.72 41.9947 72.6187 41.8667 72.576 41.696C72.5333 41.5147 72.5547 41.3387 72.64 41.168C72.7467 40.9867 72.8907 40.88 73.072 40.848C73.264 40.8053 73.4453 40.832 73.616 40.928C73.776 41.0027 73.9733 41.1093 74.208 41.248C74.4427 41.3867 74.672 41.5307 74.896 41.68C75.1307 41.8187 75.3173 41.9413 75.456 42.048C75.616 42.1653 75.7173 42.32 75.76 42.512C75.8027 42.704 75.7653 42.8853 75.648 43.056C75.5413 43.216 75.3867 43.312 75.184 43.344C74.992 43.376 74.816 43.3387 74.656 43.232ZM75.36 39.616C75.2213 39.5093 75.04 39.3813 74.816 39.232C74.592 39.0827 74.368 38.9387 74.144 38.8C73.92 38.6613 73.7333 38.5493 73.584 38.464C73.424 38.3787 73.3173 38.2507 73.264 38.08C73.2213 37.8987 73.248 37.728 73.344 37.568C73.4507 37.3867 73.5947 37.28 73.776 37.248C73.968 37.2053 74.1493 37.2267 74.32 37.312C74.4693 37.376 74.656 37.4773 74.88 37.616C75.1147 37.7547 75.3493 37.8987 75.584 38.048C75.8187 38.1973 76.0053 38.3253 76.144 38.432C76.3147 38.5493 76.416 38.704 76.448 38.896C76.4907 39.088 76.4533 39.2747 76.336 39.456C76.2293 39.616 76.0747 39.712 75.872 39.744C75.68 39.7653 75.5093 39.7227 75.36 39.616ZM82.56 47.056H83.472C84.0267 47.056 84.3947 46.992 84.576 46.864C84.7573 46.7253 84.8533 46.4267 84.864 45.968H82.56V47.056ZM80.384 47.056H81.168V45.968H78.976C78.9867 46.4267 79.0827 46.7253 79.264 46.864C79.456 46.992 79.8293 47.056 80.384 47.056ZM82.56 44.864H84.864C84.8533 44.4373 84.752 44.1653 84.56 44.048C84.368 43.92 84.0053 43.856 83.472 43.856H82.56V44.864ZM78.976 44.864H81.168V43.856H80.384C79.84 43.856 79.472 43.92 79.28 44.048C79.0987 44.1653 78.9973 44.4373 78.976 44.864Z" fill="black"/>
<path d="M18 73L125.741 52H160V152C160 157.523 155.523 162 150 162H28C22.4772 162 18 157.523 18 152V73Z" fill="#D9D9D9"/>
<defs>
<filter id="filter0_d_0_1" x="0" y="0" width="182" height="183" filterUnits="userSpaceOnUse" color-interpolation-filters="sRGB">
<feFlood flood-opacity="0" result="BackgroundImageFix"/>
<feColorMatrix in="SourceAlpha" type="matrix" values="0 0 0 0 0 0 0 0 0 0 0 0 0 0 0 0 0 0 127 0" result="hardAlpha"/>
<feOffset dx="7" dy="8"/>
<feComposite in2="hardAlpha" operator="out"/>
<feColorMatrix type="matrix" values="0 0 0 0 0.262745 0 0 0 0 0.721569 0 0 0 0 0.729412 0 0 0 1 0"/>
<feBlend mode="normal" in2="BackgroundImageFix" result="effect1_dropShadow_0_1"/>
<feBlend mode="normal" in="SourceGraphic" in2="effect1_dropShadow_0_1" result="shape"/>
</filter>
</defs>
</svg>
